<?xml version="1.0" encoding="UTF-8"?>
<svg version="1.1" xmlns="http://www.w3.org/2000/svg" width="500" height="500">
<path d="M0 0 C1.34012415 -0.005717 2.68024343 -0.01268635 4.02035522 -0.02079773 C7.62797111 -0.03859884 11.23534204 -0.03758551 14.84298849 -0.03185534 C17.86946232 -0.02874407 20.8958904 -0.0348774 23.92235768 -0.04089409 C31.07002269 -0.05489523 38.21756807 -0.05341532 45.36523438 -0.04199219 C52.70608833 -0.03051858 60.0465766 -0.0445838 67.38738239 -0.07138866 C73.72068959 -0.09363729 80.05388277 -0.10016244 86.38722622 -0.09431225 C90.15632019 -0.09096286 93.92517997 -0.09322157 97.69424057 -0.11056328 C101.24200543 -0.12617735 104.78923413 -0.12191962 108.33697891 -0.10325813 C110.23686848 -0.09789194 112.13678298 -0.11197608 114.03662109 -0.12695312 C129.01359919 -0.0003241 141.6418581 4.86269884 152.53955078 15.21655273 C167.177297 30.87414192 167.87301508 45.73838454 167.53955078 66.21655273 C167.51944904 68.37343714 167.50120479 70.53033969 167.48486328 72.68725586 C167.44117368 77.92658982 167.37455538 83.16523461 167.28955078 88.40405273 C169.06908394 88.39072906 169.06908394 88.39072906 170.88456726 88.37713623 C182.10888239 88.29576569 193.33313704 88.2359512 204.55768108 88.19680405 C210.3272355 88.17600096 216.09655026 88.14781705 221.8659668 88.10229492 C227.44216555 88.05857671 233.01813494 88.034861 238.59449196 88.02454376 C240.71338316 88.0171988 242.83226296 88.0028568 244.95105553 87.98113251 C264.45189777 87.78928555 278.90182191 90.32606782 293.66455078 104.21655273 C298.05826286 108.80554091 301.07521232 113.45301812 303.28955078 119.40405273 C303.63289459 120.3195137 303.9762384 121.23497467 304.32998657 122.17817688 C305.99723252 128.14183556 305.58520457 134.39723016 305.58007812 140.53759766 C305.58606882 141.97054899 305.59287561 143.40349711 305.60043335 144.83644104 C305.61803619 148.71222196 305.62278604 152.58791449 305.62406492 156.46373153 C305.62548925 158.88616775 305.62976396 161.30858167 305.63505936 163.73101234 C305.65353403 172.18413337 305.66173236 180.63719148 305.66015625 189.09033203 C305.65895249 196.96862088 305.68010714 204.84663682 305.71164358 212.72485656 C305.73777636 219.49444403 305.74852496 226.26394211 305.74724543 233.03357965 C305.74673532 237.0746458 305.75244673 241.11546874 305.77360153 245.1564846 C305.79293602 248.95283141 305.79314179 252.74870151 305.77856827 256.54506493 C305.77647373 257.93825983 305.78121947 259.33148425 305.79328918 260.72462845 C305.80869235 262.62549705 305.79705689 264.52652759 305.7840271 266.42741394 C305.78511663 267.49128924 305.78620617 268.55516455 305.78732872 269.6512785 C305.15349404 273.15646353 304.13165566 274.30017313 301.28955078 276.40405273 C299.63955078 276.73405273 297.98955078 277.06405273 296.28955078 277.40405273 C296.28955078 283.34405273 296.28955078 289.28405273 296.28955078 295.40405273 C297.93955078 295.73405273 299.58955078 296.06405273 301.28955078 296.40405273 C303.82473606 298.59664541 305.08787966 300.26124969 305.67626953 303.59545898 C305.85909218 307.42212611 305.77734635 309.68139264 303.60205078 312.90405273 C301.28955078 314.40405273 301.28955078 314.40405273 296.28955078 315.40405273 C296.28955078 322.00405273 296.28955078 328.60405273 296.28955078 335.40405273 C297.93955078 335.73405273 299.58955078 336.06405273 301.28955078 336.40405273 C304.40962462 339.22525661 305.21902962 340.89336748 305.79748535 345.08230591 C305.8211199 346.52676743 305.82291686 347.97169118 305.80712891 349.41625977 C305.81764282 350.60517067 305.81764282 350.60517067 305.82836914 351.81809998 C305.84594171 354.43304731 305.83432272 357.04690722 305.82080078 359.66186523 C305.82349752 361.48924974 305.82738146 363.31663284 305.83239746 365.14401245 C305.83829286 368.97562307 305.82973426 372.80686055 305.81103516 376.63842773 C305.78834239 381.52395735 305.80130661 386.40860323 305.82532501 391.29409981 C305.83986492 395.07079572 305.83513805 398.84728659 305.82481384 402.62398911 C305.82216407 404.42352276 305.82535405 406.22307565 305.83473206 408.02258682 C305.90233714 424.65341228 302.89997647 436.23951241 291.12158203 448.69702148 C278.21908037 460.86876199 263.27985525 462.85941717 246.26799011 462.79173279 C244.55255371 462.79591091 242.83712008 462.80139104 241.12169152 462.8080526 C236.43046269 462.82246331 231.73941019 462.81827618 227.04817188 462.81088579 C221.97986713 462.80614554 216.91160007 462.81867159 211.8433075 462.8289032 C201.92260887 462.84608009 192.00197361 462.84693345 182.08126398 462.84169029 C174.01527798 462.83764507 165.94931068 462.83909634 157.88332558 462.84443855 C156.15979893 462.84556119 156.15979893 462.84556119 154.40145356 462.8467065 C152.06703867 462.84823801 149.73262378 462.84977636 147.39820889 462.85132147 C125.51691908 462.86504265 103.63566503 462.85961163 81.75437603 462.84813625 C61.75059829 462.83820566 41.74691307 462.85114224 21.7431496 462.87507045 C1.18779856 462.89947259 -19.3675094 462.90906648 -39.92287463 462.90241772 C-51.45692459 462.89892781 -62.99090341 462.90114248 -74.5249424 462.91866875 C-84.34423887 462.9334047 -94.16341412 462.93400796 -103.98270825 462.91659784 C-108.98902876 462.90809675 -113.99513284 462.90591653 -119.00144196 462.92124939 C-123.59154264 462.93513305 -128.18124225 462.93028621 -132.77131995 462.91101015 C-134.42466018 462.90726108 -136.07803282 462.91014034 -137.73134408 462.9206218 C-154.43535201 463.01892204 -168.76063217 459.89645564 -181.46044922 448.15405273 C-191.49333554 437.39764096 -195.17518015 426.5154899 -195.09812927 412.08255005 C-195.10351481 410.86572285 -195.10890035 409.64889564 -195.11444908 408.39519489 C-195.12623349 405.03892339 -195.12467972 401.6831518 -195.11728227 398.32690072 C-195.11253664 394.69897963 -195.12507277 391.07111089 -195.13529968 387.44320679 C-195.15246599 380.34400697 -195.15333218 373.24489574 -195.14808678 366.14568056 C-195.14403966 360.37319234 -195.14549506 354.60073023 -195.15083504 348.82824326 C-195.15158346 348.00558097 -195.15233188 347.18291868 -195.15310298 346.33532723 C-195.15463452 344.66389807 -195.15617286 342.99246892 -195.15771795 341.32103978 C-195.17143524 325.65852962 -195.16601081 309.99606946 -195.15453274 294.33356045 C-195.144602 280.018158 -195.15753963 265.70288484 -195.18146693 251.38750233 C-195.20587479 236.67325937 -195.21546161 221.95907659 -195.2088142 207.2448138 C-195.20532562 198.98996462 -195.20753012 190.73521484 -195.22506523 182.48038101 C-195.23980836 175.45298024 -195.24039521 168.42574885 -195.22299432 161.39835133 C-195.21449906 157.8161486 -195.21229819 154.23424819 -195.22764587 150.65206146 C-195.24410962 146.76106159 -195.22930653 142.87052494 -195.21165466 138.97952271 C-195.22125967 137.85820045 -195.23086468 136.73687819 -195.24076074 135.58157647 C-195.12086308 122.70031167 -190.37185196 112.17959303 -181.64794922 102.84155273 C-166.77412058 88.55971727 -150.86756271 87.96227839 -131.41748047 88.11108398 C-129.25844112 88.11668737 -127.09939793 88.12095396 -124.94035339 88.12394714 C-119.29000094 88.13533742 -113.63988413 88.16475401 -107.98962402 88.19805908 C-102.21105129 88.228886 -96.43244006 88.24247934 -90.65380859 88.25756836 C-79.3392526 88.28962971 -68.0248706 88.34075494 -56.71044922 88.40405273 C-56.71933167 87.85662918 -56.72821411 87.30920563 -56.73736572 86.74519348 C-56.82669189 80.98518446 -56.88653208 75.22537593 -56.93017578 69.46484375 C-56.95014192 67.32250968 -56.9773246 65.18022905 -57.01220703 63.03808594 C-57.29122304 45.4477679 -56.52841028 32.35643642 -44.71044922 18.40405273 C-44.17677734 17.75823242 -43.64310547 17.11241211 -43.09326172 16.44702148 C-31.39890941 3.5599616 -16.7347754 -0.06122579 0 0 Z M3.28955078 60.40405273 C3.28955078 69.64405273 3.28955078 78.88405273 3.28955078 88.40405273 C37.60955078 88.40405273 71.92955078 88.40405273 107.28955078 88.40405273 C107.28955078 79.16405273 107.28955078 69.92405273 107.28955078 60.40405273 C72.96955078 60.40405273 38.64955078 60.40405273 3.28955078 60.40405273 Z M-89.71044922 229.40405273 C-89.77232422 235.88030273 -89.83419922 242.35655273 -89.89794922 249.02905273 C-89.92526123 251.06270996 -89.95257324 253.09636719 -89.98071289 255.19165039 C-89.98948092 256.81713264 -89.99712411 258.44262152 -90.00341797 260.06811523 C-90.01876587 260.90109131 -90.03411377 261.73406738 -90.04992676 262.59228516 C-90.05254461 268.45104604 -89.12423956 272.72714781 -85.06201172 277.23217773 C-84.49224609 277.70139648 -83.92248047 278.17061523 -83.33544922 278.65405273 C-82.48853516 279.37334961 -82.48853516 279.37334961 -81.62451172 280.10717773 C-75.71322227 284.11237793 -69.62600218 284.11449316 -62.71044922 283.40405273 C-56.49339721 281.67651915 -52.25897139 277.69613943 -48.71044922 272.40405273 C-47.80836799 269.69780904 -47.58817322 268.16554288 -47.59692383 265.39160156 C-47.5971051 264.17398132 -47.5971051 264.17398132 -47.59729004 262.9317627 C-47.60240601 262.08343872 -47.60752197 261.23511475 -47.61279297 260.36108398 C-47.61380005 259.5777771 -47.61480713 258.79447021 -47.61584473 257.98742676 C-47.62107333 255.06378717 -47.63503461 252.14016847 -47.64794922 249.21655273 C-47.66857422 242.67842773 -47.68919922 236.14030273 -47.71044922 229.40405273 C-61.57044922 229.40405273 -75.43044922 229.40405273 -89.71044922 229.40405273 Z M158.28955078 229.40405273 C158.22767578 235.69467773 158.16580078 241.98530273 158.10205078 248.46655273 C158.07473877 250.43889893 158.04742676 252.41124512 158.01928711 254.44335938 C158.01051653 256.02530304 158.00287395 257.60725352 157.99658203 259.18920898 C157.98123413 259.99547729 157.96588623 260.80174561 157.95007324 261.63244629 C157.94729831 267.68643016 158.87101857 272.57861107 162.93798828 277.32983398 C163.50775391 277.78745117 164.07751953 278.24506836 164.66455078 278.71655273 C165.22916016 279.18706055 165.79376953 279.65756836 166.37548828 280.14233398 C172.56229433 284.22057552 179.09997696 284.24732802 186.28955078 283.40405273 C192.00898994 281.27864711 195.79466716 277.27570869 199.28955078 272.40405273 C200.19163201 269.69780904 200.41182678 268.16554288 200.40307617 265.39160156 C200.4028949 264.17398132 200.4028949 264.17398132 200.40270996 262.9317627 C200.39759399 262.08343872 200.39247803 261.23511475 200.38720703 260.36108398 C200.38619995 259.5777771 200.38519287 258.79447021 200.38415527 257.98742676 C200.37892667 255.06378717 200.36496539 252.14016847 200.35205078 249.21655273 C200.33142578 242.67842773 200.31080078 236.14030273 200.28955078 229.40405273 C186.42955078 229.40405273 172.56955078 229.40405273 158.28955078 229.40405273 Z " fill="#080707" transform="translate(194.71044921875,18.595947265625)"/>
<path d="M0 0 C2.97 1.65 5.94 3.3 9 5 C10.87160298 5.80857054 12.76483017 6.57174876 14.6875 7.25 C15.55761719 7.56453125 16.42773438 7.8790625 17.32421875 8.203125 C23.14936724 9.93791375 28.87043315 10.19051464 34.8984375 10.31640625 C35.73339752 10.33718735 36.56835754 10.35796844 37.42861938 10.37937927 C40.0773349 10.44439469 42.72614359 10.50353491 45.375 10.5625 C47.17839478 10.60573096 48.98178038 10.64934666 50.78515625 10.69335938 C55.19001039 10.80002639 59.5949576 10.90142695 64 11 C64.05913574 12.14162598 64.11827148 13.28325195 64.17919922 14.45947266 C64.26250772 15.98601285 64.34601439 17.51254224 64.4296875 19.0390625 C64.46795654 19.78808838 64.50622559 20.53711426 64.5456543 21.30883789 C65.32902175 35.34100251 68.33378185 47.22874576 79.125 57 C87.84110616 64.23328312 97.88677362 66.44903013 109.125 66 C120.65796673 64.7860035 131.27547803 59.85436183 138.78125 50.8671875 C147.60227251 38.45721955 146.34812586 26.6449794 147 11 C201.78 11 256.56 11 313 11 C313.33 18.92 313.66 26.84 314 35 C319.05873178 47.64682944 323.80151267 56.60822661 336.125 62.875 C346.87446888 67.03957411 360.39563499 66.74992164 371.25 63 C381.81665249 58.11992893 388.89713302 50.21347143 392.99609375 39.36328125 C395.68259066 30.14692581 395.71087763 20.53106852 396 11 C397.01199463 10.98541748 398.02398926 10.97083496 399.06665039 10.95581055 C402.89705109 10.89691485 406.72691842 10.81970797 410.55688477 10.73754883 C412.20035003 10.70472116 413.84391666 10.67656504 415.48754883 10.65356445 C432.05668842 10.41563303 445.56623208 8.67011316 460 0 C460.01981934 0.91289795 460.03963867 1.8257959 460.06005859 2.76635742 C460.13836264 6.16782472 460.22506225 9.56886604 460.31738281 12.9699707 C460.35555952 14.43928862 460.39043182 15.90869639 460.421875 17.37817383 C460.46777289 19.49593114 460.52572372 21.6130759 460.5859375 23.73046875 C460.63306885 25.63928833 460.63306885 25.63928833 460.68115234 27.58666992 C461.07618951 31.81562448 461.72912224 34.81384743 464.875 37.75 C467.19367845 39.24875896 467.19367845 39.24875896 471 40 C471 45.94 471 51.88 471 58 C472.65 58.33 474.3 58.66 476 59 C478.53518528 61.19259267 479.79832887 62.85719695 480.38671875 66.19140625 C480.5695414 70.01807338 480.48779557 72.2773399 478.3125 75.5 C476 77 476 77 471 78 C471 84.6 471 91.2 471 98 C472.65 98.33 474.3 98.66 476 99 C476.33 99.66 476.66 100.32 477 101 C476.26394531 100.86980469 475.52789062 100.73960937 474.76953125 100.60546875 C473.79371094 100.46753906 472.81789063 100.32960938 471.8125 100.1875 C470.84957031 100.03667969 469.88664062 99.88585937 468.89453125 99.73046875 C465.82864027 99.75499099 465.82864027 99.75499099 463.35832214 102.04554749 C460.50656755 105.61816098 460.29784233 108.15762327 460.37231445 112.54077148 C460.36504333 113.28288879 460.35777222 114.0250061 460.35028076 114.78961182 C460.33173343 117.23392874 460.34773853 119.67677687 460.36328125 122.12109375 C460.35523798 123.82594608 460.34471805 125.53078836 460.33183289 127.23561096 C460.30329519 131.71982697 460.30270596 136.20358076 460.30969238 140.68786621 C460.31701692 147.86113927 460.28559793 155.03426262 460.24724388 162.20741463 C460.23841602 164.70791944 460.24368657 167.20809895 460.25080872 169.70860291 C460.24742263 171.24901415 460.24367289 172.78942466 460.23950195 174.32983398 C460.24519699 175.02041397 460.25089203 175.71099396 460.25675964 176.42250061 C460.20614692 184.76324403 457.14196793 190.31940899 451.8125 196.5625 C445.27614688 202.22733937 438.83107126 205.12187349 430.19040489 205.13422108 C429.49065302 205.13657331 428.79090115 205.13892554 428.06994468 205.14134905 C425.70753357 205.1480458 423.34517738 205.14758062 420.98275757 205.14717102 C419.27891443 205.15046923 417.57507208 205.15419471 415.87123072 205.1583125 C411.17513156 205.16834558 406.47904518 205.1720514 401.78293681 205.17470181 C396.7234599 205.178601 391.66399314 205.18817962 386.60452271 205.19691467 C374.37870627 205.21669029 362.15288898 205.22674682 349.92706054 205.23564246 C344.17219453 205.24002369 338.41732943 205.24539094 332.66246414 205.25063133 C313.53605274 205.26764494 294.40964192 205.28213952 275.28322411 205.28938007 C270.31821059 205.29129002 265.35319709 205.29321035 260.38818359 205.29516602 C258.53709777 205.29589163 258.53709777 205.29589163 256.64861627 205.2966319 C236.65389212 205.30493369 216.65922776 205.33027257 196.66452973 205.36274669 C176.1444949 205.39580278 155.62449048 205.41382754 135.10442889 205.41702431 C123.57991048 205.41919079 112.05547927 205.42795949 100.53098679 205.45348549 C90.71685523 205.47517268 80.90283204 205.48325266 71.08867924 205.47351871 C66.08099978 205.46896824 61.07354399 205.47090367 56.06589508 205.49028015 C51.48006798 205.50787123 46.89462842 205.50694705 42.30879743 205.49138286 C40.65126353 205.48900062 38.99370308 205.49336224 37.33620982 205.50521151 C28.84749071 205.56212957 21.49033284 205.53215823 14 201 C12.948125 200.443125 11.89625 199.88625 10.8125 199.3125 C5.28022746 194.76374258 2.25542248 189.84156723 0.91894531 182.82470703 C0.74502258 181.92188995 0.57109985 181.01907288 0.39190674 180.08889771 C0.26257751 179.39956146 0.13324829 178.71022522 0 178 C0.66537623 177.99668985 1.33075247 177.99337971 2.01629162 177.98996925 C18.20781403 177.90874205 34.3992345 177.81665053 50.59062481 177.71247292 C58.42066686 177.66235524 66.25069848 177.61591223 74.08081055 177.578125 C80.90568836 177.54517959 87.73048507 177.50533429 94.55527335 177.45720994 C98.16880522 177.43197026 101.78228347 177.41018154 105.39587975 177.39665604 C109.4302981 177.38142612 113.46445866 177.35079173 117.4987793 177.31884766 C118.69639893 177.31668747 119.89401855 177.31452728 121.12792969 177.31230164 C122.22864304 177.30113815 123.32935638 177.28997467 124.46342468 177.2784729 C125.41748042 177.27294214 126.37153616 177.26741138 127.35450268 177.26171303 C130.2776801 176.97252974 132.38859242 176.34078294 135 175 C137.11212504 171.83181244 137.33156464 169.86780748 137.55859375 166.1328125 C136.8853801 163.56236039 135.78862208 161.91529224 133.87084389 160.08190346 C129.56706721 157.5930422 124.13764228 158.30645591 119.31518555 158.34057617 C118.00617436 158.33006131 116.69716318 158.31954645 115.34848499 158.30871296 C111.81399579 158.28081826 108.28011754 158.28276137 104.74555206 158.29096222 C101.42649302 158.29412027 98.107674 158.2702673 94.78869629 158.24865723 C85.08839226 158.2011866 75.38791556 158.1969754 65.6875 158.1875 C44.010625 158.125625 22.33375 158.06375 0 158 C0 105.86 0 53.72 0 0 Z " fill="#FDB854" transform="translate(20,256)"/>
<path d="M0 0 C1.71243811 -0.00461246 3.42487226 -0.0109677 5.13729817 -0.01890898 C9.82941936 -0.03557814 14.52121435 -0.02736688 19.21333659 -0.0149641 C24.27887894 -0.005906 29.34436559 -0.01988717 34.40989685 -0.03088379 C44.32821181 -0.04866583 54.24640566 -0.04483029 64.16472536 -0.03323323 C72.22650652 -0.02419745 80.28825375 -0.02297554 88.35003853 -0.02732849 C89.4977068 -0.02794142 90.64537508 -0.02855436 91.82782118 -0.02918586 C94.15934508 -0.03046477 96.49086896 -0.03176163 98.82239283 -0.03307623 C120.68306005 -0.04448124 142.54366016 -0.0313698 164.40431637 -0.00987476 C183.15719688 0.00799374 201.90997834 0.00489397 220.66285706 -0.0135498 C242.44407709 -0.034962 264.22523831 -0.04338009 286.0064674 -0.03110075 C288.32969065 -0.02982657 290.6529139 -0.02856908 292.97613716 -0.02732849 C294.11918091 -0.02671139 295.26222466 -0.02609429 296.4399061 -0.02545848 C304.49044329 -0.02200646 312.54094313 -0.02783081 320.59147453 -0.0372467 C330.40471858 -0.04847202 340.21783467 -0.04541544 350.03106409 -0.02412373 C355.03687078 -0.01362021 360.04246422 -0.00947965 365.04826927 -0.02272034 C369.63331375 -0.03466453 374.21794787 -0.02804822 378.80295528 -0.00681013 C380.45897294 -0.00235263 382.11502546 -0.00459113 383.77102058 -0.01431328 C395.20556782 -0.07627929 405.05397256 0.73008683 413.76515198 8.94934082 C422.36394849 18.09846031 421.55423089 29.57219104 421.56593323 41.34777832 C421.57237416 42.8803774 421.57910344 44.41297528 421.58610535 45.9455719 C421.59802366 49.14534351 421.60179164 52.34500759 421.6006012 55.5447998 C421.6003979 59.62093038 421.62773471 63.69636462 421.66214561 67.77233028 C421.68450632 70.93387449 421.68843601 74.09525322 421.68738174 77.25686836 C421.68972259 78.75860564 421.69845939 80.26034855 421.71404648 81.76200676 C421.81378247 92.35871841 421.04792154 101.97712378 413.72999573 110.25793457 C405.83651308 118.14577633 398.26248852 121.01026255 387.30812073 121.09387207 C383.6965732 121.07612776 380.09000454 120.98467002 376.47999573 120.88293457 C374.6076431 120.85277718 372.73524332 120.82541163 370.86280823 120.80090332 C366.31735399 120.73541056 361.77420699 120.63221524 357.22999573 120.50793457 C357.17593567 119.82086426 357.12187561 119.13379395 357.06617737 118.42590332 C356.98746399 117.52484863 356.90875061 116.62379395 356.82765198 115.69543457 C356.75296692 114.80211426 356.67828186 113.90879395 356.60133362 112.98840332 C356.14872718 109.96507564 355.00199174 107.97332033 353.22999573 105.50793457 C353.22999573 104.84793457 353.22999573 104.18793457 353.22999573 103.50793457 C349.66853508 102.41252739 346.32691421 102.35540115 342.61305237 102.31506348 C341.95725693 102.30688599 341.30146149 102.2987085 340.62579346 102.2902832 C338.46392205 102.2655474 336.30211558 102.24894734 334.14015198 102.23449707 C333.39984678 102.22917339 332.65954159 102.22384972 331.8968029 102.21836472 C327.9812664 102.19168962 324.06576123 102.17229337 320.15016174 102.15783691 C316.91322184 102.14447897 313.67690955 102.11658567 310.44020081 102.07580566 C306.5257109 102.02649431 302.61179155 102.00171897 298.69700432 101.99460983 C297.207842 101.98789986 295.71869231 101.97268407 294.22970772 101.94871902 C292.14457469 101.91706243 290.06164428 101.91702886 287.97633362 101.92443848 C286.7914888 101.91635162 285.60664398 101.90826477 284.38589478 101.89993286 C280.30577299 102.68599128 278.83855832 104.353891 276.22999573 107.50793457 C274.26927024 111.42938555 274.626933 116.14162457 274.22999573 120.50793457 C219.44999573 120.50793457 164.66999573 120.50793457 108.22999573 120.50793457 C107.89999573 116.87793457 107.56999573 113.24793457 107.22999573 109.50793457 C105.05173458 105.09256938 105.05173458 105.09256938 101.22999573 102.50793457 C98.1168406 102.04665498 98.1168406 102.04665498 94.61305237 102.10388184 C93.95725693 102.09701859 93.30146149 102.09015533 92.62579346 102.08308411 C90.46369105 102.06482252 88.30231476 102.06865242 86.14015198 102.07434082 C84.63326787 102.06977851 83.12638584 102.06447279 81.61950684 102.05845642 C78.46297243 102.0495265 75.30669104 102.05194672 72.15016174 102.06188965 C68.11034508 102.07337651 64.07140288 102.05317263 60.03170109 102.02397251 C56.92007931 102.00560188 53.80866673 102.00590466 50.69700432 102.01161003 C49.20789298 102.01176316 47.71876738 102.00572587 46.22970772 101.99331856 C44.14469633 101.97839361 42.06129554 101.98909372 39.97633362 102.00622559 C38.7914888 102.00639175 37.60664398 102.00655792 36.38589478 102.00672913 C32.59306289 102.60908933 30.95105238 103.85137755 28.22999573 106.50793457 C26.42685823 109.6634252 26.05614053 112.62394927 25.68312073 116.18371582 C25.55405334 117.39861694 25.55405334 117.39861694 25.42237854 118.63806152 C25.35889221 119.25511963 25.29540588 119.87217773 25.22999573 120.50793457 C19.75322573 120.65772001 14.27768136 120.76581827 8.79933167 120.83752441 C6.94104714 120.86745522 5.08290089 120.90821604 3.22511292 120.96057129 C-10.40140237 121.33460373 -20.15919886 120.60511115 -30.77000427 111.13293457 C-36.90278643 104.38687419 -38.87265949 97.36760046 -38.96287537 88.41955566 C-38.97105286 87.71327026 -38.97923035 87.00698486 -38.98765564 86.27929688 C-39.01242277 83.94666368 -39.02900666 81.61409115 -39.04344177 79.28137207 C-39.04876545 78.48111225 -39.05408913 77.68085243 -39.05957413 76.85634232 C-39.08627288 72.61733205 -39.10565492 68.37835084 -39.12010193 64.13928223 C-39.13341581 60.64552482 -39.1612252 57.15235498 -39.20213318 53.65881348 C-39.25168011 49.42659836 -39.27624992 45.19491412 -39.28332901 40.96242142 C-39.29000572 39.3573794 -39.30513353 37.75234755 -39.32921982 36.14747238 C-39.47317864 25.97190779 -39.08299321 17.28831678 -31.8384552 9.40646362 C-22.4970469 0.29581964 -12.35519018 -0.07242953 0 0 Z " fill="#FDDA9B" transform="translate(58.77000427246094,126.4920654296875)"/>
<path d="M0 0 C1.89138702 -0.0076664 1.89138702 -0.0076664 3.82098389 -0.01548767 C7.26963396 -0.02884329 10.7181742 -0.02945983 14.16684508 -0.02692437 C17.0540696 -0.02585159 19.94127218 -0.03074624 22.82849199 -0.03552979 C29.64755965 -0.04661468 36.46657223 -0.04706916 43.28564453 -0.04101562 C50.29748094 -0.03498607 57.30911617 -0.04726314 64.32091826 -0.06858569 C70.35854143 -0.08626417 76.39610095 -0.09219296 82.43374902 -0.08894795 C86.03179254 -0.08714371 89.62969277 -0.08968399 93.22771263 -0.10366249 C97.24829291 -0.11869833 101.26847067 -0.10921646 105.2890625 -0.09765625 C107.05302116 -0.10912186 107.05302116 -0.10912186 108.85261536 -0.12081909 C120.42782454 -0.04758755 130.12940338 1.85492908 138.46801758 10.2746582 C144.97574646 18.30458117 146.77611751 25.30798764 146.66333008 35.4855957 C146.66050018 36.45373199 146.65767029 37.42186829 146.65475464 38.41934204 C146.64360454 41.49624248 146.61850937 44.57284648 146.59301758 47.6496582 C146.5829811 49.7421019 146.57385642 51.83455018 146.56567383 53.92700195 C146.54538798 59.04309208 146.50622921 64.15854526 146.46801758 69.2746582 C139.86801758 69.2746582 133.26801758 69.2746582 126.46801758 69.2746582 C126.4293457 64.57989258 126.4293457 64.57989258 126.38989258 59.7902832 C126.35147874 56.75861621 126.30631631 53.72711969 126.26049805 50.69555664 C126.23227479 48.5888686 126.21106702 46.48207441 126.19702148 44.37524414 C126.17561097 41.3463704 126.12896998 38.31877489 126.07739258 35.2902832 C126.07554962 33.87758148 126.07554962 33.87758148 126.07366943 32.43634033 C126.05395081 31.55572937 126.03423218 30.67511841 126.01391602 29.76782227 C126.00503357 28.99504944 125.99615112 28.22227661 125.98699951 27.42608643 C125.25250763 24.38126645 123.87193621 23.24575711 121.46801758 21.2746582 C118.8459656 20.67703576 118.8459656 20.67703576 115.92675781 20.76672363 C114.79954315 20.75544434 113.67232849 20.74416504 112.51095581 20.73254395 C111.27862213 20.74064087 110.04628845 20.74873779 108.77661133 20.75708008 C107.47547394 20.7500708 106.17433655 20.74306152 104.83377075 20.73583984 C101.26758543 20.71760833 97.7018631 20.72467292 94.13566971 20.73735619 C90.40325932 20.74748492 86.67088851 20.73809087 82.93847656 20.73181152 C76.67058191 20.72453471 70.40287579 20.73412357 64.13500977 20.75317383 C56.88896926 20.77494281 49.64337895 20.76789145 42.39734936 20.74586821 C36.17556245 20.72771503 29.95391105 20.72515542 23.73210621 20.73562288 C20.01630588 20.74185834 16.30071715 20.74269223 12.58493042 20.72947693 C8.44282376 20.71577437 4.30149292 20.73476659 0.15942383 20.75708008 C-1.07290985 20.74898315 -2.30524353 20.74088623 -3.57492065 20.73254395 C-4.70213531 20.74382324 -5.82934998 20.75510254 -6.99072266 20.76672363 C-8.45964211 20.76898579 -8.45964211 20.76898579 -9.95823669 20.77129364 C-13.26057914 21.41715471 -14.45438604 22.68372038 -16.53198242 25.2746582 C-17.13825393 27.43668579 -17.13825393 27.43668579 -17.07788086 29.76782227 C-17.1074588 31.08873871 -17.1074588 31.08873871 -17.13763428 32.43634033 C-17.13886292 33.37814148 -17.14009155 34.31994263 -17.14135742 35.2902832 C-17.15789368 36.26124939 -17.17442993 37.23221558 -17.19146729 38.23260498 C-17.24000361 41.33002004 -17.26133099 44.42694393 -17.28198242 47.5246582 C-17.31013735 49.62624549 -17.3400641 51.72780984 -17.37182617 53.8293457 C-17.44909681 58.97801037 -17.48956445 64.12511648 -17.53198242 69.2746582 C-24.13198242 69.2746582 -30.73198242 69.2746582 -37.53198242 69.2746582 C-37.62424105 63.19071393 -37.70374991 57.10923514 -37.75170898 51.02514648 C-37.77171868 48.95930722 -37.79893525 46.89352383 -37.83374023 44.82788086 C-37.88272958 41.84385318 -37.90505806 38.86057975 -37.92260742 35.8762207 C-37.94325256 34.96538727 -37.96389771 34.05455383 -37.98516846 33.11611938 C-37.98820069 24.28251201 -35.40026821 16.40338577 -29.30151367 9.87231445 C-20.16974352 1.62751535 -12.02498986 -0.02511683 0 0 Z " fill="#AADEF5" transform="translate(195.531982421875,38.725341796875)"/>
<path d="M0 0 C2.28505291 0.61725043 4.15196911 1.37620365 6.18359375 2.58984375 C7.90730149 6.03725922 7.68666047 9.82019714 7.18359375 13.58984375 C5.30738762 16.09145193 3.94468072 17.20930027 1.18359375 18.58984375 C-3.04113097 18.63062295 -6.70934712 18.23787836 -10.37890625 16.08984375 C-12.56953512 12.28005441 -12.66746425 8.86792995 -11.81640625 4.58984375 C-8.54797972 -0.68181195 -5.68055747 -0.87620384 0 0 Z " fill="#14110F" transform="translate(492.81640625,315.41015625)"/>
<path d="M0 0 C2.875 2.4375 2.875 2.4375 5 5 C5.33 5.33 5.66 5.66 6 6 C6.47584146 10.75841461 6.68250989 12.94321049 4.0625 17 C0.49193154 19.33179981 -1.6450206 19.74577495 -5.83984375 19.47265625 C-8 19 -8 19 -11.0625 17.0625 C-13.31003311 13.50994766 -13.7961723 11.3081864 -13.546875 7.16015625 C-13 5 -13 5 -10.4375 1.9375 C-6.44270148 -0.31411371 -4.50616365 -0.81930248 0 0 Z " fill="#0B0602" transform="translate(191,414)"/>
<path d="M0 0 C12.54 0 25.08 0 38 0 C38.495 8.415 38.495 8.415 39 17 C40.54392018 26.58855691 42.82797539 33.79840757 48 42 C46.68 41.67 45.36 41.34 44 41 C43.8453125 40.071875 43.8453125 40.071875 43.6875 39.125 C43.12474627 36.63473516 43.12474627 36.63473516 40 35 C39.3046875 32.72265625 39.3046875 32.72265625 38.875 30.0625 C38.40015268 27.23424271 37.90995063 24.7298519 37 22 C36.8535286 20.44733347 36.75305926 18.89004338 36.68359375 17.33203125 C36.62643188 16.1251062 36.62643188 16.1251062 36.56811523 14.89379883 C36.52501221 13.87697021 36.48190918 12.8601416 36.4375 11.8125 C36.293125 8.574375 36.14875 5.33625 36 2 C24.12 2 12.24 2 0 2 C0 1.34 0 0.68 0 0 Z " fill="#F0BA68" transform="translate(46,267)"/>
<path d="M0 0 C12.21 0 24.42 0 37 0 C37 0.33 37 0.66 37 1 C25.12 1 13.24 1 1 1 C1.03958834 8.52432774 1.03958834 8.52432774 1.09008789 16.04858398 C1.09258545 16.98001221 1.09508301 17.91144043 1.09765625 18.87109375 C1.10289307 19.82943115 1.10812988 20.78776855 1.11352539 21.77514648 C1 24 1 24 0 25 C0.04125 26.27875 0.0825 27.5575 0.125 28.875 C0.18037823 32.73763166 0.18037823 32.73763166 -1.375 35 C-3 36 -3 36 -5 36 C-5 37.32 -5 38.64 -5 40 C-6.5 41.75 -6.5 41.75 -8 43 C-8.99 42.67 -9.98 42.34 -11 42 C-10.52949219 41.34515625 -10.05898438 40.6903125 -9.57421875 40.015625 C-0.8471763 27.2231901 -0.53797366 15.06326238 0 0 Z " fill="#EEBB6E" transform="translate(416,267)"/>
<path d="M0 0 C0.66 0 1.32 0 2 0 C2 5.94 2 11.88 2 18 C3.65 18.33 5.3 18.66 7 19 C7.33 19.66 7.66 20.32 8 21 C4.7 20.34 1.4 19.68 -2 19 C-2 18.34 -2 17.68 -2 17 C-1.34 17 -0.68 17 0 17 C0 11.39 0 5.78 0 0 Z " fill="#E0C998" transform="translate(489,296)"/>
<path d="M0 0 C4.28379643 0.71260094 8.25093853 2.06921736 12.3125 3.5625 C12.95767578 3.79646484 13.60285156 4.03042969 14.26757812 4.27148438 C15.84621219 4.84447007 17.42327026 5.42179464 19 6 C19 6.33 19 6.66 19 7 C10.53136531 6.13284133 10.53136531 6.13284133 7.25 5.3125 C4.33872329 4.90815601 2.60531138 5.73456304 0 7 C0 4.69 0 2.38 0 0 Z " fill="#F1B85B" transform="translate(21,259)"/>
<path d="M0 0 C0.66 0.33 1.32 0.66 2 1 C2 1.66 2 2.32 2 3 C0.576875 3.928125 0.576875 3.928125 -0.875 4.875 C-4.02638425 7.01794129 -4.71511534 7.60933214 -6 11 C-6.45275278 13.81496741 -6.45275278 13.81496741 -6.625 16.75 C-6.69976562 17.73484375 -6.77453125 18.7196875 -6.8515625 19.734375 C-6.90054687 20.48203125 -6.94953125 21.2296875 -7 22 C-9 20 -9 20 -9.23046875 17.6875 C-9.21628906 16.800625 -9.20210938 15.91375 -9.1875 15 C-9.18105469 14.113125 -9.17460937 13.22625 -9.16796875 12.3125 C-9 10 -9 10 -8 8 C-7.34 8 -6.68 8 -6 8 C-6 7.01 -6 6.02 -6 5 C-4.6875 3.3125 -4.6875 3.3125 -3 2 C-2.01 2 -1.02 2 0 2 C0 1.34 0 0.68 0 0 Z " fill="#E1C99A" transform="translate(340,225)"/>
<path d="M0 0 C0.33 0 0.66 0 1 0 C1.24954005 1.43410368 1.47392642 2.87260072 1.6875 4.3125 C1.81511719 5.11300781 1.94273437 5.91351563 2.07421875 6.73828125 C2 9 2 9 0.64453125 10.79296875 C-1 12 -1 12 -3 12 C-3 13.32 -3 14.64 -3 16 C-4.5 17.75 -4.5 17.75 -6 19 C-6.99 18.67 -7.98 18.34 -9 18 C-8.27683594 16.93072266 -8.27683594 16.93072266 -7.5390625 15.83984375 C-4.10658541 10.63508768 -1.22866712 6.14333558 0 0 Z " fill="#E1A959" transform="translate(414,291)"/>
<path d="M0 0 C0 0.99 0 1.98 0 3 C-0.99 3 -1.98 3 -3 3 C-3 3.66 -3 4.32 -3 5 C-5.22630405 5.39163671 -7.45623765 5.76267785 -9.6875 6.125 C-10.92886719 6.33382813 -12.17023438 6.54265625 -13.44921875 6.7578125 C-17.03701724 7.00252483 -18.84813727 6.62715667 -22 5 C-22 4.67 -22 4.34 -22 4 C-20.49759766 3.94392578 -20.49759766 3.94392578 -18.96484375 3.88671875 C-9.11600537 3.48489051 -9.11600537 3.48489051 0 0 Z " fill="#F5BA64" transform="translate(392,319)"/>
<path d="M0 0 C0.33 0.66 0.66 1.32 1 2 C0.67 2.66 0.34 3.32 0 4 C0.99 4.33 1.98 4.66 3 5 C-1.97361654 6.75734451 -6.7415998 8.32584613 -12 9 C-8 6 -4 3 0 0 Z " fill="#DAA551" transform="translate(156,310)"/>
<path d="M0 0 C1.47968023 2.95936046 0.84835797 4.86760134 0 8 C-2.0625 9.375 -2.0625 9.375 -4 10 C-4.33 9.01 -4.66 8.02 -5 7 C-5.66 6.67 -6.32 6.34 -7 6 C-4.69 4.02 -2.38 2.04 0 0 Z M1 3 C1.66 3 2.32 3 3 3 C3 3.66 3 4.32 3 5 C2.34 5 1.68 5 1 5 C1 4.34 1 3.68 1 3 Z " fill="#ECAF56" transform="translate(404,310)"/>
<path d="M0 0 C2.475 0.99 2.475 0.99 5 2 C5 1.67 5 1.34 5 1 C7.97 1 10.94 1 14 1 C14 1.66 14 2.32 14 3 C6.86153846 5.33846154 6.86153846 5.33846154 2.5 3.625 C1.675 3.08875 0.85 2.5525 0 2 C0 1.34 0 0.68 0 0 Z " fill="#F0B454" transform="translate(34,455)"/>
<path d="M0 0 C1.32 0.99 2.64 1.98 4 3 C2.74874616 6.75376152 1.4347596 7.24073289 -2 9 C-2.66 9 -3.32 9 -4 9 C-3.67 8.01 -3.34 7.02 -3 6 C-2.65772583 4.66893378 -2.32248257 3.33599921 -2 2 C-1.34 2 -0.68 2 0 2 C0 1.34 0 0.68 0 0 Z " fill="#EDB358" transform="translate(468,448)"/>
<path d="M0 0 C5.66104589 0.49658297 9.87674471 1.54510684 15 4 C14.01 4.66 13.02 5.32 12 6 C8.8125 5.125 8.8125 5.125 6 4 C6 3.34 6 2.68 6 2 C4.02 2 2.04 2 0 2 C0 1.34 0 0.68 0 0 Z " fill="#E1C89A" transform="translate(452,127)"/>
<path d="M0 0 C1.92408724 2.88613087 2.96614795 5.61779432 4.13671875 8.859375 C5.44788833 12.11060092 7.18882978 15.00220101 9 18 C7.68 17.67 6.36 17.34 5 17 C4.896875 16.38125 4.79375 15.7625 4.6875 15.125 C4.12474627 12.63473516 4.12474627 12.63473516 1 11 C0.48828125 8.3984375 0.48828125 8.3984375 0.3125 5.375 C0.24675781 4.37210937 0.18101563 3.36921875 0.11328125 2.3359375 C0.07589844 1.56507813 0.03851563 0.79421875 0 0 Z " fill="#D3A357" transform="translate(85,291)"/>
<path d="M0 0 C0.99 0 1.98 0 3 0 C3 0.66 3 1.32 3 2 C2.236875 2.5775 1.47375 3.155 0.6875 3.75 C-2.29694969 6.24860904 -3.47180965 8.46103287 -5 12 C-5.33 12 -5.66 12 -6 12 C-6.125 9.125 -6.125 9.125 -6 6 C-5.34 5.34 -4.68 4.68 -4 4 C-3.67 3.34 -3.34 2.68 -3 2 C-2.01 2 -1.02 2 0 2 C0 1.34 0 0.68 0 0 Z " fill="#EED5A2" transform="translate(89,227)"/>
<path d="M0 0 C1.93681161 -0.08107583 3.8745934 -0.13922475 5.8125 -0.1875 C6.89144531 -0.22230469 7.97039062 -0.25710938 9.08203125 -0.29296875 C12 0 12 0 13.88671875 1.51171875 C14.25410156 2.00285156 14.62148438 2.49398438 15 3 C13.89591797 2.83951172 13.89591797 2.83951172 12.76953125 2.67578125 C6.64176636 1.82051134 6.64176636 1.82051134 0.8125 3.4375 C0.214375 3.953125 -0.38375 4.46875 -1 5 C-0.67 3.35 -0.34 1.7 0 0 Z " fill="#C6A671" transform="translate(482,354)"/>
<path d="M0 0 C1.37617356 4.39392559 0.56943301 7.75170719 -1 12 C-2.625 14 -2.625 14 -4 15 C-4.66 14.67 -5.32 14.34 -6 14 C-5.071875 12.7625 -5.071875 12.7625 -4.125 11.5 C-1.66173499 7.8487774 -0.8868362 4.28637498 0 0 Z " fill="#2A1506" transform="translate(480,435)"/>
<path d="M0 0 C0.556875 0.268125 1.11375 0.53625 1.6875 0.8125 C-1.9375 3.8125 -1.9375 3.8125 -5.3125 3.8125 C-5.6425 5.4625 -5.9725 7.1125 -6.3125 8.8125 C-7.125 7.125 -7.125 7.125 -7.3125 4.8125 C-3.35769774 -0.27224576 -3.35769774 -0.27224576 0 0 Z " fill="#2C1606" transform="translate(488.3125,355.1875)"/>
<path d="M0 0 C-4.37384413 2.91589609 -7.70542471 4.30254716 -13 4 C-12 2 -12 2 -8.75 0.875 C-5.62299365 0.14536518 -3.17377095 -0.19234975 0 0 Z " fill="#39220C" transform="translate(472,261)"/>
<path d="M0 0 C1.5625 1.75 1.5625 1.75 3 4 C2.6875 6.25 2.6875 6.25 2 8 C0.68 7.34 -0.64 6.68 -2 6 C-1.34 4.02 -0.68 2.04 0 0 Z " fill="#EFD295" transform="translate(163,224)"/>
<path d="M0 0 C0.66 0 1.32 0 2 0 C2.33 2.31 2.66 4.62 3 7 C0.525 6.01 0.525 6.01 -2 5 C-1.34 3.35 -0.68 1.7 0 0 Z " fill="#FADDA6" transform="translate(476,145)"/>
<path d="M0 0 C0.66 0.33 1.32 0.66 2 1 C2 2.32 2 3.64 2 5 C0.68 5.33 -0.64 5.66 -2 6 C-2 5.34 -2 4.68 -2 4 C-2.66 3.67 -3.32 3.34 -4 3 C-2.68 2.01 -1.36 1.02 0 0 Z " fill="#E7AE58" transform="translate(477,257)"/>
<path d="M0 0 C0.33 1.32 0.66 2.64 1 4 C-0.75 5.5625 -0.75 5.5625 -3 7 C-5.25 6.6875 -5.25 6.6875 -7 6 C-6.21625 5.566875 -5.4325 5.13375 -4.625 4.6875 C-1.78301625 3.10779753 -1.78301625 3.10779753 0 0 Z " fill="#271608" transform="translate(473,450)"/>
<path d="M0 0 C8.57142857 -0.28571429 8.57142857 -0.28571429 12 2 C7.28400182 2.92470553 4.32734391 3.22923777 0 1 C0 0.67 0 0.34 0 0 Z " fill="#F2B45C" transform="translate(370,323)"/>
<path d="M0 0 C0.66 0 1.32 0 2 0 C2.33 1.32 2.66 2.64 3 4 C2.34 4 1.68 4 1 4 C0.67 4.66 0.34 5.32 0 6 C-0.99 5.01 -1.98 4.02 -3 3 C-2.34 3 -1.68 3 -1 3 C-0.67 2.01 -0.34 1.02 0 0 Z " fill="#120A0A" transform="translate(102,310)"/>
<path d="M0 0 C-1.49097658 3.7952131 -3.75700849 5.61042731 -7 8 C-4.18918919 0 -4.18918919 0 0 0 Z " fill="#312214" transform="translate(92,229)"/>
<path d="M0 0 C3 1 3 1 4.1875 3.0625 C4.455625 3.701875 4.72375 4.34125 5 5 C3.68 5.33 2.36 5.66 1 6 C0.67 4.02 0.34 2.04 0 0 Z " fill="#ADD8EE" transform="translate(332,49)"/>
<path d="M0 0 C0.66 0 1.32 0 2 0 C2 4 2 4 0.5 5.75 C0.005 6.1625 -0.49 6.575 -1 7 C-1.99 6.67 -2.98 6.34 -4 6 C-2.7260411 3.96166576 -1.38938077 1.96147874 0 0 Z " fill="#D8A65F" transform="translate(409,303)"/>
<path d="M0 0 C-2.76223278 2.76223278 -5.20706617 2.57856291 -9 3 C-6.07868595 -0.19953443 -4.37453972 -1.45817991 0 0 Z " fill="#A1C9D9" transform="translate(183,41)"/>
<path d="M0 0 C0.66 1.32 1.32 2.64 2 4 C0.68 4.99 -0.64 5.98 -2 7 C-2 5.02 -2 3.04 -2 1 C-1.34 0.67 -0.68 0.34 0 0 Z " fill="#EAB358" transform="translate(474,444)"/>
<path d="M0 0 C0.33 0 0.66 0 1 0 C1.35233161 5.37305699 1.35233161 5.37305699 1 8 C-1 10 -1 10 -3 11 C-2.11223998 7.30099992 -1.05418136 3.65449539 0 0 Z " fill="#442B0F" transform="translate(196,420)"/>
<path d="M0 0 C-4.75 4 -4.75 4 -7 4 C-6.6875 2.0625 -6.6875 2.0625 -6 0 C-3 -1 -3 -1 0 0 Z " fill="#111F27" transform="translate(175,43)"/>
</svg>
