<?xml version="1.0" encoding="UTF-8"?>
<svg version="1.1" xmlns="http://www.w3.org/2000/svg" width="500" height="500">
<path d="M0 0 C1.30463951 -0.00855011 1.30463951 -0.00855011 2.63563538 -0.01727295 C4.47721144 -0.02670283 6.31880423 -0.03324892 8.16040039 -0.03710938 C10.93211821 -0.04673423 13.7030679 -0.07774261 16.47460938 -0.109375 C40.6327281 -0.2545263 61.51754826 5.91563337 79.03515625 23.203125 C96.92238796 41.34912317 102.36820101 63.8508669 102.203125 88.77734375 C101.95345675 93.86941472 101.37211014 98.9147508 100.74682617 103.97314453 C99.49998913 112.00223996 99.49998913 112.00223996 102.47265625 119.265625 C107.11408718 125.94346722 106.67085408 133.27867259 106.03515625 141.203125 C104.16001832 148.02357486 100.63871954 153.36531562 94.84765625 157.453125 C90.76181906 159.65592418 86.61264138 159.9955293 82.03515625 160.203125 C81.87015625 161.5025 81.70515625 162.801875 81.53515625 164.140625 C79.44728276 174.49177246 74.38204657 184.72320834 67.53515625 192.703125 C63.9343897 197.36125951 63.19764596 201.21674582 63.03515625 206.953125 C62.99841797 207.66275391 62.96167969 208.37238281 62.92382812 209.10351562 C63.00201146 212.44038055 63.36361735 214.4513685 65.62524414 216.9831543 C67.00118872 218.15930831 68.40570605 219.30260757 69.83251953 220.41650391 C72.04733148 222.21300067 73.80445699 224.09016792 75.65625 226.25390625 C86.68121501 238.74181046 98.31062975 244.20814554 114.03515625 249.203125 C115.19192871 249.57099121 115.19192871 249.57099121 116.37207031 249.94628906 C119.16135786 250.81835748 121.94882438 251.65068714 124.77734375 252.38671875 C127.29406119 253.29674288 128.45431463 254.0515642 130.03515625 256.203125 C130.70473121 258.87631358 130.80878333 261.44137537 131.03515625 264.203125 C131.61007812 264.30753906 132.185 264.41195313 132.77734375 264.51953125 C135.39356164 265.31163874 137.00769674 266.46694451 139.16015625 268.140625 C139.84335937 268.66527344 140.5265625 269.18992187 141.23046875 269.73046875 C143.03515625 271.203125 143.03515625 271.203125 145.03515625 273.203125 C147.39870897 273.47504039 147.39870897 273.47504039 150.16821289 273.38256836 C151.24015396 273.37273422 152.31209503 273.36290009 153.41651917 273.35276794 C154.58102097 273.33303421 155.74552277 273.31330048 156.9453125 273.29296875 C159.40429478 273.27253233 161.86327925 273.25235849 164.32226562 273.23242188 C168.20411296 273.18905339 172.0858168 273.14079007 175.9675293 273.08666992 C179.71011893 273.03815797 183.45252089 273.00842586 187.1953125 272.98046875 C188.92081078 272.9478318 188.92081078 272.9478318 190.6811676 272.91453552 C198.95955461 272.86397275 206.90472142 273.61640119 213.34765625 279.328125 C214.26998047 280.10542969 214.26998047 280.10542969 215.2109375 280.8984375 C220.55430253 287.64915564 221.60580456 294.36093947 221.28515625 302.765625 C221.26710938 303.67892578 221.2490625 304.59222656 221.23046875 305.53320312 C221.18388326 307.75766014 221.1185111 309.97979467 221.03515625 312.203125 C221.61429779 312.19868378 222.19343933 312.19424255 222.79013062 312.18966675 C228.85794591 312.14516681 234.92571427 312.11514867 240.99365234 312.09326172 C243.25343715 312.08324981 245.51320915 312.06963628 247.77294922 312.05224609 C251.03486303 312.02778534 254.29660444 312.01659347 257.55859375 312.0078125 C259.05608658 311.99232864 259.05608658 311.99232864 260.58383179 311.97653198 C272.22227661 311.97470106 280.88588763 313.76888761 289.72265625 321.578125 C296.26788873 329.00784836 299.33048813 335.08668211 299.40625 345.2421875 C299.41527847 346.00429535 299.42430695 346.7664032 299.43360901 347.55160522 C299.44805985 349.16017771 299.45698535 350.76880828 299.46069336 352.37744141 C299.47252313 354.80085391 299.52169664 357.22166003 299.57226562 359.64453125 C299.68445798 370.49611065 298.20019231 378.95557092 292.03515625 388.203125 C291.84221582 391.02485835 291.76536947 393.74886503 291.77978516 396.57080078 C291.7761647 397.42485001 291.77254425 398.27889923 291.76881409 399.15882874 C291.7619171 401.0150966 291.75941522 402.87138476 291.76076126 404.72766495 C291.76172613 407.67094873 291.74878688 410.61386688 291.73178101 413.55709839 C291.6855103 421.92605714 291.6609222 430.29498029 291.65429688 438.6640625 C291.64926678 443.78349295 291.62493537 448.90254479 291.58897018 454.02184677 C291.57920162 455.96814571 291.57682409 457.91449695 291.58214188 459.86081314 C291.58925566 462.59397691 291.57184026 465.32602362 291.54931641 468.05908203 C291.56157509 469.2517997 291.56157509 469.2517997 291.57408142 470.46861267 C291.44200545 479.5380505 287.26362896 487.69089499 281.03515625 494.203125 C274.98600041 498.82895006 270.04254482 500.35186052 262.45262146 500.35702515 C261.67307179 500.3614074 260.89352212 500.36578965 260.09034973 500.3703047 C257.46965455 500.38369388 254.848993 500.38987189 252.22827148 500.39599609 C250.35245105 500.40389712 248.47663213 500.41216607 246.60081482 500.42077637 C240.43180799 500.44700175 234.26279436 500.46230696 228.09375 500.4765625 C225.9694881 500.48192243 223.84522624 500.48729994 221.72096443 500.49269485 C212.88258547 500.5143265 204.04420833 500.53306195 195.20580959 500.54431725 C182.54445288 500.56054718 169.88340351 500.59369866 157.22216266 500.65071809 C148.31756095 500.68944991 139.41304131 500.70895393 130.50835758 500.71423781 C125.1915581 500.7178875 119.87508639 500.72986793 114.55837822 500.76234055 C109.55224427 500.79247713 104.54663544 500.79871298 99.54043007 500.78695679 C97.70790522 500.7867365 95.87535562 500.79500388 94.04291534 500.81261063 C82.94797202 500.91336888 74.28122928 500.38801721 65.4140625 493.02734375 C57.73761704 483.99720253 55.85419203 475.52632741 55.97265625 463.890625 C55.99328125 461.02375 56.01390625 458.156875 56.03515625 455.203125 C48.44515625 455.203125 40.85515625 455.203125 33.03515625 455.203125 C32.37515625 456.523125 31.71515625 457.843125 31.03515625 459.203125 C29.03515625 461.203125 29.03515625 461.203125 26.22265625 461.578125 C22.34170373 461.12154235 20.76864918 459.93661793 18.03515625 457.203125 C18.03515625 456.543125 18.03515625 455.883125 18.03515625 455.203125 C8.79515625 455.533125 -0.44484375 455.863125 -9.96484375 456.203125 C-10.62484375 457.523125 -11.28484375 458.843125 -11.96484375 460.203125 C-15.02177697 461.73159161 -17.59468922 461.43554945 -20.96484375 461.203125 C-23.40234375 459.890625 -23.40234375 459.890625 -24.96484375 458.203125 C-24.96484375 457.213125 -24.96484375 456.223125 -24.96484375 455.203125 C-46.08484375 455.203125 -67.20484375 455.203125 -88.96484375 455.203125 C-89.62484375 456.523125 -90.28484375 457.843125 -90.96484375 459.203125 C-94.45353026 461.52891601 -95.86202894 461.62177957 -99.96484375 461.203125 C-102.33984375 459.890625 -102.33984375 459.890625 -103.96484375 458.203125 C-103.96484375 457.213125 -103.96484375 456.223125 -103.96484375 455.203125 C-113.86484375 455.203125 -123.76484375 455.203125 -133.96484375 455.203125 C-134.29484375 456.523125 -134.62484375 457.843125 -134.96484375 459.203125 C-138.47737521 461.54481264 -139.82953731 461.69936177 -143.96484375 461.203125 C-146.60696411 459.62895203 -146.60696411 459.62895203 -148.96484375 457.203125 C-149.68234253 453.95149231 -149.68234253 453.95149231 -149.81591797 450.01489258 C-149.84743076 449.29013166 -149.87894356 448.56537075 -149.91141129 447.81864738 C-150.01162494 445.39111306 -150.07776649 442.96382297 -150.14453125 440.53515625 C-150.21013679 438.79644448 -150.27813757 437.05782166 -150.34835815 435.31929016 C-150.49629995 431.57730157 -150.63100292 427.83514598 -150.75671387 424.09234619 C-150.95973229 418.16820345 -151.21651989 412.24716148 -151.48535156 406.32568359 C-151.90602123 397.02098618 -152.30723614 387.71569026 -152.69342422 378.40949821 C-152.91401466 373.09453781 -153.13673178 367.77969377 -153.36572266 362.46508789 C-155.12506379 321.59085939 -155.12506379 321.59085939 -155.1875 305.6953125 C-155.19455963 304.70113815 -155.20161926 303.70696381 -155.20889282 302.68266296 C-155.17278693 295.29148842 -154.12384241 288.96942905 -150.96484375 282.203125 C-150.62582031 281.41808594 -150.28679687 280.63304687 -149.9375 279.82421875 C-142.19559757 263.9822476 -128.42585434 256.30669967 -112.51464844 250.80444336 C-110.81937012 250.22835327 -110.81937012 250.22835327 -109.08984375 249.640625 C-107.9493457 249.25076416 -106.80884766 248.86090332 -105.63378906 248.45922852 C-100.939547 246.86309171 -96.24955888 245.28754116 -91.50390625 243.8515625 C-80.40281273 240.13215268 -73.13444463 232.09003626 -65.32324219 223.7590332 C-63.97794434 222.32756958 -63.97794434 222.32756958 -62.60546875 220.8671875 C-61.80657227 219.99529785 -61.00767578 219.1234082 -60.18457031 218.22509766 C-57.99642433 216.23189209 -56.85564935 215.55560187 -53.96484375 215.203125 C-53.77406391 205.59259055 -53.84554786 199.17963825 -60.69921875 191.89453125 C-67.38002836 183.95819017 -73.96484375 170.59303879 -73.96484375 160.203125 C-74.54492188 160.17734375 -75.125 160.1515625 -75.72265625 160.125 C-83.93679825 159.52859365 -88.31948529 156.24705315 -93.66796875 150.1796875 C-98.63768827 142.60535594 -97.78930771 132.04783981 -96.5703125 123.40625 C-95.33783737 118.79440759 -93.67208395 116.85685924 -89.75 114.18359375 C-87.16530406 111.98546266 -86.05620275 111.01342304 -85.67138672 107.6003418 C-86.04902003 104.5177331 -86.6632333 101.59443755 -87.40234375 98.578125 C-87.84734153 96.42131081 -88.2887858 94.26376021 -88.7265625 92.10546875 C-89.05793213 90.56608643 -89.05793213 90.56608643 -89.39599609 88.99560547 C-90.46360337 83.7547076 -90.79794152 78.53704218 -90.96484375 73.203125 C-91.01640625 71.99785156 -91.06796875 70.79257813 -91.12109375 69.55078125 C-91.45867147 55.69602918 -89.40374116 43.58664431 -79.99609375 32.984375 C-73.54686859 26.7220839 -65.96646258 23.38994981 -57.27734375 21.328125 C-54.01779956 20.22110999 -52.65825074 19.25026348 -50.08984375 17.078125 C-39.86900942 8.73778489 -26.66075113 4.17557951 -13.96484375 1.203125 C-13.26383545 1.0280542 -12.56282715 0.8529834 -11.84057617 0.67260742 C-7.88645352 0.02707063 -4.00063902 0.02055644 0 0 Z M154.03515625 290.203125 C154.20015625 291.234375 154.36515625 292.265625 154.53515625 293.328125 C155.17731305 299.58915382 155.03515625 305.90925121 155.03515625 312.203125 C171.53515625 312.203125 188.03515625 312.203125 205.03515625 312.203125 C205.96363294 298.62678926 205.96363294 298.62678926 203.03515625 292.203125 C201.26296632 290.0184243 201.26296632 290.0184243 199.01034546 289.96261597 C198.17983673 289.96705719 197.349328 289.97149841 196.49365234 289.97607422 C195.55282806 289.97622528 194.61200378 289.97637634 193.64266968 289.97653198 C192.11605209 289.99201584 192.11605209 289.99201584 190.55859375 290.0078125 C189.51820953 290.0106424 188.47782532 290.01347229 187.40591431 290.01638794 C184.07387931 290.02760796 180.74211039 290.05271585 177.41015625 290.078125 C175.15495179 290.08815244 172.89974313 290.0972787 170.64453125 290.10546875 C165.10798171 290.12755322 159.57158798 290.16104861 154.03515625 290.203125 Z " fill="#090808" transform="translate(177.96484375,-0.203125)"/>
<path d="M0 0 C7.24073489 -0.07638722 14.48136492 -0.12874111 21.72241211 -0.16479492 C24.18306359 -0.1798334 26.64368849 -0.20026942 29.10424805 -0.22631836 C32.65159692 -0.26291856 36.19858977 -0.27977635 39.74609375 -0.29296875 C40.8370787 -0.30845261 41.92806366 -0.32393646 43.05210876 -0.33988953 C51.16142533 -0.34165569 59.01306093 0.54048656 65.3125 6.125 C65.92738281 6.64320313 66.54226563 7.16140625 67.17578125 7.6953125 C72.51914628 14.44603064 73.57064831 21.15781447 73.25 29.5625 C73.23195313 30.47580078 73.21390625 31.38910156 73.1953125 32.33007812 C73.14872701 34.55453514 73.08335485 36.77666967 73 39 C73.86871231 38.99333817 73.86871231 38.99333817 74.75497437 38.98654175 C80.82278966 38.94204181 86.89055802 38.91202367 92.95849609 38.89013672 C95.2182809 38.88012481 97.4780529 38.86651128 99.73779297 38.84912109 C102.99970678 38.82466034 106.26144819 38.81346847 109.5234375 38.8046875 C111.02093033 38.78920364 111.02093033 38.78920364 112.54867554 38.77340698 C124.18712036 38.77157606 132.85073138 40.56576261 141.6875 48.375 C148.23273248 55.80472336 151.29533188 61.88355711 151.37109375 72.0390625 C151.38012222 72.80117035 151.3891507 73.5632782 151.39845276 74.34848022 C151.4129036 75.95705271 151.4218291 77.56568328 151.42553711 79.17431641 C151.43736688 81.59772891 151.48654039 84.01853503 151.53710938 86.44140625 C151.64930173 97.29298565 150.16503606 105.75244592 144 115 C143.80705957 117.82173335 143.73021322 120.54574003 143.74462891 123.36767578 C143.74100845 124.22172501 143.737388 125.07577423 143.73365784 125.95570374 C143.72676085 127.8119716 143.72425897 129.66825976 143.72560501 131.52453995 C143.72656988 134.46782373 143.71363063 137.41074188 143.69662476 140.35397339 C143.65035405 148.72293214 143.62576595 157.09185529 143.61914062 165.4609375 C143.61411053 170.58036795 143.58977912 175.69941979 143.55381393 180.81872177 C143.54404537 182.76502071 143.54166784 184.71137195 143.54698563 186.65768814 C143.55409941 189.39085191 143.53668401 192.12289862 143.51416016 194.85595703 C143.52641884 196.0486747 143.52641884 196.0486747 143.53892517 197.26548767 C143.4068492 206.3349255 139.22847271 214.48776999 133 221 C126.95084416 225.62582506 122.00738857 227.14873552 114.41746521 227.15390015 C113.24814071 227.16047353 113.24814071 227.16047353 112.05519348 227.1671797 C109.4344983 227.18056888 106.81383675 227.18674689 104.19311523 227.19287109 C102.3172948 227.20077212 100.44147588 227.20904107 98.56565857 227.21765137 C92.39665174 227.24387675 86.22763811 227.25918196 80.05859375 227.2734375 C77.93433185 227.27879743 75.81006999 227.28417494 73.68580818 227.28956985 C64.84742922 227.3112015 56.00905208 227.32993695 47.17065334 227.34119225 C34.50929663 227.35742218 21.84824726 227.39057366 9.18700641 227.44759309 C0.2824047 227.48632491 -8.62211494 227.50582893 -17.52679867 227.51111281 C-22.84359815 227.5147625 -28.16006986 227.52674293 -33.47677803 227.55921555 C-38.48291198 227.58935213 -43.48852081 227.59558798 -48.49472618 227.58383179 C-50.32725103 227.5836115 -52.15980063 227.59187888 -53.99224091 227.60948563 C-65.08718423 227.71024388 -73.75392697 227.18489221 -82.62109375 219.82421875 C-83.22050781 219.11910156 -83.81992188 218.41398438 -84.4375 217.6875 C-85.05496094 216.99011719 -85.67242187 216.29273438 -86.30859375 215.57421875 C-90.51453666 209.17302619 -91.44395238 203.24980346 -91.41650391 195.78588867 C-91.42508926 194.90196442 -91.43367462 194.01804016 -91.44252014 193.10733032 C-91.46744 190.21079371 -91.47194582 187.31460246 -91.4765625 184.41796875 C-91.49088297 182.39633652 -91.50664185 180.37471401 -91.52377319 178.35310364 C-91.56551314 173.04922408 -91.59058737 167.74540486 -91.61126709 162.44140625 C-91.64716898 153.93473162 -91.70803395 145.42820557 -91.76975632 136.92168617 C-91.78885137 133.95081748 -91.80057515 130.97998869 -91.81118774 128.00907898 C-91.82139654 126.19509799 -91.83175418 124.38111782 -91.84228516 122.56713867 C-91.84332748 121.73957565 -91.84436981 120.91201263 -91.84544373 120.05937195 C-91.86899403 116.78485772 -91.95719252 114.12842245 -93 111 C-93.66 111 -94.32 111 -95 111 C-99.35838778 102.0630033 -99.65274533 93.63805031 -99.57641602 83.91137695 C-99.5625006 81.43760698 -99.59678033 78.967596 -99.63476562 76.49414062 C-99.68615633 66.07819345 -98.43949282 59.00204723 -92.11328125 50.44921875 C-91.51902344 49.86785156 -90.92476562 49.28648437 -90.3125 48.6875 C-89.73113281 48.09324219 -89.14976562 47.49898438 -88.55078125 46.88671875 C-80.16725349 40.68573267 -73.09375241 39.28472975 -62.7734375 39.51171875 C-60.93019394 39.52233086 -60.93019394 39.52233086 -59.04971313 39.53315735 C-55.15750059 39.56095643 -51.26677154 39.62367283 -47.375 39.6875 C-44.72267715 39.71260136 -42.07033156 39.73541128 -39.41796875 39.75585938 C-32.94481359 39.81073588 -26.47251282 39.89421804 -20 40 C-20.01571045 39.33991943 -20.0314209 38.67983887 -20.04760742 37.99975586 C-20.11036688 34.97909273 -20.14911983 31.9585673 -20.1875 28.9375 C-20.21263672 27.89916016 -20.23777344 26.86082031 -20.26367188 25.79101562 C-20.3315742 18.66127109 -19.82159118 13.56209928 -15.2734375 7.8203125 C-10.35429244 3.42749571 -6.6198191 1.89273441 0 2 C0 1.34 0 0.68 0 0 Z M6 17 C6.165 18.03125 6.33 19.0625 6.5 20.125 C7.1421568 26.38602882 7 32.70612621 7 39 C23.5 39 40 39 57 39 C57.92847669 25.42366426 57.92847669 25.42366426 55 19 C53.22781007 16.8152993 53.22781007 16.8152993 50.97518921 16.75949097 C50.14468048 16.76393219 49.31417175 16.76837341 48.45849609 16.77294922 C47.51767181 16.77310028 46.57684753 16.77325134 45.60751343 16.77340698 C44.08089584 16.78889084 44.08089584 16.78889084 42.5234375 16.8046875 C41.48305328 16.8075174 40.44266907 16.81034729 39.37075806 16.81326294 C36.03872306 16.82448296 32.70695414 16.84959085 29.375 16.875 C27.11979554 16.88502744 24.86458688 16.8941537 22.609375 16.90234375 C17.07282546 16.92442822 11.53643173 16.95792361 6 17 Z " fill="#805959" transform="translate(326,273)"/>
<path d="M0 0 C7.24073489 -0.07638722 14.48136492 -0.12874111 21.72241211 -0.16479492 C24.18306359 -0.1798334 26.64368849 -0.20026942 29.10424805 -0.22631836 C32.65159692 -0.26291856 36.19858977 -0.27977635 39.74609375 -0.29296875 C40.8370787 -0.30845261 41.92806366 -0.32393646 43.05210876 -0.33988953 C51.16142533 -0.34165569 59.01306093 0.54048656 65.3125 6.125 C65.92738281 6.64320313 66.54226563 7.16140625 67.17578125 7.6953125 C72.51914628 14.44603064 73.57064831 21.15781447 73.25 29.5625 C73.23195313 30.47580078 73.21390625 31.38910156 73.1953125 32.33007812 C73.14872701 34.55453514 73.08335485 36.77666967 73 39 C73.86871231 38.99333817 73.86871231 38.99333817 74.75497437 38.98654175 C80.82278966 38.94204181 86.89055802 38.91202367 92.95849609 38.89013672 C95.2182809 38.88012481 97.4780529 38.86651128 99.73779297 38.84912109 C102.99970678 38.82466034 106.26144819 38.81346847 109.5234375 38.8046875 C111.02093033 38.78920364 111.02093033 38.78920364 112.54867554 38.77340698 C124.18712036 38.77157606 132.85073138 40.56576261 141.6875 48.375 C148.23273248 55.80472336 151.29533188 61.88355711 151.37109375 72.0390625 C151.38012222 72.80117035 151.3891507 73.5632782 151.39845276 74.34848022 C151.4129036 75.95705271 151.4218291 77.56568328 151.42553711 79.17431641 C151.43736688 81.59772891 151.48654039 84.01853503 151.53710938 86.44140625 C151.64930173 97.29298565 150.16503606 105.75244592 144 115 C143.80705957 117.82173335 143.73021322 120.54574003 143.74462891 123.36767578 C143.74100845 124.22172501 143.737388 125.07577423 143.73365784 125.95570374 C143.72676085 127.8119716 143.72425897 129.66825976 143.72560501 131.52453995 C143.72656988 134.46782373 143.71363063 137.41074188 143.69662476 140.35397339 C143.65035405 148.72293214 143.62576595 157.09185529 143.61914062 165.4609375 C143.61411053 170.58036795 143.58977912 175.69941979 143.55381393 180.81872177 C143.54404537 182.76502071 143.54166784 184.71137195 143.54698563 186.65768814 C143.55409941 189.39085191 143.53668401 192.12289862 143.51416016 194.85595703 C143.52641884 196.0486747 143.52641884 196.0486747 143.53892517 197.26548767 C143.4068492 206.3349255 139.22847271 214.48776999 133 221 C126.95084416 225.62582506 122.00738857 227.14873552 114.41746521 227.15390015 C113.24814071 227.16047353 113.24814071 227.16047353 112.05519348 227.1671797 C109.4344983 227.18056888 106.81383675 227.18674689 104.19311523 227.19287109 C102.3172948 227.20077212 100.44147588 227.20904107 98.56565857 227.21765137 C92.39665174 227.24387675 86.22763811 227.25918196 80.05859375 227.2734375 C77.93433185 227.27879743 75.81006999 227.28417494 73.68580818 227.28956985 C64.84742922 227.3112015 56.00905208 227.32993695 47.17065334 227.34119225 C34.50929663 227.35742218 21.84824726 227.39057366 9.18700641 227.44759309 C0.2824047 227.48632491 -8.62211494 227.50582893 -17.52679867 227.51111281 C-22.84359815 227.5147625 -28.16006986 227.52674293 -33.47677803 227.55921555 C-38.48291198 227.58935213 -43.48852081 227.59558798 -48.49472618 227.58383179 C-50.32725103 227.5836115 -52.15980063 227.59187888 -53.99224091 227.60948563 C-65.08718423 227.71024388 -73.75392697 227.18489221 -82.62109375 219.82421875 C-83.22050781 219.11910156 -83.81992188 218.41398438 -84.4375 217.6875 C-85.05496094 216.99011719 -85.67242187 216.29273438 -86.30859375 215.57421875 C-90.51453666 209.17302619 -91.44395238 203.24980346 -91.41650391 195.78588867 C-91.42508926 194.90196442 -91.43367462 194.01804016 -91.44252014 193.10733032 C-91.46744 190.21079371 -91.47194582 187.31460246 -91.4765625 184.41796875 C-91.49088297 182.39633652 -91.50664185 180.37471401 -91.52377319 178.35310364 C-91.56551314 173.04922408 -91.59058737 167.74540486 -91.61126709 162.44140625 C-91.64716898 153.93473162 -91.70803395 145.42820557 -91.76975632 136.92168617 C-91.78885137 133.95081748 -91.80057515 130.97998869 -91.81118774 128.00907898 C-91.82139654 126.19509799 -91.83175418 124.38111782 -91.84228516 122.56713867 C-91.84332748 121.73957565 -91.84436981 120.91201263 -91.84544373 120.05937195 C-91.86899403 116.78485772 -91.95719252 114.12842245 -93 111 C-93.66 111 -94.32 111 -95 111 C-99.35838778 102.0630033 -99.65274533 93.63805031 -99.57641602 83.91137695 C-99.5625006 81.43760698 -99.59678033 78.967596 -99.63476562 76.49414062 C-99.68615633 66.07819345 -98.43949282 59.00204723 -92.11328125 50.44921875 C-91.51902344 49.86785156 -90.92476562 49.28648437 -90.3125 48.6875 C-89.73113281 48.09324219 -89.14976562 47.49898438 -88.55078125 46.88671875 C-80.16725349 40.68573267 -73.09375241 39.28472975 -62.7734375 39.51171875 C-60.93019394 39.52233086 -60.93019394 39.52233086 -59.04971313 39.53315735 C-55.15750059 39.56095643 -51.26677154 39.62367283 -47.375 39.6875 C-44.72267715 39.71260136 -42.07033156 39.73541128 -39.41796875 39.75585938 C-32.94481359 39.81073588 -26.47251282 39.89421804 -20 40 C-20.01571045 39.33991943 -20.0314209 38.67983887 -20.04760742 37.99975586 C-20.11036688 34.97909273 -20.14911983 31.9585673 -20.1875 28.9375 C-20.21263672 27.89916016 -20.23777344 26.86082031 -20.26367188 25.79101562 C-20.3315742 18.66127109 -19.82159118 13.56209928 -15.2734375 7.8203125 C-10.35429244 3.42749571 -6.6198191 1.89273441 0 2 C0 1.34 0 0.68 0 0 Z M6 17 C6.165 18.03125 6.33 19.0625 6.5 20.125 C7.1421568 26.38602882 7 32.70612621 7 39 C23.5 39 40 39 57 39 C57.92847669 25.42366426 57.92847669 25.42366426 55 19 C53.22781007 16.8152993 53.22781007 16.8152993 50.97518921 16.75949097 C50.14468048 16.76393219 49.31417175 16.76837341 48.45849609 16.77294922 C47.51767181 16.77310028 46.57684753 16.77325134 45.60751343 16.77340698 C44.08089584 16.78889084 44.08089584 16.78889084 42.5234375 16.8046875 C41.48305328 16.8075174 40.44266907 16.81034729 39.37075806 16.81326294 C36.03872306 16.82448296 32.70695414 16.84959085 29.375 16.875 C27.11979554 16.88502744 24.86458688 16.8941537 22.609375 16.90234375 C17.07282546 16.92442822 11.53643173 16.95792361 6 17 Z M-82.33959961 61.78417969 C-84.30909844 65.59865382 -84.53024881 68.17315533 -84.56640625 72.453125 C-84.57260483 73.15338806 -84.57880341 73.85365112 -84.58518982 74.57513428 C-84.59226013 76.05088928 -84.58916275 77.52672452 -84.57641602 79.00244141 C-84.56261744 81.23103316 -84.59656874 83.45536026 -84.63476562 85.68359375 C-84.68727263 95.52580139 -83.27118549 103.03618983 -76.6875 110.6875 C-75.800625 111.450625 -74.91375 112.21375 -74 113 C-73.34386719 113.61101562 -72.68773437 114.22203125 -72.01171875 114.8515625 C-68.12725235 118.84901563 -68.12725235 118.84901563 -63 120 C-62.67 120.99 -62.34 121.98 -62 123 C-60.02 123.33 -58.04 123.66 -56 124 C-56 124.66 -56 125.32 -56 126 C-54.68 126 -53.36 126 -52 126 C-51.690625 125.195625 -51.38125 124.39125 -51.0625 123.5625 C-50 121 -50 121 -49 120 C-46.06634254 119.88646984 -43.15711538 119.83581292 -40.22265625 119.83203125 C-39.34097275 119.82870285 -38.45928925 119.82537445 -37.55088806 119.82194519 C-35.68212406 119.81687217 -33.81335096 119.81453698 -31.94458008 119.81469727 C-29.07813656 119.81251192 -26.2120784 119.79436345 -23.34570312 119.77539062 C-21.53385549 119.77245661 -19.72200602 119.77047187 -17.91015625 119.76953125 C-17.0486647 119.76234573 -16.18717316 119.75516022 -15.29957581 119.74775696 C-9.2288216 119.7711784 -9.2288216 119.7711784 -7 122 C-6.68115234 123.87939453 -6.68115234 123.87939453 -6.5859375 126.1328125 C-6.54726563 126.93847656 -6.50859375 127.74414062 -6.46875 128.57421875 C-6.4378125 129.41597656 -6.406875 130.25773437 -6.375 131.125 C-6.33632813 131.97449219 -6.29765625 132.82398438 -6.2578125 133.69921875 C-6.16343506 135.79911684 -6.08062414 137.89952891 -6 140 C4.78726168 142.08851119 15.5275172 142.36796999 26.48730469 142.57006836 C27.67098633 142.5985083 28.85466797 142.62694824 30.07421875 142.65625 C31.14244873 142.67494141 32.21067871 142.69363281 33.3112793 142.71289062 C36 143 36 143 39 145 C39.56737589 152.14893617 39.56737589 152.14893617 37 156 C34.42138672 156.35644531 34.42138672 156.35644531 31.1796875 156.328125 C29.41625 156.32039063 29.41625 156.32039063 27.6171875 156.3125 C26.38226563 156.291875 25.14734375 156.27125 23.875 156.25 C22.66328125 156.24484375 21.4515625 156.2396875 20.203125 156.234375 C13.1685268 156.17307131 6.41223598 155.85353707 -0.50390625 154.515625 C-3.0175672 154.19128165 -4.58813829 154.15845113 -7 155 C-9.21164583 157.65571644 -10.79346059 160.33861358 -12.39453125 163.3984375 C-14.07187703 166.11647226 -15.04800056 166.93702406 -18 168 C-18 168.66 -18 169.32 -18 170 C-26.45507109 171.47044715 -34.30242985 172.31063929 -42 168 C-44.52144276 165.8987977 -45.9528109 164.07985848 -47.625 161.25 C-48.07875 160.5075 -48.5325 159.765 -49 159 C-49.66 159 -50.32 159 -51 159 C-51.33 153.39 -51.66 147.78 -52 142 C-53.4025 141.484375 -54.805 140.96875 -56.25 140.4375 C-61.68770702 138.28572165 -66.55470242 135.44324954 -71.53125 132.390625 C-73.81818159 130.83640507 -73.81818159 130.83640507 -76 131 C-76.09285732 140.13628668 -76.16384439 149.27240983 -76.20724869 158.4090662 C-76.2280852 162.65203128 -76.25633016 166.89467247 -76.30175781 171.13745117 C-76.34535708 175.23531191 -76.3691667 179.33286195 -76.37950897 183.43093681 C-76.3868752 184.99100062 -76.4012598 186.55104826 -76.42292023 188.11097908 C-76.45214314 190.30360202 -76.45594839 192.49495645 -76.45410156 194.68774414 C-76.46298401 195.93350723 -76.47186646 197.17927032 -76.48101807 198.46278381 C-75.89369926 202.78169348 -75.09564076 205.84486678 -72 209 C-64.05508099 213.60664652 -53.52219135 212.43041436 -44.63598633 212.40405273 C-42.89219223 212.40976322 -41.14840186 212.4167301 -39.40461731 212.42485046 C-34.69409149 212.44271617 -29.98375259 212.44162666 -25.27320313 212.43590808 C-21.33410236 212.43280851 -17.39503709 212.43891679 -13.45594138 212.44494683 C-4.16403801 212.45896704 5.12777334 212.45744995 14.41967773 212.44604492 C23.9969603 212.43454925 33.5739633 212.4486694 43.15120906 212.4754414 C51.38756535 212.49760065 59.62383389 212.50423576 67.86021787 212.49836498 C72.77376943 212.4949968 77.68714155 212.49740212 82.60066795 212.51461601 C87.21783007 212.53008806 91.83457735 212.52612679 96.4517231 212.50731087 C98.14358822 212.50362658 99.83548412 212.5067288 101.52732086 212.51719666 C103.84133751 212.53041906 106.15398295 212.51884998 108.46794128 212.50120544 C109.76113376 212.50099616 111.05432623 212.50078688 112.38670635 212.50057125 C117.88307256 211.73912666 121.56320749 209.5502235 125.375 205.4375 C128.12833377 201.30749935 128.1222516 198.09414126 128.11352539 193.23364258 C128.11374443 192.20886055 128.11374443 192.20886055 128.1139679 191.16337585 C128.11327169 188.90706193 128.10549296 186.65083074 128.09765625 184.39453125 C128.09579103 182.82940211 128.09436762 181.26427239 128.09336853 179.69914246 C128.08955152 175.58096707 128.07972818 171.46282698 128.06866455 167.34466553 C128.05843291 163.14189125 128.05386715 158.93911127 128.04882812 154.73632812 C128.03810519 146.49086922 128.02103854 138.245439 128 130 C124.62056237 131.2841863 121.93221718 132.69845107 119.015625 134.83984375 C117 136 117 136 113.796875 137.06640625 C110.04498604 138.38452583 107.15300745 139.55938754 104 142 C102.68336502 146.03977763 102.44441123 149.09996182 102.37109375 153.34375 C101.93852173 157.60572273 100.51940254 159.60753717 98 163 C98 163.66 98 164.32 98 165 C94.41247258 166.86551426 90.72187807 168.42535928 87 170 C87 170.66 87 171.32 87 172 C78.69272628 171.55714901 71.50538374 171.05788794 65.0625 165.4375 C63 163 63 163 62 161 C61.34 161 60.68 161 60 161 C59.16293741 155.9283855 58.86482595 151.02235861 58.90234375 145.87890625 C58.90446617 144.76176491 58.90446617 144.76176491 58.90663147 143.62205505 C58.91218011 141.26882727 58.92472267 138.9156985 58.9375 136.5625 C58.94252165 134.95638159 58.94708339 133.35026168 58.95117188 131.74414062 C58.96213265 127.82938957 58.97936116 123.91471151 59 120 C62.90627665 118.73590658 66.84513259 118.82044069 70.90625 118.796875 C72.04882263 118.78832489 72.04882263 118.78832489 73.21447754 118.77960205 C74.82151917 118.77017695 76.42857991 118.76362799 78.03564453 118.75976562 C80.49155205 118.75003348 82.94663149 118.71897719 85.40234375 118.6875 C86.96614088 118.68097183 88.52994397 118.67572063 90.09375 118.671875 C90.82613892 118.6595282 91.55852783 118.6471814 92.31311035 118.63446045 C95.48356554 118.64829996 97.66071748 118.8081551 100.44726562 120.38378906 C102.22132804 122.23037605 102.6535838 123.48848258 103 126 C113.19174357 124.67639694 123.98723303 115.86108138 130.5234375 108.21875 C136.23430788 100.69228498 136.34537089 93.25905926 136.31567383 84.05957031 C136.3125082 82.00532206 136.33603289 79.95250884 136.36132812 77.8984375 C136.36229492 75.93777344 136.36229492 75.93777344 136.36328125 73.9375 C136.36626221 72.75027344 136.36924316 71.56304687 136.37231445 70.33984375 C135.88652976 65.98211618 134.46784946 62.60928287 131.5 59.35546875 C126.29071671 55.29928202 122.57210237 54.85126921 116.1627655 54.85282898 C115.35589226 54.84915229 114.54901901 54.8454756 113.71769506 54.8416875 C111.00474279 54.83064431 108.29182881 54.82680576 105.57885742 54.82299805 C103.63743467 54.81673395 101.69601312 54.8100872 99.7545929 54.80308533 C94.47354854 54.78567244 89.19251324 54.77512308 83.91144729 54.7668798 C80.61328394 54.76173095 77.31512341 54.75565521 74.01696205 54.74936867 C63.70131924 54.730317 53.3856836 54.716085 43.07002658 54.7077567 C31.15545605 54.69797906 19.24107105 54.67164562 7.32656592 54.63125581 C-1.87860932 54.60111929 -11.08373129 54.58629022 -20.28895491 54.58297569 C-25.78889453 54.58062268 -31.28863594 54.57162943 -36.78852272 54.54651451 C-41.9620281 54.5232715 -47.13520423 54.51898541 -52.30874825 54.52927589 C-54.20744673 54.52977226 -56.10616122 54.52342228 -58.00481033 54.50971985 C-60.59754115 54.49205525 -63.18908336 54.4990799 -65.78181458 54.51225281 C-66.90814111 54.49579894 -66.90814111 54.49579894 -68.05722171 54.47901267 C-74.56930334 54.55886233 -78.22266181 56.88492489 -82.33959961 61.78417969 Z " fill="#070505" transform="translate(326,273)"/>
<path d="M0 0 C1.84716797 2.12719727 1.84716797 2.12719727 3.6171875 5.00390625 C4.30393555 6.09203613 4.99068359 7.18016602 5.69824219 8.30126953 C6.06719604 8.89707825 6.4361499 9.49288696 6.81628418 10.10675049 C8.94665678 13.5140944 11.17075394 16.86019455 13.3828125 20.21484375 C14.33206274 21.65688031 15.28128116 23.09893782 16.23046875 24.54101562 C16.94468994 25.62443237 16.94468994 25.62443237 17.67333984 26.72973633 C18.64794959 28.21197581 19.61926297 29.69638757 20.58740234 31.18286133 C22.010432 33.3660972 23.44539397 35.54106273 24.8828125 37.71484375 C25.3079715 38.37322739 25.73313049 39.03161102 26.1711731 39.70994568 C29.65158225 44.93309819 33.92753194 49.79518908 40 52 C42.3529935 52.27789787 42.3529935 52.27789787 44.8125 52.1875 C45.62332031 52.18105469 46.43414062 52.17460937 47.26953125 52.16796875 C50.54672932 51.96636715 53.75265646 51.47744546 57 51 C57.22954087 64.64614372 56.59254393 78.22106037 55.88882446 91.84686279 C55.5387216 98.63441098 55.20311502 105.42267616 54.8671875 112.2109375 C54.83199572 112.91944981 54.79680393 113.62796211 54.76054573 114.35794449 C53.36120536 142.56517082 52.20924763 170.78422195 51 199 C29.88 199 8.76 199 -13 199 C-13.02578125 190.57210937 -13.0515625 182.14421875 -13.078125 173.4609375 C-13.10651677 167.4191678 -13.13738915 161.37745035 -13.1718235 155.33571625 C-13.21602163 147.52328958 -13.25450425 139.71097709 -13.27099609 131.8984375 C-13.28407935 125.70955299 -13.31121182 119.52090936 -13.35461307 113.33216059 C-13.37707977 110.06086252 -13.39082244 106.78992039 -13.39188385 103.51853561 C-13.41004694 75.59205705 -18.84223415 60.12764288 -38.69140625 40.2109375 C-40.64394684 38.26107619 -42.60277641 36.31763766 -44.5625 34.375 C-45.58161754 33.36091554 -46.60049899 32.34659375 -47.61914062 31.33203125 C-50.07672412 28.88529165 -52.53744246 26.44173456 -55 24 C-48.95640474 16.39693219 -48.95640474 16.39693219 -44.5 14.75 C-41.98567323 13.78435276 -39.62595353 12.80718168 -37.2265625 11.5703125 C-33.52127144 9.76701104 -29.77272787 8.44288291 -25.875 7.125 C-19.59919462 4.97711988 -13.53233849 2.59582098 -7.515625 -0.21484375 C-4.44211121 -1.17412368 -3.04613412 -1.02194007 0 0 Z " fill="#C7C5C8" transform="translate(102,256)"/>
<path d="M0 0 C3.67370143 0.58622895 6.48275026 1.61324769 9.75 3.375 C17.4893991 7.33601989 24.80019761 9.30390507 33.3984375 10.5703125 C36 11 36 11 39 12 C41.49518997 12.10880455 43.96148293 12.16403617 46.45703125 12.16796875 C47.19644455 12.17129715 47.93585785 12.17462555 48.69767761 12.17805481 C50.26874166 12.18312 51.83981647 12.18546326 53.41088867 12.18530273 C55.7656552 12.18745714 58.11992777 12.20552607 60.47460938 12.22460938 C68.78635198 12.25458316 76.68759563 11.86281581 84.89331055 10.4309082 C88.29559126 9.9590005 91.56945028 9.93178267 95 10 C96.17133058 12.45620851 97.33721722 14.91474917 98.5 17.375 C98.83386719 18.07367188 99.16773438 18.77234375 99.51171875 19.4921875 C102 24.7734375 102 24.7734375 102 27 C106.30931062 29.80554077 111.2035232 29.35473568 116.15625 29.390625 C119.51344225 29.50336653 121.65855016 29.76930525 124.46875 31.66796875 C127.35669191 36.06618641 126.65513166 40.95203817 126 46 C124.5625 49.1875 124.5625 49.1875 122 51 C119.7144397 51.46969313 117.55045597 51.68585845 115.21875 51.76171875 C112.6844167 52.03389187 111.15370528 52.64662779 109 54 C105.15655506 58.92749351 103.34682308 63.79259018 101.625 69.75 C96.97828522 85.60500941 87.38855691 98.63775547 73 107 C57.26052493 115.57870288 41.00389677 118.64150797 23.375 114.5 C5.26926229 109.06255506 -8.39827482 97.09977208 -18 81 C-20.80557376 75.53340196 -22.87045183 70.16606568 -24 64.125 C-24.90246997 59.63704121 -26.52462068 57.10565812 -30 54 C-32.92837311 52.69259567 -35.90770277 51.83059889 -39 51 C-43.74311927 49.3853211 -43.74311927 49.3853211 -46 46 C-46.3359375 43.22265625 -46.3359375 43.22265625 -46.375 40.0625 C-46.40335937 39.02222656 -46.43171875 37.98195312 -46.4609375 36.91015625 C-45.89259397 33.32188567 -44.84658135 32.18650451 -42 30 C-38.91502064 29.39641708 -37.02317568 29.32111566 -34.3515625 31.09375 C-32.85832332 32.34661409 -31.42605982 33.67117153 -30 35 C-27.02536663 36.48731668 -25.32721157 36.4313052 -22 36 C-14.70093038 31.98773252 -7.48560091 24.58630787 -4 17 C-3.65090464 13.50904641 -4.22133013 10.40668068 -5 7 C-4.01 6.67 -3.02 6.34 -2 6 C-1.32843384 4.06381575 -1.32843384 4.06381575 -1 2 C-0.67 1.34 -0.34 0.68 0 0 Z " fill="#EEBD83" transform="translate(142,93)"/>
<path d="M0 0 C0.33 0 0.66 0 1 0 C1.02505615 0.90242432 1.0501123 1.80484863 1.07592773 2.73461914 C1.17154627 6.10988834 1.27074827 9.48501394 1.37231445 12.86010742 C1.41539933 14.3157953 1.45709075 15.77152517 1.49731445 17.22729492 C1.55566411 19.33004361 1.61916516 21.43258606 1.68359375 23.53515625 C1.72025146 24.797229 1.75690918 26.05930176 1.79467773 27.35961914 C1.99857453 30.97472628 2.43443786 34.42749891 3 38 C3.66 38 4.32 38 5 38 C5.556875 38.928125 6.11375 39.85625 6.6875 40.8125 C9.98656354 45.35985785 13.83327198 46.27775733 19 48 C20.89212737 48.22179785 22.78884472 48.40614015 24.6875 48.5625 C25.68136719 48.64628906 26.67523438 48.73007812 27.69921875 48.81640625 C28.83810547 48.90728516 28.83810547 48.90728516 30 49 C30 48.34 30 47.68 30 47 C31.269553 46.35165346 32.54069706 45.70642185 33.8125 45.0625 C34.52019531 44.70285156 35.22789062 44.34320313 35.95703125 43.97265625 C38 43 38 43 41 42 C42.08742694 39.78566059 42.08742694 39.78566059 43 37 C43.515625 35.96875 44.03125 34.9375 44.5625 33.875 C46.10312153 30.57058278 45.89673311 28.16429846 45.6875 24.5625 C45.84375 21.71875 45.84375 21.71875 47 19 C51.11268489 15.69706654 56.19030177 13.88299578 61.02880859 11.90283203 C62.97292586 11.01240032 64.639039 9.9930128 66.39453125 8.77734375 C69 7 69 7 71 7 C71.06960189 16.0232032 71.12286286 25.04631356 71.15543652 34.06972694 C71.17107261 38.2599602 71.19227306 42.45000939 71.22631836 46.64013672 C71.25898553 50.68610817 71.27686848 54.73190288 71.28463173 58.77799606 C71.29016207 60.31932735 71.30096154 61.86064929 71.31719017 63.40190506 C71.33906293 65.56583585 71.34196292 67.72904233 71.34057617 69.89306641 C71.35056892 71.73839462 71.35056892 71.73839462 71.36076355 73.6210022 C70.89238141 78.00798149 69.48572031 81.37112434 66.5 84.64453125 C61.43630361 88.58735734 58.28161976 89.12591662 51.94895935 89.14044189 C51.22657941 89.14341302 50.50419948 89.14638414 49.75992924 89.1494453 C47.33269833 89.15813567 44.90551673 89.15964085 42.47827148 89.16113281 C40.7403808 89.16576091 39.00249114 89.17078556 37.26460266 89.17617798 C32.5369873 89.18930857 27.80938615 89.19574873 23.0817554 89.20018864 C20.12662041 89.20311952 17.17148931 89.20722445 14.21635628 89.21169281 C4.96643925 89.22537216 -4.28346891 89.23503554 -13.53339535 89.2388947 C-24.20272677 89.24337061 -34.87192977 89.26089497 -45.54122216 89.2898953 C-53.7919041 89.31154077 -62.04255001 89.32160058 -70.29326004 89.32293582 C-75.21873054 89.32398219 -80.1440804 89.32985379 -85.06952095 89.34775543 C-89.70785998 89.36428468 -94.34598833 89.36636811 -98.98434639 89.35761642 C-100.68140224 89.35684853 -102.37846964 89.36115596 -104.07549667 89.37107468 C-123.02262302 89.47526732 -123.02262302 89.47526732 -129 86 C-133.02739584 81.89400376 -133.49411005 77.29893455 -133.45410156 71.68774414 C-133.45468567 70.99421844 -133.45526978 70.30069275 -133.45587158 69.58615112 C-133.453109 67.31862403 -133.42210753 65.05245052 -133.390625 62.78515625 C-133.38315602 61.20333067 -133.37746619 59.62149577 -133.37347412 58.03965759 C-133.35826929 53.89498939 -133.31903299 49.75089015 -133.2746582 45.60644531 C-133.23359351 41.36986994 -133.21543931 37.1332018 -133.1953125 32.89648438 C-133.15253279 24.5973964 -133.08434515 16.29876917 -133 8 C-130.02665282 9.17427551 -127.17071662 10.36506476 -124.37109375 11.91015625 C-123.72849609 12.26013672 -123.08589844 12.61011719 -122.42382812 12.97070312 C-121.09495986 13.70112334 -119.76683868 14.43290434 -118.43945312 15.16601562 C-115.24718768 16.9017097 -112.55273143 18.11181714 -109 19 C-108.505 27.415 -108.505 27.415 -108 36 C-107.34 36 -106.68 36 -106 36 C-105.46375 37.0725 -104.9275 38.145 -104.375 39.25 C-101.96015176 43.48026607 -98.83507147 46.10780359 -94.11328125 47.59375 C-87.83235812 48.8011733 -81.25017543 48.08698703 -75 47 C-75 46.34 -75 45.68 -75 45 C-74.23171875 44.57074219 -73.4634375 44.14148438 -72.671875 43.69921875 C-69.53334476 41.70322364 -68.80450196 40.13740696 -67.25 36.8125 C-64.6408182 32.20963569 -64.6408182 32.20963569 -61.8984375 31.3125 C-59.49787955 31.3125 -57.36574311 31.58144545 -55 32 C-47.70770781 33.12381215 -40.49613806 33.21863346 -33.125 33.25 C-31.89007813 33.270625 -30.65515625 33.29125 -29.3828125 33.3125 C-27.619375 33.32023437 -27.619375 33.32023437 -25.8203125 33.328125 C-24.21567139 33.34214355 -24.21567139 33.34214355 -22.57861328 33.35644531 C-21.7276709 33.23881836 -20.87672852 33.12119141 -20 33 C-17.70366176 29.55549263 -17.45983515 27.06187717 -17 23 C-16.505 23.99 -16.505 23.99 -16 25 C-11.05 24.67 -6.1 24.34 -1 24 C-0.67 16.08 -0.34 8.16 0 0 Z " fill="#6C4A51" transform="translate(383,396)"/>
<path d="M0 0 C0.67071533 0.32371582 1.34143066 0.64743164 2.0324707 0.98095703 C14.18832613 7.15774399 22.20697761 19.8852245 26.69140625 32.3828125 C31.36465613 47.59222498 31.42804544 67.5086401 28.5 83.0625 C25.53 83.0625 22.56 83.0625 19.5 83.0625 C19.25765625 82.44503906 19.0153125 81.82757813 18.765625 81.19140625 C17.01747376 76.77396255 15.24308768 72.3682351 13.375 68 C13.06304687 67.26652344 12.75109375 66.53304687 12.4296875 65.77734375 C11.61316424 63.88026471 11.61316424 63.88026471 9.5 63.0625 C7.33116183 63.10039637 5.16343976 63.21744515 3 63.375 C1.8346875 63.45363281 0.669375 63.53226562 -0.53125 63.61328125 C-3.46130658 63.94493136 -6.00590392 64.40542644 -8.84375 65.08203125 C-15.85186638 66.53407359 -22.94841623 66.43454231 -30.07373047 66.43310547 C-32.46786714 66.4374418 -34.86009853 66.47375311 -37.25390625 66.51171875 C-51.261445 66.61580377 -65.83735213 65.06170232 -78.25 58.0625 C-78.88164062 57.7325 -79.51328125 57.4025 -80.1640625 57.0625 C-85.82543621 54.05562932 -91.10048817 51.2078903 -94.8125 45.875 C-95.30363281 45.18019531 -95.79476562 44.48539063 -96.30078125 43.76953125 C-96.89439453 42.92455078 -96.89439453 42.92455078 -97.5 42.0625 C-98.65745487 40.69252255 -98.65745487 40.69252255 -101.8125 40.75 C-105.47331062 40.76159799 -105.47331062 40.76159799 -107.9375 42.6875 C-110.00886738 45.83597842 -110.02632508 47.33323937 -109.5 51.0625 C-107.63154503 53.39806871 -105.9255538 55.25405587 -103.75 57.25 C-103.21117187 57.77013672 -102.67234375 58.29027344 -102.1171875 58.82617188 C-96.18787074 64.55674597 -96.18787074 64.55674597 -88.5 67.0625 C-88.83 67.7225 -89.16 68.3825 -89.5 69.0625 C-90.49 68.7325 -91.48 68.4025 -92.5 68.0625 C-92.933125 69.5165625 -92.933125 69.5165625 -93.375 71 C-94.5 74.0625 -94.5 74.0625 -96.5 75.0625 C-96.40460938 75.76117188 -96.30921875 76.45984375 -96.2109375 77.1796875 C-96.10007813 78.08976562 -95.98921875 78.99984375 -95.875 79.9375 C-95.75898438 80.84242187 -95.64296875 81.74734375 -95.5234375 82.6796875 C-95.51183594 83.85917969 -95.51183594 83.85917969 -95.5 85.0625 C-96.16 85.7225 -96.82 86.3825 -97.5 87.0625 C-97.83 83.4325 -98.16 79.8025 -98.5 76.0625 C-101.79413357 75.87949258 -103.46892704 75.88105942 -106.5 77.0625 C-110.20719451 80.44413352 -113.36002081 84.15682916 -116.5 88.0625 C-124.42230102 86.61584606 -124.42230102 86.61584606 -126.71142578 83.31640625 C-127.57290238 80.9071452 -128.10210765 78.5801493 -128.5625 76.0625 C-128.75384521 75.12639893 -128.94519043 74.19029785 -129.14233398 73.22583008 C-130.81151877 63.79153487 -131.00152967 54.30476108 -131.0625 44.75 C-131.07153351 43.99001709 -131.08056702 43.23003418 -131.08987427 42.44702148 C-131.22092129 25.78988816 -131.22092129 25.78988816 -126.5 19.0625 C-124.31640625 16.94140625 -124.31640625 16.94140625 -122.0625 15.625 C-121.32128906 15.17253906 -120.58007812 14.72007813 -119.81640625 14.25390625 C-116.17367905 12.38032818 -113.22722021 11.13287615 -109.109375 10.734375 C-104.76828513 9.92629334 -102.12267084 7.98605228 -98.75 5.3125 C-71.09130388 -15.53516817 -30.22195567 -14.76381741 0 0 Z " fill="#583E47" transform="translate(234.5,24.9375)"/>
<path d="M0 0 C4.88899779 0.72502172 9.25225919 2.55240995 13.8125 4.375 C16.87387326 5.58620552 19.93643414 6.79435149 23 8 C24.07423218 8.42696167 24.07423218 8.42696167 25.17016602 8.86254883 C28.87230298 10.30161444 32.36128655 11.47747036 36.3125 11.9375 C37.54419922 12.10572266 37.54419922 12.10572266 38.80078125 12.27734375 C41.15159864 12.20754583 41.15159864 12.20754583 42.78125 10.23828125 C44.48228009 7.11427406 44.20155284 4.49358254 44 1 C46.1519437 4.22791555 46.20086443 5.28400809 46 9 C46.57878906 9.10699219 47.15757812 9.21398437 47.75390625 9.32421875 C50.30926949 10.09304978 51.84126646 11.17287178 53.9375 12.8125 C54.97197266 13.61494141 54.97197266 13.61494141 56.02734375 14.43359375 C56.67832031 14.95050781 57.32929688 15.46742188 58 16 C58.99 16.78375 59.98 17.5675 61 18.375 C61.99 19.179375 61.99 19.179375 63 20 C62.43152344 20.07476562 61.86304688 20.14953125 61.27734375 20.2265625 C55.26090769 21.25106413 50.83317207 23.10426469 47 28 C43.63876707 34.22785573 43.46441635 39.94500732 43.3125 46.9375 C43.27833984 48.00291016 43.24417969 49.06832031 43.20898438 50.16601562 C43.12701774 52.77723846 43.05770113 55.38814721 43 58 C42.32063385 58.00142502 41.6412677 58.00285004 40.9413147 58.00431824 C33.83498372 58.02408916 26.72950317 58.07852174 19.62353516 58.15258789 C16.97581088 58.17570577 14.32799546 58.19014891 11.68017578 58.19555664 C7.86173097 58.20489094 4.04470769 58.24598471 0.2265625 58.29296875 C-1.53341568 58.28706978 -1.53341568 58.28706978 -3.32894897 58.28105164 C-12.90368019 58.44891689 -19.9243782 60.88078479 -26.9375 67.5 C-33.05862678 74.1384051 -35.31152853 80.35560261 -35.30078125 89.3359375 C-35.30506638 90.13351471 -35.3093515 90.93109192 -35.31376648 91.75283813 C-35.31949338 93.43547621 -35.32002216 95.11813904 -35.31567383 96.80078125 C-35.31251873 99.35981024 -35.33597556 101.91767664 -35.36132812 104.4765625 C-35.36360196 106.11718605 -35.36430423 107.75781269 -35.36328125 109.3984375 C-35.372491 110.15595306 -35.38170074 110.91346863 -35.39118958 111.69393921 C-35.34651545 116.88733377 -34.16320622 120.29607214 -32 125 C-32 126.32 -32 127.64 -32 129 C-31.34 129 -30.68 129 -30 129 C-27.46476666 132.80285 -27.73304212 135.83191227 -27.77294922 140.23510742 C-27.77265717 141.07435257 -27.77236511 141.91359772 -27.77206421 142.77827454 C-27.77345829 145.55411087 -27.78902317 148.32967927 -27.8046875 151.10546875 C-27.80841735 153.02932081 -27.81126445 154.95317478 -27.81326294 156.87702942 C-27.82090158 161.94218179 -27.84055209 167.00721958 -27.8626709 172.07232666 C-27.88312432 177.2402593 -27.89226358 182.40821044 -27.90234375 187.57617188 C-27.92379774 197.71749828 -27.95793651 207.85873961 -28 218 C-28.33 218 -28.66 218 -29 218 C-29 212.06 -29 206.12 -29 200 C-36.59 200 -44.18 200 -52 200 C-52.64991934 192.85088726 -53.19599881 185.81737851 -53.4296875 178.66015625 C-53.50199333 176.63647023 -53.5744279 174.6127888 -53.64697266 172.58911133 C-53.68397278 171.52802155 -53.7209729 170.46693176 -53.75909424 169.37368774 C-54.32245749 153.27956557 -54.95974419 137.19177055 -55.796875 121.109375 C-55.83107166 120.44874495 -55.86526833 119.78811489 -55.90050125 119.10746574 C-56.26674841 112.03654267 -56.64386354 104.96633476 -57.03466797 97.89672852 C-57.85816436 82.58286536 -58.18130501 67.33548761 -58 52 C-56.11607544 52.02876221 -56.11607544 52.02876221 -54.1940918 52.05810547 C-53.44525726 52.06920349 -52.69642273 52.08030151 -51.92489624 52.09173584 C-50.37017287 52.11621826 -48.81553901 52.14655901 -47.26098633 52.18017578 C-40.4054588 52.23069791 -36.10684099 50.78222009 -31 46 C-29.07115697 43.5158953 -27.38196595 40.89776718 -25.6875 38.25 C-24.64104806 36.64816104 -23.59414767 35.04661499 -22.546875 33.4453125 C-21.70286133 32.1464209 -21.70286133 32.1464209 -20.84179688 30.82128906 C-17.41032355 25.56491238 -13.92012689 20.3475585 -10.4375 15.125 C-9.7468042 14.08504883 -9.0561084 13.04509766 -8.34448242 11.97363281 C-7.69326416 10.99491211 -7.0420459 10.01619141 -6.37109375 9.0078125 C-5.79286865 8.13785645 -5.21464355 7.26790039 -4.61889648 6.37158203 C-3.1358071 4.19894891 -1.59709686 2.08974424 0 0 Z " fill="#C4C2C5" transform="translate(263,255)"/>
<path d="M0 0 C3.93641898 1.60915806 6.6895489 4.3163898 9.68359375 7.2421875 C10.22097672 7.76579865 10.75835968 8.28940979 11.31202698 8.82888794 C12.44698381 9.94060801 13.57899812 11.05533901 14.70825195 12.17285156 C16.41299646 13.85088046 18.14021283 15.50320224 19.86914062 17.15625 C28.70095045 25.77661095 34.61244262 34.6033017 35.08931255 47.39591789 C35.12307667 50.37428074 35.12359832 53.35104892 35.11352539 56.32958984 C35.11367142 57.46188019 35.11381744 58.59417053 35.1139679 59.76077271 C35.1132726 63.49418062 35.1054981 67.22753832 35.09765625 70.9609375 C35.09579071 73.55311048 35.09436745 76.14528382 35.09336853 78.73745728 C35.08994371 84.85714608 35.08206643 90.97681424 35.07201904 97.09649527 C35.06082538 104.06626956 35.05533926 111.03604472 35.05032361 118.00582576 C35.03988291 132.33722838 35.02155046 146.66860988 35 161 C25.1 161 15.2 161 5 161 C3.9335866 141.74243756 2.940832 122.50205219 2.51641846 103.21878052 C2.2719522 92.53985681 1.82138415 81.87863524 1.2734375 71.2109375 C1.17230904 69.24162514 1.17230904 69.24162514 1.06913757 67.23252869 C0.7295302 60.66324405 0.37786513 54.09470583 0.01586914 47.52661133 C-0.60731262 35.97038642 -1.13021106 24.43833208 -1.15234375 12.86328125 C-1.15528946 11.90366989 -1.15823517 10.94405853 -1.16127014 9.95536804 C-1.12894555 3.38683664 -1.12894555 3.38683664 0 0 Z " fill="#D7D5D8" transform="translate(39,294)"/>
<path d="M0 0 C5.28 0 10.56 0 16 0 C17.62911701 25.12640954 19.24787396 50.23140215 19.70874023 75.41088867 C19.8590125 83.83928869 19.8590125 83.83928869 20.48828125 92.2421875 C21.36945149 100.85619142 21.37050413 109.53671479 21.5625 118.1875 C21.60578387 120.01628402 21.64940096 121.84506019 21.69335938 123.67382812 C21.80003116 128.11580238 21.89986531 132.55785454 22 137 C12.76 137 3.52 137 -6 137 C-6.08192346 124.70055823 -5.89919055 112.50814926 -5.20291138 100.23086548 C-4.95621026 95.87201444 -4.72709094 91.51225498 -4.5 87.15234375 C-4.4545253 86.28083176 -4.4090506 85.40931976 -4.36219788 84.51139832 C-3.96899075 76.78029862 -3.75088381 69.05134736 -3.5625 61.3125 C-3.04013319 40.84107877 -1.4628126 20.42157951 0 0 Z " fill="#6D4C53" transform="translate(174,318)"/>
<path d="M0 0 C1.02996094 0.53109375 2.05992187 1.0621875 3.12109375 1.609375 C24.29294189 12.23547335 44.21846783 15.23184066 67 8 C71.65773458 6.37492788 76.04257688 4.4874154 80.4375 2.25 C83 1 83 1 86 1 C88.06649845 13.00537197 88.06649845 13.00537197 84.81933594 17.7109375 C81.53981048 21.1109871 77.71862776 23.83097211 73.89404297 26.58251953 C71.00315294 28.74602913 68.42421372 31.20044317 65.8125 33.6875 C61.18411207 37.97556529 56.41489814 42.00869318 51.47265625 45.9296875 C48.82238559 48.14871349 46.41056437 50.52475143 44 53 C40.55220914 51.49993609 38.17639467 49.49590738 35.4375 46.9375 C31.89831774 43.68892508 28.30439832 40.57531784 24.5625 37.5625 C19.73358268 33.65435081 15.11448361 29.57342133 10.59375 25.3125 C8.11608314 22.99061529 8.11608314 22.99061529 5.53125 21.375 C3.05075421 19.6980451 1.57532884 18.56377046 0 16 C-0.94095612 10.71146523 -0.45963326 5.31770146 0 0 Z " fill="#E1AC77" transform="translate(139,211)"/>
<path d="M0 0 C4.06774448 1.69074954 7.15663142 4.51437242 10.4375 7.375 C11.05149658 7.90520752 11.66549316 8.43541504 12.2980957 8.98168945 C17.05931931 13.11809017 21.68858226 17.3855981 26.29663086 21.69091797 C31.33847796 26.37434725 36.61246786 30.71760266 42 35 C43.66666667 36.33333333 45.33333333 37.66666667 47 39 C45.58161241 42.22584678 43.86824816 44.37805172 41.375 46.85546875 C40.66859375 47.55994141 39.9621875 48.26441406 39.234375 48.99023438 C38.12835938 50.07788086 38.12835938 50.07788086 37 51.1875 C36.26265625 51.92419922 35.5253125 52.66089844 34.765625 53.41992188 C28.38496224 59.74818868 28.38496224 59.74818868 24.25 60.5 C20.11293538 59.86352852 19.09147804 58.54895776 16.63671875 55.30102539 C14.95125357 52.9314685 13.39747937 50.51204928 11.85546875 48.046875 C7.79128395 41.62363438 3.53472333 35.34003096 -0.75 29.0625 C-1.51184785 27.94214507 -2.27356712 26.82170269 -3.03515625 25.70117188 C-7.40434942 19.26967954 -7.40434942 19.26967954 -12 13 C-10.49055027 9.15776433 -8.23156958 7.48004177 -5 5 C-3.31471312 3.35216394 -1.64302953 1.68997323 0 0 Z " fill="#D7D5D8" transform="translate(124,234)"/>
<path d="M0 0 C3.58402695 1.53248049 6.02850134 3.6674601 8.8125 6.375 C10.02873047 7.53128906 10.02873047 7.53128906 11.26953125 8.7109375 C13 11 13 11 12.80444336 12.83227539 C11.81303995 15.50379919 10.45353547 17.60854362 8.859375 19.97265625 C8.20662598 20.94638184 7.55387695 21.92010742 6.88134766 22.92333984 C6.17800293 23.9592627 5.4746582 24.99518555 4.75 26.0625 C4.03505371 27.1242041 3.32010742 28.1859082 2.58349609 29.27978516 C0.39542887 32.52426114 -1.80137754 35.76267 -4 39 C-4.6590332 39.97404785 -5.31806641 40.9480957 -5.99707031 41.95166016 C-7.78604727 44.5952882 -9.57909629 47.23607371 -11.375 49.875 C-11.91543945 50.67043213 -12.45587891 51.46586426 -13.01269531 52.28540039 C-13.51124023 53.01364014 -14.00978516 53.74187988 -14.5234375 54.4921875 C-14.95575684 55.12495605 -15.38807617 55.75772461 -15.83349609 56.40966797 C-17.79126923 59.07876261 -18.70957383 59.93050921 -22.00390625 60.71875 C-27.12905276 60.56992542 -29.99789599 56.7084531 -33.36914062 53.24609375 C-34.21669922 52.33988281 -35.06425781 51.43367188 -35.9375 50.5 C-36.81212891 49.59378906 -37.68675781 48.68757813 -38.58789062 47.75390625 C-40.74186784 45.51753646 -42.87783936 43.26651452 -45 41 C-43.75037201 37.25111602 -42.22103014 36.35380681 -39.125 33.9375 C-34.08051955 29.91369264 -29.29355967 25.69422663 -24.5390625 21.328125 C-16.55181812 14.0044363 -8.23410584 7.04293604 0 0 Z " fill="#D8D6D9" transform="translate(238,234)"/>
<path d="M0 0 C0.95042175 0.00888245 1.90084351 0.01776489 2.88006592 0.0269165 C3.9608844 0.02721863 5.04170288 0.02752075 6.15527344 0.02783203 C7.31581238 0.04847717 8.47635132 0.06912231 9.67205811 0.09039307 C10.86498474 0.09605286 12.05791138 0.10171265 13.2869873 0.10754395 C17.09804367 0.12993881 20.90816077 0.18014378 24.71893311 0.23101807 C27.30225286 0.25107892 29.88558735 0.2693304 32.46893311 0.28570557 C38.80258704 0.32981396 45.13569297 0.39675829 51.46893311 0.48101807 C51.46893311 0.81101807 51.46893311 1.14101807 51.46893311 1.48101807 C36.28893311 1.48101807 21.10893311 1.48101807 5.46893311 1.48101807 C6.12893311 4.12101807 6.78893311 6.76101807 7.46893311 9.48101807 C7.46893311 13.77101807 7.46893311 18.06101807 7.46893311 22.48101807 C31.72393311 22.97601807 31.72393311 22.97601807 56.46893311 23.48101807 C56.46893311 18.53101807 56.46893311 13.58101807 56.46893311 8.48101807 C56.79893311 8.48101807 57.12893311 8.48101807 57.46893311 8.48101807 C57.46893311 13.76101807 57.46893311 19.04101807 57.46893311 24.48101807 C36.34893311 24.48101807 15.22893311 24.48101807 -6.53106689 24.48101807 C-6.53106689 1.24120037 -6.53106689 1.24120037 0 0 Z " fill="#C4C3C5" transform="translate(326.53106689453125,288.51898193359375)"/>
<path d="M0 0 C5.61 0 11.22 0 17 0 C17.10822792 3.06345144 17.18741479 6.1230601 17.25 9.1875 C17.30027344 10.48397461 17.30027344 10.48397461 17.3515625 11.80664062 C17.41597968 16.00986191 17.35839177 18.38450109 15.203125 22.0859375 C13 24 13 24 9.5 24.4375 C4.43609023 23.80451128 4.43609023 23.80451128 2 22 C0.25960851 19.12240764 -0.2430731 17.01511666 -0.1953125 13.671875 C-0.18886719 12.87265625 -0.18242187 12.0734375 -0.17578125 11.25 C-0.15902344 10.425 -0.14226562 9.6 -0.125 8.75 C-0.11597656 7.90953125 -0.10695313 7.0690625 -0.09765625 6.203125 C-0.07415817 4.13529396 -0.03828908 2.06761005 0 0 Z " fill="#BCBABD" transform="translate(398,406)"/>
<path d="M0 0 C5.28 0 10.56 0 16 0 C16.10796306 3.2508878 16.18729295 6.49819179 16.25 9.75 C16.28351563 10.67039062 16.31703125 11.59078125 16.3515625 12.5390625 C16.45005258 19.33487804 16.45005258 19.33487804 14.234375 22.609375 C11.90397303 24.05976504 10.71714866 24.54245545 8 24.5 C7.34 24.5103125 6.68 24.520625 6 24.53125 C2.84687235 23.69370047 1.84403009 22.72524801 0 20 C-0.48952097 16.57031274 -0.37582359 13.20530925 -0.25 9.75 C-0.23195313 8.81414062 -0.21390625 7.87828125 -0.1953125 6.9140625 C-0.14826909 4.60893562 -0.07652778 2.30433646 0 0 Z " fill="#C1C0C2" transform="translate(289,406)"/>
<path d="M0 0 C2.8119299 0.31243666 4.36379375 1.23977315 6.75 2.8125 C10.24889576 7.769269 9.32825081 12.02583526 9 18 C4.38 18 -0.24 18 -5 18 C-5.25 6.375 -5.25 6.375 -3 3 C-2.34 3 -1.68 3 -1 3 C-0.67 2.01 -0.34 1.02 0 0 Z " fill="#553D45" transform="translate(180,285)"/>
<path d="M0 0 C4.95 0 9.9 0 15 0 C15.36892713 8.48532389 15.36892713 8.48532389 13.734375 10.765625 C11.26485527 12.52321111 8.90118042 12.47611328 5.94140625 12.33984375 C4 12 4 12 1.5 10.5 C-0.68405234 6.85991277 -0.28023018 4.20345267 0 0 Z " fill="#D5D3D5" transform="translate(289,418)"/>
<path d="M0 0 C4.95 0 9.9 0 15 0 C15.36934487 8.49493201 15.36934487 8.49493201 13.703125 10.7734375 C10.89551052 12.79543508 8.34284753 12.29323224 5 12 C2.23857335 10.98263229 1.31914629 10.63829259 0 8 C-0.13415472 5.3276379 -0.04318541 2.67749512 0 0 Z " fill="#D6D4D7" transform="translate(399,418)"/>
<path d="M0 0 C2 3 2 3 2 5 C1.38125 5.4125 0.7625 5.825 0.125 6.25 C-2.27775481 7.9006278 -2.27775481 7.9006278 -2.9375 11.0625 C-3.288125 12.031875 -3.63875 13.00125 -4 14 C-6.3125 15.0625 -6.3125 15.0625 -9 16 C-11.77152212 18.52056045 -11.77152212 18.52056045 -14 21 C-14.33 20.34 -14.66 19.68 -15 19 C-16.97536745 19.34786708 -16.97536745 19.34786708 -19 20 C-19.33 20.66 -19.66 21.32 -20 22 C-22.66188274 21.0113007 -24.9518843 20.03251061 -27.3125 18.4375 C-30.91451577 16.5108404 -33.94069498 16.3992759 -38 16 C-38.66 15.67 -39.32 15.34 -40 15 C-39.67 14.01 -39.34 13.02 -39 12 C-36.09704195 10.54852097 -34.22738221 10.62760975 -31 11 C-28.74794848 12.4712695 -26.98303534 14.15217162 -25 16 C-22.02536663 17.48731668 -20.32721157 17.4313052 -17 17 C-9.90154039 13.09800699 -4.43875285 6.65812927 0 0 Z " fill="#DBAC7A" transform="translate(137,112)"/>
<path d="M0 0 C1.258125 -0.04125 2.51625 -0.0825 3.8125 -0.125 C4.52019531 -0.14820313 5.22789063 -0.17140625 5.95703125 -0.1953125 C8 0 8 0 11 2 C11 2.66 11 3.32 11 4 C12.65 4 14.3 4 16 4 C16.12375 5.010625 16.2475 6.02125 16.375 7.0625 C16.98085335 10.87937612 17.87193912 14.31500112 19 18 C19.99 17.67 20.98 17.34 22 17 C23 20 23 20 22.4375 21.9375 C21.8640402 24.64095334 22.7573769 25.58784928 24 28 C24.125 30.75 24.125 30.75 24 33 C24.99 33 25.98 33 27 33 C26.67 34.32 26.34 35.64 26 37 C22.38868993 33.83424117 20.72680583 30.71902225 18.875 26.3125 C18.61275635 25.69181641 18.3505127 25.07113281 18.08032227 24.43164062 C16.66576266 20.98407112 15.5930439 17.66480255 14.9375 14 C14.07792289 9.5533415 12.43582153 7.0703086 9 4 C6.06355976 2.69929493 3.11406697 1.7734284 0 1 C0 0.67 0 0.34 0 0 Z " fill="#C8A074" transform="translate(103,143)"/>
<path d="M0 0 C0.103125 0.639375 0.20625 1.27875 0.3125 1.9375 C0.539375 2.618125 0.76625 3.29875 1 4 C4.1964086 5.06546953 6.65747276 5.07427838 10 5 C10.03867188 5.90492188 10.03867188 5.90492188 10.078125 6.828125 C10.40331983 12.10535339 10.40331983 12.10535339 13.0625 16.5625 C13.701875 17.036875 14.34125 17.51125 15 18 C14.67 18.66 14.34 19.32 14 20 C-1.35025381 8.94923858 -1.35025381 8.94923858 -4 1 C-2.68 0.67 -1.36 0.34 0 0 Z " fill="#D5A775" transform="translate(133,179)"/>
<path d="M0 0 C0.66 0 1.32 0 2 0 C2 23.1 2 46.2 2 70 C1.67 70 1.34 70 1 70 C1 48.22 1 26.44 1 4 C0.34 3.67 -0.32 3.34 -1 3 C-0.67 2.01 -0.34 1.02 0 0 Z " fill="#5F484D" transform="translate(452,403)"/>
<path d="M0 0 C0.99 0 1.98 0 3 0 C3 0.66 3 1.32 3 2 C3.66 2.33 4.32 2.66 5 3 C4.195625 3.12375 3.39125 3.2475 2.5625 3.375 C1.2940625 3.684375 1.2940625 3.684375 0 4 C-0.33 4.66 -0.66 5.32 -1 6 C-0.0925 5.979375 0.815 5.95875 1.75 5.9375 C4.45749983 5.9895673 6.43274201 6.2917909 9 7 C9.99 7 10.98 7 12 7 C12.33 7.66 12.66 8.32 13 9 C8.27020358 10.11164377 5.31112732 9.80910682 0.75 8.1875 C-0.28640625 7.83042969 -1.3228125 7.47335938 -2.390625 7.10546875 C-5 6 -5 6 -7 4 C-5.824375 3.566875 -5.824375 3.566875 -4.625 3.125 C-1.90328368 2.15087746 -1.90328368 2.15087746 0 0 Z " fill="#D0A276" transform="translate(161,198)"/>
<path d="M0 0 C0.66 0.33 1.32 0.66 2 1 C1.79375 1.9075 1.5875 2.815 1.375 3.75 C0.96801402 7.27721185 1.36993612 8.02753057 3 11 C3.125 13.75 3.125 13.75 3 16 C3.99 16 4.98 16 6 16 C5.67 17.32 5.34 18.64 5 20 C0.64647504 15.93671004 -1.14708792 12.81545722 -1.75 6.875 C-1.84796875 6.00617188 -1.9459375 5.13734375 -2.046875 4.2421875 C-2 2 -2 2 0 0 Z " fill="#D7A879" transform="translate(124,160)"/>
<path d="M0 0 C2.08218362 -0.10832169 4.16599129 -0.18573541 6.25 -0.25 C7.99023438 -0.31960937 7.99023438 -0.31960937 9.765625 -0.390625 C13 0 13 0 15.40625 1.625 C17.46652317 4.69521101 17.40930381 6.58601245 17.25 10.25 C17.21390625 11.32765625 17.1778125 12.4053125 17.140625 13.515625 C17.07101562 14.74539062 17.07101562 14.74539062 17 16 C16.34 16 15.68 16 15 16 C15 12.04 15 8.08 15 4 C11.01774657 2.40709863 8.76460539 1.70116843 4.6875 1.375 C3.80449219 1.30023438 2.92148438 1.22546875 2.01171875 1.1484375 C1.34785156 1.09945312 0.68398437 1.05046875 0 1 C0 0.67 0 0.34 0 0 Z " fill="#C4A47C" transform="translate(251,123)"/>
<path d="M0 0 C0.66 0 1.32 0 2 0 C1.39816251 2.02045442 0.72693904 4.02111039 0 6 C-0.99 6.495 -0.99 6.495 -2 7 C-1.90460938 7.69867188 -1.80921875 8.39734375 -1.7109375 9.1171875 C-1.60007813 10.02726562 -1.48921875 10.93734375 -1.375 11.875 C-1.25898438 12.77992187 -1.14296875 13.68484375 -1.0234375 14.6171875 C-1.01570312 15.40351562 -1.00796875 16.18984375 -1 17 C-1.66 17.66 -2.32 18.32 -3 19 C-3.13277344 18.18015625 -3.26554688 17.3603125 -3.40234375 16.515625 C-3.57894531 15.43796875 -3.75554687 14.3603125 -3.9375 13.25 C-4.11152344 12.18265625 -4.28554687 11.1153125 -4.46484375 10.015625 C-4.88704171 7.63652407 -5.37202884 5.33084789 -6 3 C-5.195625 2.690625 -4.39125 2.38125 -3.5625 2.0625 C-1.10919595 1.23664655 -1.10919595 1.23664655 0 0 Z " fill="#563834" transform="translate(140,93)"/>
<path d="M0 0 C0.99 0.33 1.98 0.66 3 1 C2.05147657 3.96157034 1.08952872 6.91860731 0.125 9.875 C-0.14441406 10.71675781 -0.41382813 11.55851563 -0.69140625 12.42578125 C-0.95566406 13.23144531 -1.21992188 14.03710938 -1.4921875 14.8671875 C-1.73308105 15.61081543 -1.97397461 16.35444336 -2.22216797 17.12060547 C-3 19 -3 19 -5 21 C-4.84402344 20.27554688 -4.68804687 19.55109375 -4.52734375 18.8046875 C-3.03018573 11.42049451 -3.03018573 11.42049451 -4 4 C-3.01 4 -2.02 4 -1 4 C-0.67 2.68 -0.34 1.36 0 0 Z " fill="#DFBA89" transform="translate(245,149)"/>
<path d="M0 0 C4.30649943 0.76901776 5.76057998 2.30449088 8.5 5.625 C8.17 6.285 7.84 6.945 7.5 7.625 C6.778125 6.8 6.05625 5.975 5.3125 5.125 C2.78577506 2.46897469 2.78577506 2.46897469 -0.0625 2.0625 C-3.32029155 2.81429805 -4.49356357 3.97363757 -6.5 6.625 C-7.29681318 9.26684541 -7.29681318 9.26684541 -7.5 11.625 C-7.83 11.625 -8.16 11.625 -8.5 11.625 C-8.96233492 7.6489197 -8.80954571 6.05648796 -6.4375 2.75 C-3.5 0.625 -3.5 0.625 0 0 Z " fill="#24161C" transform="translate(132.5,64.375)"/>
<path d="M0 0 C0.33 0.99 0.66 1.98 1 3 C-3.00200378 4.60080151 -6.04556236 3.29279692 -10 2 C-9.67 1.01 -9.34 0.02 -9 -1 C-5.28390294 -2.03224918 -3.21421745 -2.29586961 0 0 Z " fill="#E7AF77" transform="translate(170,202)"/>
<path d="M0 0 C1.32 0 2.64 0 4 0 C4 0.66 4 1.32 4 2 C4.66 2 5.32 2 6 2 C6 1.34 6 0.68 6 0 C6.66 0.33 7.32 0.66 8 1 C8.144375 1.61875 8.28875 2.2375 8.4375 2.875 C9.09717457 5.36710392 10.08288629 6.3329446 12 8 C11.67 8.66 11.34 9.32 11 10 C9.53737408 8.9015258 8.08004497 7.7959964 6.625 6.6875 C5.81289062 6.07261719 5.00078125 5.45773438 4.1640625 4.82421875 C2 3 2 3 0 0 Z " fill="#C3986C" transform="translate(136,189)"/>
<path d="M0 0 C2 3 2 3 2 5 C0.03125 6.7265625 0.03125 6.7265625 -2.5 8.625 C-3.75296875 9.57246094 -3.75296875 9.57246094 -5.03125 10.5390625 C-5.6809375 11.02117187 -6.330625 11.50328125 -7 12 C-7.66 11.67 -8.32 11.34 -9 11 C-8.51789063 10.45730469 -8.03578125 9.91460937 -7.5390625 9.35546875 C-6.90742188 8.64003906 -6.27578125 7.92460938 -5.625 7.1875 C-4.68527344 6.12595703 -4.68527344 6.12595703 -3.7265625 5.04296875 C-1.859401 2.91196181 -1.859401 2.91196181 0 0 Z " fill="#C79E75" transform="translate(137,112)"/>
<path d="M0 0 C0.66 0.66 1.32 1.32 2 2 C-1.33333333 5.33333333 -4.66666667 8.66666667 -8 12 C-8.66 11.34 -9.32 10.68 -10 10 C-6.7 6.7 -3.4 3.4 0 0 Z " fill="#4B4B4B" transform="translate(117,219)"/>
<path d="M0 0 C0 0.33 0 0.66 0 1 C-0.845625 1.226875 -1.69125 1.45375 -2.5625 1.6875 C-6.67404851 3.25736398 -9.50393484 5.34299048 -13 8 C-13.66 7.67 -14.32 7.34 -15 7 C-10.38829531 0.74125792 -7.77570938 -0.29906575 0 0 Z " fill="#362719" transform="translate(262,144)"/>
<path d="M0 0 C1.134375 0.020625 2.26875 0.04125 3.4375 0.0625 C3.7675 1.3825 4.0975 2.7025 4.4375 4.0625 C3.4475 4.7225 2.4575 5.3825 1.4375 6.0625 C1.4375 5.0725 1.4375 4.0825 1.4375 3.0625 C0.4475 3.3925 -0.5425 3.7225 -1.5625 4.0625 C-2.5525 3.0725 -3.5425 2.0825 -4.5625 1.0625 C-3.5625 0.0625 -3.5625 0.0625 0 0 Z " fill="#BCBABD" transform="translate(327.5625,288.9375)"/>
<path d="M0 0 C6.44082605 1.45830024 6.44082605 1.45830024 9 3.9375 C10 6 10 6 9 9 C7.49704815 7.69088122 5.99770689 6.37761608 4.5 5.0625 C3.6646875 4.33160156 2.829375 3.60070312 1.96875 2.84765625 C1.3190625 2.23792969 0.669375 1.62820312 0 1 C0 0.67 0 0.34 0 0 Z " fill="#C49C72" transform="translate(148,234)"/>
<path d="M0 0 C0.66 0.33 1.32 0.66 2 1 C0.38113585 2.67262717 -1.2452729 4.33795537 -2.875 6 C-3.77992187 6.928125 -4.68484375 7.85625 -5.6171875 8.8125 C-8 11 -8 11 -10 11 C-8.55218207 7.55571735 -6.72305391 5.63869038 -3.875 3.25 C-3.15054688 2.63640625 -2.42609375 2.0228125 -1.6796875 1.390625 C-0.84824219 0.70226562 -0.84824219 0.70226562 0 0 Z " fill="#585859" transform="translate(105,27)"/>
<path d="M0 0 C-1.04874998 2.62187494 -1.64931313 3.79371361 -4.125 5.25 C-4.74375 5.4975 -5.3625 5.745 -6 6 C-6.66 4.68 -7.32 3.36 -8 2 C-5.09399739 0.74335022 -3.20395416 0 0 0 Z " fill="#CA9D72" transform="translate(187,258)"/>
<path d="M0 0 C0.66 0.33 1.32 0.66 2 1 C1.03644647 11.55808656 1.03644647 11.55808656 0 16 C-0.33 16 -0.66 16 -1 16 C-1.09688221 10.55306686 -1.12862175 5.36095333 0 0 Z " fill="#5B4247" transform="translate(170,405)"/>
<path d="M0 0 C1.65 0.33 3.3 0.66 5 1 C4.01 1.495 4.01 1.495 3 2 C3.33 2.99 3.66 3.98 4 5 C2.35 5.66 0.7 6.32 -1 7 C-1.625 5.1875 -1.625 5.1875 -2 3 C-1.34 2.01 -0.68 1.02 0 0 Z " fill="#D8B185" transform="translate(142,93)"/>
<path d="M0 0 C2.96175123 0.61277612 4.38058783 1.25372522 7 3 C6.67 3.99 6.34 4.98 6 6 C3.69 5.34 1.38 4.68 -1 4 C-0.67 2.68 -0.34 1.36 0 0 Z " fill="#C8C8CA" transform="translate(164,270)"/>
<path d="M0 0 C0.66 0.99 1.32 1.98 2 3 C0.75443908 3.81928886 -0.49666635 4.63015186 -1.75 5.4375 C-2.44609375 5.88996094 -3.1421875 6.34242188 -3.859375 6.80859375 C-5.92957014 7.9608009 -7.68696324 8.54676982 -10 9 C-10 8.34 -10 7.68 -10 7 C-3.375 3 -3.375 3 0 3 C0 2.01 0 1.02 0 0 Z " fill="#DDB78A" transform="translate(217,194)"/>
<path d="M0 0 C0.33 0 0.66 0 1 0 C1.06058594 0.68707031 1.12117188 1.37414062 1.18359375 2.08203125 C1.26738281 2.98308594 1.35117188 3.88414062 1.4375 4.8125 C1.51871094 5.70582031 1.59992188 6.59914062 1.68359375 7.51953125 C1.93489767 10.12743559 1.93489767 10.12743559 3 13 C3.66 13 4.32 13 5 13 C5 13.99 5 14.98 5 16 C1.125 14.25 1.125 14.25 0 12 C-0.07065617 9.95944995 -0.08421976 7.91665743 -0.0625 5.875 C-0.05347656 4.77929688 -0.04445313 3.68359375 -0.03515625 2.5546875 C-0.02355469 1.71164063 -0.01195313 0.86859375 0 0 Z " fill="#CDA379" transform="translate(96,127)"/>
<path d="M0 0 C-1.55603771 3.81936528 -3.95604931 6.26044438 -7 9 C-7.66 9 -8.32 9 -9 9 C-7.45665977 5.21180126 -4.44676575 0 0 0 Z " fill="#4E4E4E" transform="translate(44,262)"/>
<path d="M0 0 C-0.33 2.31 -0.66 4.62 -1 7 C-2.98 6.34 -4.96 5.68 -7 5 C-2.25 0 -2.25 0 0 0 Z " fill="#E4AF7C" transform="translate(143,184)"/>
<path d="M0 0 C0.66 0.33 1.32 0.66 2 1 C0.71451591 2.33929505 -0.57858155 3.67128643 -1.875 5 C-2.59429687 5.7425 -3.31359375 6.485 -4.0546875 7.25 C-6 9 -6 9 -8 9 C-6.4169423 4.7257442 -3.49431596 2.73468206 0 0 Z " fill="#303031" transform="translate(317,276)"/>
<path d="M0 0 C4.75 1.875 4.75 1.875 7 3 C7.33 2.34 7.66 1.68 8 1 C8.33 1.99 8.66 2.98 9 4 C8.67 4.66 8.34 5.32 8 6 C8.66 6 9.32 6 10 6 C9.67 6.66 9.34 7.32 9 8 C7.49712782 6.85793642 5.99776716 5.71125043 4.5 4.5625 C3.6646875 3.92441406 2.829375 3.28632813 1.96875 2.62890625 C1.3190625 2.09136719 0.669375 1.55382812 0 1 C0 0.67 0 0.34 0 0 Z " fill="#CAA076" transform="translate(166,250)"/>
<path d="M0 0 C0.58265625 0.22558594 1.1653125 0.45117188 1.765625 0.68359375 C-4.59801136 5.68359375 -4.59801136 5.68359375 -9.234375 5.68359375 C-8.16544282 4.64769037 -7.07859012 3.63025433 -5.984375 2.62109375 C-5.38109375 2.05261719 -4.7778125 1.48414063 -4.15625 0.8984375 C-2.234375 -0.31640625 -2.234375 -0.31640625 0 0 Z " fill="#A5A4A6" transform="translate(58.234375,271.31640625)"/>
<path d="M0 0 C0.66 0.33 1.32 0.66 2 1 C-1.33333333 4.33333333 -4.66666667 7.66666667 -8 11 C-8 7 -8 7 -6.25 5.078125 C-5.5075 4.47484375 -4.765 3.8715625 -4 3.25 C-3.2575 2.63640625 -2.515 2.0228125 -1.75 1.390625 C-1.1725 0.93171875 -0.595 0.4728125 0 0 Z " fill="#ACAAAC" transform="translate(202,265)"/>
<path d="M0 0 C2.76223278 2.76223278 2.57856291 5.20706617 3 9 C1.02 7.35 -0.96 5.7 -3 4 C-2.01 3.67 -1.02 3.34 0 3 C0 2.01 0 1.02 0 0 Z " fill="#D6A87C" transform="translate(163,241)"/>
<path d="M0 0 C0.33 1.32 0.66 2.64 1 4 C-2.465 5.485 -2.465 5.485 -6 7 C-5.8125 5.1875 -5.8125 5.1875 -5 3 C-2.4375 1.25 -2.4375 1.25 0 0 Z " fill="#E5AD77" transform="translate(133,121)"/>
<path d="M0 0 C-1.25 1.5625 -1.25 1.5625 -3 3 C-4.875 2.625 -4.875 2.625 -7 2 C-9.68149993 2.38567131 -9.68149993 2.38567131 -12 3 C-11 1 -11 1 -7.6875 -0.1875 C-4.42437937 -0.90649268 -3.00717118 -1.20286847 0 0 Z " fill="#A4A2A5" transform="translate(76,266)"/>
<path d="M0 0 C0.99 0.33 1.98 0.66 3 1 C1.19761121 2.80238879 -0.54887809 4.16402532 -2.625 5.625 C-3.25664062 6.07101563 -3.88828125 6.51703125 -4.5390625 6.9765625 C-5.02117187 7.31429687 -5.50328125 7.65203125 -6 8 C-6.66 7.67 -7.32 7.34 -8 7 C-6.74057614 5.80040625 -5.46704714 4.61560557 -4.1875 3.4375 C-3.12595703 2.44556641 -3.12595703 2.44556641 -2.04296875 1.43359375 C-1.36878906 0.96050781 -0.69460937 0.48742187 0 0 Z " fill="#B7B6B7" transform="translate(238,234)"/>
<path d="M0 0 C0 0.99 0 1.98 0 3 C-0.928125 2.979375 -1.85625 2.95875 -2.8125 2.9375 C-6.02286011 2.84230396 -6.02286011 2.84230396 -9 4 C-8.67 3.01 -8.34 2.02 -8 1 C-5.29120665 -0.35439668 -2.99066732 -0.06501451 0 0 Z " fill="#BE9B75" transform="translate(106,123)"/>
<path d="M0 0 C4.875 1.75 4.875 1.75 6 4 C4.35 4.33 2.7 4.66 1 5 C0.67 3.35 0.34 1.7 0 0 Z " fill="#D1CDD1" transform="translate(160,266)"/>
<path d="M0 0 C0.66 0 1.32 0 2 0 C2.625 2.375 2.625 2.375 3 5 C2.34 5.66 1.68 6.32 1 7 C0.01 5.68 -0.98 4.36 -2 3 C-1.34 3 -0.68 3 0 3 C0 2.01 0 1.02 0 0 Z " fill="#CD9D6E" transform="translate(142,224)"/>
<path d="M0 0 C2.64 0.99 5.28 1.98 8 3 C8 3.66 8 4.32 8 5 C6.02 5 4.04 5 2 5 C2 4.34 2 3.68 2 3 C1.34 2.67 0.68 2.34 0 2 C0 1.34 0 0.68 0 0 Z " fill="#E2BC8C" transform="translate(149,96)"/>
<path d="M0 0 C0 0.66 0 1.32 0 2 C-6.28571429 4.42857143 -6.28571429 4.42857143 -10 3 C-3.375 0 -3.375 0 0 0 Z " fill="#A8A8A8" transform="translate(95,257)"/>
<path d="M0 0 C0 3 0 3 -2.5 5.6875 C-3.325 6.450625 -4.15 7.21375 -5 8 C-5 6.68 -5 5.36 -5 4 C-2.5 1.75 -2.5 1.75 0 0 Z " fill="#A8A8A9" transform="translate(118,240)"/>
<path d="M0 0 C1.32 0.66 2.64 1.32 4 2 C0.86501708 3.85776765 -1.37471432 4.20140476 -5 4 C-3.35 2.68 -1.7 1.36 0 0 Z " fill="#D9B786" transform="translate(200,203)"/>
<path d="M0 0 C0.33 0 0.66 0 1 0 C1.36923077 6.52307692 1.36923077 6.52307692 -0.5 8.9375 C-0.995 9.288125 -1.49 9.63875 -2 10 C-1.125 2.25 -1.125 2.25 0 0 Z " fill="#302011" transform="translate(246,153)"/>
</svg>
