<?xml version="1.0" encoding="UTF-8"?>
<svg version="1.1" xmlns="http://www.w3.org/2000/svg" width="500" height="500">
<path d="M0 0 C1.05415195 -0.00623996 2.10830389 -0.01247993 3.19439983 -0.01890898 C6.73830502 -0.03490561 10.28152876 -0.02220816 13.82543945 -0.00964355 C16.36138308 -0.01506168 18.89732357 -0.02218259 21.43325806 -0.03088379 C27.61309931 -0.04725759 33.79268685 -0.0448227 39.97253156 -0.03323323 C44.99434838 -0.02420484 50.01611074 -0.02297231 55.03793335 -0.02732849 C55.7522797 -0.02794142 56.46662605 -0.02855436 57.20261925 -0.02918586 C58.65373621 -0.03046474 60.10485315 -0.0317616 61.55597007 -0.03307623 C75.16763086 -0.04448627 88.77918394 -0.0313617 102.39082706 -0.00987476 C114.07383774 0.00799664 125.75668945 0.00489265 137.43969727 -0.0135498 C151.00217336 -0.03494906 164.56455502 -0.0433876 178.12704563 -0.03110075 C179.57286643 -0.02982653 181.01868723 -0.02856905 182.46450806 -0.02732849 C183.17590571 -0.02671139 183.88730336 -0.02609429 184.62025851 -0.02545848 C189.63686651 -0.02200274 194.65341469 -0.02783874 199.67001343 -0.0372467 C206.42025968 -0.04962745 213.17015877 -0.04083081 219.92039108 -0.01766968 C222.40204747 -0.01236754 224.88372907 -0.01392189 227.36537552 -0.02272034 C230.74474289 -0.03359952 234.12313661 -0.02000351 237.50244141 0 C238.49192622 -0.00892289 239.48141104 -0.01784577 240.50088024 -0.02703905 C247.0860532 0.04892738 247.0860532 0.04892738 250.36338806 2.31049347 C252.44259148 5.60262461 252.2461621 8.79076856 252.1418457 12.55480957 C252.13618591 13.32601135 252.13052612 14.09721313 252.12469482 14.89178467 C252.1023566 17.34780736 252.05216833 19.80235512 252.0012207 22.25793457 C251.98115225 23.9258822 251.96290207 25.59385278 251.9465332 27.26184082 C251.90250063 31.34443781 251.83349353 35.42593638 251.7512207 39.50793457 C252.54294678 39.48175049 253.33467285 39.45556641 254.15039062 39.42858887 C257.74629788 39.32449335 261.34188801 39.25956557 264.9387207 39.19543457 C266.80753906 39.13259277 266.80753906 39.13259277 268.71411133 39.06848145 C269.91616211 39.05236816 271.11821289 39.03625488 272.35668945 39.01965332 C274.01414185 38.9803772 274.01414185 38.9803772 275.70507812 38.94030762 C280.01906597 39.7441885 281.16014407 40.94173732 283.7512207 44.50793457 C284.50037421 48.58768813 284.40356332 52.62654363 284.35249329 56.76411438 C284.35676541 58.02203708 284.36103753 59.27995978 284.36543912 60.57600135 C284.37661882 64.06527615 284.35662152 67.55378351 284.33154881 71.04296052 C284.30996144 74.80637031 284.317263 78.56973664 284.32106018 82.33319092 C284.32368227 88.85280936 284.30799158 95.37217765 284.27987099 101.89173317 C284.23923995 111.31787807 284.22621419 120.74390199 284.21993103 130.17012497 C284.20898721 145.46337943 284.17571067 160.75650056 284.12841797 176.04968262 C284.08252463 190.90579562 284.04713162 205.76187242 284.02587891 220.61804199 C284.02456529 221.53373602 284.02325167 222.44943004 284.02189825 223.39287237 C284.01537307 227.98662885 284.00905453 232.58038558 284.00283873 237.17414248 C283.95100301 275.28549986 283.86293536 313.39670842 283.7512207 351.50793457 C284.99063919 351.70695877 284.99063919 351.70695877 286.25509644 351.91000366 C287.87908859 352.17480026 287.87908859 352.17480026 289.53588867 352.44494629 C290.60966766 352.61887909 291.68344666 352.79281189 292.7897644 352.97201538 C304.87399755 355.15883557 314.55807485 361.93702476 321.6887207 371.75793457 C325.28440528 376.52076676 328.39729553 377.86648925 334.0168457 379.53527832 C338.6996188 381.20100761 342.08837041 384.22887558 345.7512207 387.50793457 C346.4524707 388.10477051 347.1537207 388.70160645 347.8762207 389.31652832 C355.38772114 396.15939141 360.98166998 406.26490101 361.93823242 416.5111084 C362.0185628 418.63936453 362.02757056 420.75338669 362.0012207 422.88293457 C361.99880371 423.62881836 361.99638672 424.37470215 361.99389648 425.14318848 C361.9364004 429.20064325 361.62759875 432.92944201 360.6262207 436.88293457 C360.3374707 438.07918457 360.0487207 439.27543457 359.7512207 440.50793457 C360.4112207 441.49793457 361.0712207 442.48793457 361.7512207 443.50793457 C361.98350225 446.35046841 362.10324407 449.09260698 362.12231445 451.93762207 C362.13134293 452.76496857 362.1403714 453.59231506 362.14967346 454.44473267 C362.16417685 456.19476706 362.17306293 457.9448557 362.17675781 459.69494629 C362.18864808 462.36661627 362.2378235 465.0359713 362.28833008 467.70715332 C362.29779538 469.40896498 362.30502991 471.11079081 362.30981445 472.81262207 C362.32934677 473.60860809 362.34887909 474.40459412 362.3690033 475.22470093 C362.36292557 475.97542877 362.35684784 476.72615662 362.35058594 477.49963379 C362.35565659 478.15454803 362.36072723 478.80946228 362.36595154 479.48422241 C361.34842021 482.83396574 359.43631781 484.32196657 356.7512207 486.50793457 C353.87315632 486.99979038 351.58849493 487.1820259 348.71607971 487.13714027 C347.50417404 487.14804108 347.50417404 487.14804108 346.26778543 487.1591621 C343.54898477 487.17747142 340.83158433 487.16002972 338.11279297 487.14285278 C336.14862882 487.14861163 334.18447006 487.15655115 332.22032261 487.16648901 C326.81397739 487.18741793 321.40807181 487.1770196 316.00172472 487.16155791 C310.17477425 487.15027308 304.34790087 487.16769286 298.52096558 487.18145752 C287.10247343 487.2037251 275.68414535 487.19887302 264.2656467 487.18439431 C254.98804802 487.17311593 245.71049541 487.17156511 236.43289185 487.1770134 C234.45446552 487.17816264 234.45446552 487.17816264 232.43607098 487.17933511 C230.42854383 487.18052478 228.4210167 487.18173083 226.41348958 487.18296957 C201.31882893 487.19826963 176.22425786 487.18438926 151.12961103 487.15748508 C128.82732616 487.13375646 106.52518402 487.13587957 84.22290039 487.15979004 C59.17457736 487.1865547 34.1263335 487.19718463 9.07799816 487.18172872 C6.40851531 487.1801251 3.73903244 487.17856407 1.06954956 487.1770134 C-0.24398843 487.17624202 -1.55752642 487.17547064 -2.91086859 487.17467589 C-12.18049719 487.17035341 -21.45007526 487.17765724 -30.71969604 487.18941116 C-42.01174832 487.20341439 -53.30362674 487.19968201 -64.59565902 487.17300744 C-70.36031907 487.15984004 -76.12468897 487.15476678 -81.88934708 487.1712532 C-87.16208466 487.18610505 -92.43426196 487.17804326 -97.7069484 487.15136544 C-99.61871348 487.14576023 -101.53052548 487.14866631 -103.44226062 487.16074438 C-106.03340082 487.17586453 -108.62260087 487.16044605 -111.21363831 487.13714027 C-111.96274243 487.1488461 -112.71184655 487.16055194 -113.4836508 487.17261249 C-117.44356567 487.10100867 -119.09916346 486.62978098 -122.21255493 484.09425008 C-124.2097653 481.55748829 -124.87262789 480.6644642 -124.84814453 477.53137207 C-124.85422226 476.78709961 -124.86029999 476.04282715 -124.86656189 475.27600098 C-124.84702957 474.48628906 -124.82749725 473.69657715 -124.80737305 472.88293457 C-124.80504166 472.05841797 -124.80271027 471.23390137 -124.80030823 470.38439941 C-124.79059179 468.64617524 -124.76885293 466.90798175 -124.73583984 465.17004395 C-124.68644005 462.51656953 -124.67435717 459.86495237 -124.66870117 457.21105957 C-124.65461313 455.51833161 -124.63840798 453.82561968 -124.61987305 452.13293457 C-124.61182899 450.9483667 -124.61182899 450.9483667 -124.60362244 449.73986816 C-124.51282626 445.51297014 -123.89504181 442.37097246 -122.2487793 438.50793457 C-122.8549909 436.1581694 -123.52927542 433.82552018 -124.2487793 431.50793457 C-125.45723519 417.18913742 -123.39747812 405.03910705 -114.2487793 393.50793457 C-111.8112793 390.82043457 -111.8112793 390.82043457 -109.2487793 388.50793457 C-108.49854492 387.7867041 -108.49854492 387.7867041 -107.7331543 387.05090332 C-102.48162502 382.20428167 -96.40708258 378.9168949 -89.64331055 376.62512207 C-86.784116 375.29114223 -85.81853512 373.97590331 -84.0612793 371.38293457 C-75.96320124 360.52732132 -65.30525233 354.59473897 -52.03344727 352.44494629 C-50.95078583 352.26841522 -49.86812439 352.09188416 -48.75265503 351.91000366 C-47.92637604 351.77732086 -47.10009705 351.64463806 -46.2487793 351.50793457 C-46.2506779 350.86023049 -46.2525765 350.2125264 -46.25453264 349.54519492 C-46.36637281 311.17460101 -46.45218664 272.80402809 -46.50410594 234.43330424 C-46.51035963 229.82821655 -46.51683123 225.22312919 -46.5234375 220.61804199 C-46.52474905 219.70123481 -46.5260606 218.78442763 -46.5274119 217.83983841 C-46.54918073 202.98632041 -46.58861038 188.13289897 -46.63454328 173.27943829 C-46.68126684 158.04346298 -46.709066 142.8075383 -46.71922177 127.57149428 C-46.72608946 118.16661608 -46.74779623 108.76201077 -46.78836163 99.35721656 C-46.81474941 92.91188576 -46.82278932 86.46669647 -46.81628618 80.02131555 C-46.81307706 76.30009418 -46.81806714 72.57935033 -46.84480667 68.85821342 C-46.8735667 64.82653271 -46.86374444 60.79587396 -46.85005188 56.76411438 C-46.86461609 55.58415746 -46.87918029 54.40420054 -46.89418584 53.18848735 C-46.82139144 45.29604242 -46.82139144 45.29604242 -43.90158367 41.27740002 C-40.62747187 39.09351199 -38.76853702 38.92689766 -34.85424805 39.01965332 C-33.65219727 39.0357666 -32.45014648 39.05187988 -31.21166992 39.06848145 C-29.34285156 39.13132324 -29.34285156 39.13132324 -27.4362793 39.19543457 C-26.17106445 39.21799316 -24.90584961 39.24055176 -23.60229492 39.26379395 C-20.48325311 39.32264379 -17.36662027 39.40482087 -14.2487793 39.50793457 C-14.2802002 37.94897461 -14.2802002 37.94897461 -14.31225586 36.35852051 C-14.38473604 32.49717015 -14.43060761 28.63587974 -14.46850586 24.77404785 C-14.48860322 23.10369755 -14.51588613 21.43341744 -14.55053711 19.76330566 C-14.59914049 17.36029737 -14.62176585 14.95822023 -14.6394043 12.55480957 C-14.66004944 11.80987244 -14.68069458 11.0649353 -14.70196533 10.29742432 C-14.70331008 7.17986176 -14.54346708 4.97453192 -12.86094666 2.31049347 C-8.7840714 -0.50280551 -4.84288762 -0.04367175 0 0 Z " fill="#0A0B0B" transform="translate(131.248779296875,6.4920654296875)"/>
<path d="M0 0 C97.68 0 195.36 0 296 0 C296.48397619 74.75191486 296.48397619 74.75191486 296.5859375 105.94335938 C296.60943218 113.08292977 296.63367802 120.22249702 296.65917969 127.36206055 C296.66234467 128.25689587 296.66550966 129.15173118 296.66877055 130.07368273 C296.72097122 144.52267509 296.81558068 158.97109473 296.92583355 173.41974742 C297.03802951 188.2466382 297.10470024 203.07322907 297.12906194 217.90052694 C297.14553304 227.05109715 297.19755931 236.20004941 297.2949976 245.35012155 C297.35840334 251.62368028 297.3776083 257.896402 297.36201653 264.17025793 C297.35432416 267.79138628 297.36615138 271.40968746 297.4304657 275.03031349 C297.49970575 278.95692925 297.47587145 282.87986244 297.4430542 286.80702209 C297.4780083 287.95002575 297.51296239 289.0930294 297.54897571 290.27066952 C297.47399491 293.58300203 297.2954285 295.9449857 296 299 C293.16188697 301.34866544 290.39655327 302.89556925 287.06254888 304.45185274 C281.16465825 307.43329192 276.4969398 312.43197396 273.1875 318.109375 C270.43172133 321.75093967 268.31829944 322.3335332 264 323.6875 C252.60288151 327.73513981 244.36288368 335.40369496 239.11328125 346.3984375 C238.74589844 347.25695312 238.37851562 348.11546875 238 349 C237.66355469 349.71414063 237.32710937 350.42828125 236.98046875 351.1640625 C233.08110036 360.67211144 234.60394398 372.05310085 236 382 C230.06 382 224.12 382 218 382 C217.99191315 380.3883194 217.98382629 378.77663879 217.97549438 377.11611938 C217.89815262 361.95903752 217.81056308 346.80205155 217.71247292 331.6450901 C217.66230339 323.85195513 217.61586109 316.05883091 217.578125 308.265625 C217.54523341 301.47483501 217.5054181 294.68412739 217.45720994 287.89342821 C217.43191659 284.29620033 217.41014385 280.69902729 217.39665604 277.10173416 C217.38148724 273.09065111 217.35086414 269.07983159 217.31884766 265.06884766 C217.31668747 263.86979294 217.31452728 262.67073822 217.31230164 261.43534851 C217.30113815 260.34717331 217.28997467 259.25899811 217.2784729 258.1378479 C217.27294214 257.18840113 217.26741138 256.23895435 217.26171303 255.26073647 C217.21399981 252.7999325 217.21399981 252.7999325 215 251 C212.56392841 250.69533454 212.56392841 250.69533454 209.68579102 250.74603271 C208.55843536 250.74039307 207.43107971 250.73475342 206.26956177 250.72894287 C205.02689545 250.73299133 203.78422913 250.73703979 202.50390625 250.74121094 C201.19984833 250.7377063 199.89579041 250.73420166 198.55221558 250.73059082 C194.96963175 250.72145356 191.38716278 250.72501652 187.80457687 250.73134899 C184.06055129 250.7364021 180.31653573 250.73171946 176.57250977 250.72857666 C170.28432443 250.724935 163.99618603 250.72974134 157.70800781 250.73925781 C150.43141068 250.75014277 143.1549256 250.74661733 135.87833118 250.735605 C129.63796178 250.72653781 123.39762617 250.72524405 117.15725231 250.73048234 C113.4270106 250.73360518 109.69682161 250.73400282 105.96658325 250.72740936 C101.80968557 250.72057539 97.65298199 250.73003935 93.49609375 250.74121094 C91.63209427 250.73513824 91.63209427 250.73513824 89.73043823 250.72894287 C88.60308258 250.73458252 87.47572693 250.74022217 86.31420898 250.74603271 C85.33048813 250.74678677 84.34676727 250.74754082 83.33323669 250.74831772 C80.807884 250.77398663 80.807884 250.77398663 79 253 C78.68535259 255.35778261 78.68535259 255.35778261 78.7215271 258.1378479 C78.71036362 259.2260231 78.69920013 260.3141983 78.68769836 261.43534851 C78.68553818 262.63440323 78.68337799 263.83345795 78.68115234 265.06884766 C78.67110672 266.32735031 78.6610611 267.58585297 78.65071106 268.88249207 C78.6233468 272.33886194 78.60824276 275.79519092 78.59528303 279.2516408 C78.57968047 282.86184935 78.55288116 286.47197402 78.5272522 290.0821228 C78.48041332 296.92084801 78.44369403 303.75958891 78.41057932 310.59839284 C78.37239394 318.38310703 78.32297446 326.16773708 78.27259517 333.95238042 C78.16919936 349.96819428 78.08036245 365.98405382 78 382 C72.06 382 66.12 382 60 382 C60.165 380.411875 60.33 378.82375 60.5 377.1875 C61.76135116 362.700511 60.66150415 350.24183364 52 338 C48.88600863 334.6935994 45.56482615 331.80847324 42 329 C41.01 328.21625 40.02 327.4325 39 326.625 C36.20383938 325.110413 34.180817 324.56232662 31.125 323.875 C25.48126263 322.33733503 23.2709788 319.17086682 19.921875 314.5625 C15.76806337 309.02408449 11.02853628 305.48215455 4.81734657 302.55142021 C1.80678188 300.74809316 0.29906614 299.81743526 -0.91806912 296.49064851 C-1.26574889 293.26487887 -1.28500037 290.17107748 -1.20254517 286.92727661 C-1.21108941 285.70116791 -1.21963366 284.4750592 -1.22843683 283.21179569 C-1.24205503 279.81412345 -1.21086647 276.42222518 -1.16065621 273.02525234 C-1.11743327 269.36070449 -1.13208773 265.69633203 -1.13967896 262.03160095 C-1.14492035 255.68465106 -1.11357175 249.33872984 -1.05730057 242.99203873 C-0.97599674 233.81599825 -0.94998313 224.64045471 -0.93742065 215.46409307 C-0.9155392 200.57604053 -0.84900397 185.68853617 -0.75439453 170.80078125 C-0.66259117 156.33954567 -0.59192838 141.87845979 -0.54931641 127.41699219 C-0.54663643 126.51636677 -0.54395646 125.61574135 -0.54119527 124.68782425 C-0.52040081 117.64424426 -0.50083165 110.600661 -0.48164964 103.55707645 C-0.38732782 69.0375478 -0.18614411 34.51939154 0 0 Z " fill="#F4F4F4" transform="translate(102,63)"/>
<path d="M0 0 C12.87 0 25.74 0 39 0 C39.27124519 37.97150744 39.48609722 75.94276032 39.61278395 113.91504151 C39.62779254 118.39738281 39.6433244 122.87972216 39.65917969 127.36206055 C39.66232741 128.25441819 39.66547514 129.14677583 39.66871825 130.06617462 C39.72094289 144.51766961 39.81556158 158.96859212 39.92583355 173.41974742 C40.03802951 188.2466382 40.10470024 203.07322907 40.12906194 217.90052694 C40.14553304 227.05109715 40.19755931 236.20004941 40.2949976 245.35012155 C40.35840334 251.62368028 40.3776083 257.896402 40.36201653 264.17025793 C40.35432416 267.79138628 40.36615138 271.40968746 40.4304657 275.03031349 C40.49970575 278.95692925 40.47587145 282.87986244 40.4430542 286.80702209 C40.4780083 287.95002575 40.51296239 289.0930294 40.54897571 290.27066952 C40.47399491 293.58300203 40.2954285 295.9449857 39 299 C36.16188697 301.34866544 33.39655327 302.89556925 30.06254888 304.45185274 C24.16465825 307.43329192 19.4969398 312.43197396 16.1875 318.109375 C13.43172133 321.75093967 11.31829944 322.3335332 7 323.6875 C-4.39711849 327.73513981 -12.63711632 335.40369496 -17.88671875 346.3984375 C-18.25410156 347.25695312 -18.62148438 348.11546875 -19 349 C-19.33644531 349.71414063 -19.67289062 350.42828125 -20.01953125 351.1640625 C-23.91889964 360.67211144 -22.39605602 372.05310085 -21 382 C-26.94 382 -32.88 382 -39 382 C-39 340.09 -39 298.18 -39 255 C-38.67 255 -38.34 255 -38 255 C-37.67 272.82 -37.34 290.64 -37 309 C-36.34 309 -35.68 309 -35 309 C-35 308.34 -35 307.68 -35 307 C-34.01 307 -33.02 307 -32 307 C-31.62875 306.195625 -31.62875 306.195625 -31.25 305.375 C-29.69347463 302.4176018 -27.96564327 299.70275949 -26 297 C-25.34 297 -24.68 297 -24 297 C-23.71125 296.236875 -23.4225 295.47375 -23.125 294.6875 C-22 292 -22 292 -20 289 C-19.34 289 -18.68 289 -18 289 C-17.89429688 288.27554687 -17.78859375 287.55109375 -17.6796875 286.8046875 C-16.9403917 283.75403013 -15.81565924 281.75771813 -14.125 279.125 C-10.10324747 272.60764924 -7.66880577 266.23044026 -5.74609375 258.84375 C-5.1994775 256.76031214 -4.60228454 254.68996776 -3.9765625 252.62890625 C-2.96903688 248.88494106 -2.39957146 245.28550689 -1.9375 241.4375 C-1.78152344 240.17808594 -1.62554687 238.91867187 -1.46484375 237.62109375 C-0.78865844 231.43072633 -0.41728156 225.21206671 0 219 C-0.90415901 219.0199855 -0.90415901 219.0199855 -1.82658386 219.04037476 C-8.10430548 219.17318927 -14.3816277 219.26364097 -20.66040039 219.32958984 C-23.00301322 219.35975015 -25.34551325 219.40068517 -27.68774414 219.45263672 C-31.05643541 219.52548101 -34.42363323 219.55946479 -37.79296875 219.5859375 C-38.83897751 219.61690521 -39.88498627 219.64787292 -40.96269226 219.67977905 C-45.59195618 219.68191839 -48.22881702 219.50422815 -52.15893555 216.93457031 C-55.73124582 211.4249253 -54.71310488 203.79305564 -54.6640625 197.4609375 C-54.66743356 195.93209447 -54.67228859 194.40325406 -54.67855835 192.87442017 C-54.68591174 189.67838901 -54.67527194 186.48305877 -54.65185547 183.28710938 C-54.62331873 179.1932083 -54.63981018 175.10094266 -54.66971779 171.00710106 C-54.68779189 167.85342088 -54.68203338 164.7001282 -54.66907883 161.54643631 C-54.66574756 160.03697134 -54.66982218 158.52747099 -54.68147659 157.01804733 C-54.69419437 154.90870757 -54.67480557 152.80201386 -54.64697266 150.69287109 C-54.64299469 149.49407318 -54.63901672 148.29527527 -54.63491821 147.06015015 C-54 144 -54 144 -51.77043152 141.61581421 C-48.86097747 139.91891712 -47.35024061 139.4891846 -44.02612305 139.45410156 C-43.06550461 139.43438293 -42.10488617 139.41466431 -41.11515808 139.39434814 C-39.57895561 139.39250519 -39.57895561 139.39250519 -38.01171875 139.390625 C-36.95338333 139.37408875 -35.89504791 139.35755249 -34.80464172 139.34051514 C-31.43220218 139.29202195 -28.06021365 139.27066054 -24.6875 139.25 C-22.39776375 139.22184154 -20.10804853 139.19191429 -17.81835938 139.16015625 C-12.21203183 139.08293971 -6.6071302 139.04243004 -1 139 C-0.67 129.1 -0.34 119.2 0 109 C-5.36185547 109.05220703 -5.36185547 109.05220703 -10.83203125 109.10546875 C-14.28718263 109.12885289 -17.74232525 109.14707603 -21.19750977 109.16479492 C-23.60217218 109.17989816 -26.00680698 109.20038208 -28.41137695 109.22631836 C-31.86416431 109.26263351 -35.31658804 109.279711 -38.76953125 109.29296875 C-40.38683891 109.31619453 -40.38683891 109.31619453 -42.03681946 109.33988953 C-43.03763046 109.34011612 -44.03844147 109.34034271 -45.06958008 109.34057617 C-45.95116287 109.34723801 -46.83274567 109.35389984 -47.74104309 109.36076355 C-50.4989981 108.92030821 -51.33785308 108.20791263 -53 106 C-54.11243059 102.66270824 -54.1472959 100.12124747 -54.17700195 96.60424805 C-54.18357315 95.9599585 -54.19014435 95.31566895 -54.19691467 94.65185547 C-54.21660845 92.52180864 -54.22830146 90.39183219 -54.23828125 88.26171875 C-54.24235678 87.53277719 -54.2464323 86.80383564 -54.25063133 86.05280495 C-54.27147543 82.19446727 -54.28578425 78.33616497 -54.29516602 74.4777832 C-54.30622677 70.49976872 -54.34062682 66.52231416 -54.38033772 62.54449749 C-54.4065252 59.47920211 -54.4148597 56.41403975 -54.41844749 53.34864235 C-54.42330804 51.88266023 -54.43490699 50.41668384 -54.45348549 48.95081139 C-54.47792439 46.89473884 -54.47690453 44.84010989 -54.4699707 42.78393555 C-54.47583694 41.61606003 -54.48170319 40.44818451 -54.48774719 39.24491882 C-53.88141371 35.21106077 -52.67500413 33.06434368 -50 30 C-47.62078857 29.2784729 -47.62078857 29.2784729 -44.95605469 29.31884766 C-43.45495148 29.31952744 -43.45495148 29.31952744 -41.92352295 29.32022095 C-40.85047913 29.35118866 -39.7774353 29.38215637 -38.671875 29.4140625 C-37.01566132 29.42679703 -37.01566132 29.42679703 -35.32598877 29.43978882 C-31.7996663 29.47337373 -28.27563116 29.54866893 -24.75 29.625 C-22.35940802 29.65509273 -19.9687802 29.68246972 -17.578125 29.70703125 C-11.71716021 29.76808297 -5.86113939 29.88549149 0 30 C0 20.1 0 10.2 0 0 Z " fill="#DEDCDF" transform="translate(359,63)"/>
<path d="M0 0 C149.82 0 299.64 0 454 0 C454 5.28 454 10.56 454 16 C396.30749999 16.02278789 338.61500051 16.04049891 280.92249689 16.05106533 C274.11914831 16.05231272 267.31579974 16.05360927 260.51245117 16.05493164 C259.83541819 16.0550624 259.15838521 16.05519316 258.46083608 16.05532788 C236.49650481 16.05959303 214.53217611 16.06710716 192.56784639 16.07629722 C169.36723687 16.08598697 146.16662888 16.09199361 122.96601719 16.09408849 C109.0592355 16.09546406 95.15246118 16.09981643 81.24568176 16.10791647 C71.72331566 16.11318195 62.2009534 16.11480475 52.67858595 16.11350138 C47.17580795 16.11285769 41.67304285 16.11387899 36.17026711 16.11920547 C31.14137526 16.12403802 26.11250511 16.12433961 21.08361232 16.12089889 C19.25588074 16.12047306 17.42814785 16.12177001 15.60041887 16.12488318 C13.13282422 16.12884479 10.66530989 16.12676489 8.19771671 16.12304783 C7.11150451 16.12698835 7.11150451 16.12698835 6.00334862 16.13100848 C1.1141458 16.1141458 1.1141458 16.1141458 0 15 C0 10.05 0 5.1 0 0 Z " fill="#495771" transform="translate(23,461)"/>
<path d="M0 0 C4.77701534 3.83937803 7.93473255 9.05330101 10.75 14.4375 C10.75 15.0975 10.75 15.7575 10.75 16.4375 C11.42804688 16.51226562 12.10609375 16.58703125 12.8046875 16.6640625 C23.0219598 18.10749986 30.77821051 22.20010674 37.27734375 30.3125 C42.14327217 37.33389274 43.98098623 43.89230434 42.75 52.4375 C40.15697674 61.03052326 40.15697674 61.03052326 37.75 63.4375 C36.25161748 63.54407831 34.74826017 63.58155969 33.24612427 63.59140015 C32.27304321 63.60000061 31.29996216 63.60860107 30.2973938 63.61746216 C29.22101654 63.62172211 28.14463928 63.62598206 27.03564453 63.63037109 C25.9089032 63.63854858 24.78216187 63.64672607 23.62127686 63.65515137 C19.87512759 63.68006059 16.1290163 63.69653398 12.3828125 63.7109375 C11.1076968 63.71626118 9.8325811 63.72158485 8.51882553 63.72706985 C3.16246896 63.74831009 -2.1938742 63.76744054 -7.55026054 63.77869225 C-15.23518438 63.79493968 -22.91960321 63.82813108 -30.60433662 63.88509309 C-36.65331108 63.92840665 -42.70205495 63.94443154 -48.751194 63.95082474 C-51.32771528 63.95756447 -53.90422842 63.9728563 -56.48064804 63.99671555 C-60.07977962 64.02814836 -63.67762409 64.02843637 -67.27685547 64.02099609 C-68.88534866 64.0456041 -68.88534866 64.0456041 -70.52633667 64.07070923 C-73.19693527 64.0480109 -75.6391533 63.99854564 -78.25 63.4375 C-80.37332153 61.02603149 -80.37332153 61.02603149 -81.25 58.4375 C-81.58 57.7775 -81.91 57.1175 -82.25 56.4375 C-83.7403322 38.17621426 -83.7403322 38.17621426 -78.15625 30.55078125 C-72.65796395 24.45534528 -66.8053588 18.31067901 -58.28515625 17.17578125 C-54.71453618 16.64806965 -52.85377637 16.13606277 -50.43359375 13.3359375 C-49.25274603 11.58712052 -48.0956557 9.82206312 -46.9609375 8.04296875 C-42.33817986 1.00328988 -36.41167212 -3.69646515 -28.328125 -6.14453125 C-18.12873213 -8.1959129 -8.57814366 -5.70223422 0 0 Z " fill="#76B560" transform="translate(434.25,381.5625)"/>
<path d="M0 0 C6.8795802 5.0362959 11.33308694 10.35917651 15 18 C16.56520899 19.56520899 18.40242048 19.42021687 20.5625 19.75 C25.9287748 20.78962019 29.66355726 22.73639861 34 26 C34.63035156 26.46664063 35.26070313 26.93328125 35.91015625 27.4140625 C41.11115677 31.54394402 44.77315097 36.31539269 46 43 C46.17131652 45.62030025 46.27619308 48.19114055 46.3125 50.8125 C46.35600586 51.84213867 46.35600586 51.84213867 46.40039062 52.89257812 C46.40876953 53.57384766 46.41714844 54.25511719 46.42578125 54.95703125 C46.44036377 55.56522705 46.45494629 56.17342285 46.4699707 56.80004883 C45.73121436 60.25819605 43.78300438 62.95763927 42 66 C26.92739718 66.11674153 11.85482936 66.20494298 -3.21812916 66.25906086 C-10.21661798 66.28485544 -17.2148261 66.3200292 -24.21313477 66.37719727 C-30.96288108 66.43230864 -37.71227508 66.4613954 -44.46225548 66.47438622 C-47.04157804 66.48364768 -49.62088405 66.5017324 -52.20008278 66.52865028 C-55.80407275 66.56477836 -59.40684537 66.56995191 -63.01098633 66.56762695 C-64.62183609 66.59459152 -64.62183609 66.59459152 -66.26522827 66.62210083 C-68.93925163 66.60334949 -71.38496023 66.55767993 -74 66 C-76.12431335 63.58952332 -76.12431335 63.58952332 -77 61 C-77.33 60.34 -77.66 59.68 -78 59 C-79.49125912 40.72735655 -79.49125912 40.72735655 -73.90234375 33.11328125 C-67.25559854 25.72952528 -61.3560921 21.00359349 -51.4375 19.4375 C-46.80333795 17.49957769 -45.29313949 14.61184586 -42.625 10.47265625 C-40.7190352 7.57247423 -38.58287789 5.310996 -36 3 C-35.2575 2.29875 -34.515 1.5975 -33.75 0.875 C-23.68023923 -5.99074598 -10.4410751 -6.19470485 0 0 Z " fill="#76B561" transform="translate(102,379)"/>
<path d="M0 0 C0.99832352 -0.0131424 0.99832352 -0.0131424 2.01681519 -0.02655029 C4.21182918 -0.04851545 6.40481989 -0.03400349 8.59985352 -0.01708984 C10.1291594 -0.02045929 11.65846267 -0.02531299 13.1877594 -0.03158569 C16.3915458 -0.03895333 19.59463463 -0.02825769 22.79833984 -0.00488281 C26.89892695 0.02358219 30.99787619 0.00721686 35.09840298 -0.02274513 C38.25641646 -0.0408425 41.41404384 -0.0350488 44.57206917 -0.02210617 C46.08349871 -0.01877757 47.59496365 -0.02284009 49.10635185 -0.03450394 C51.22288201 -0.04725194 53.33678952 -0.02778726 55.453125 0 C56.65573471 0.00397797 57.85834442 0.00795593 59.09739685 0.01205444 C63.31165948 0.84982117 64.76874278 2.20059596 67.29125977 5.64697266 C67.92617798 8.84083557 67.92617798 8.84083557 67.93823242 12.48510742 C67.94699402 13.15240875 67.95575562 13.81971008 67.96478271 14.50723267 C67.98669773 16.7016196 67.97225717 18.89397341 67.95532227 21.08837891 C67.95869236 22.61865118 67.96354659 24.14892083 67.96981812 25.67918396 C67.97717827 28.88119067 67.96651127 32.08249854 67.94311523 35.28442383 C67.91460239 39.38620024 67.9310506 43.4863427 67.96097755 47.58805943 C67.97905396 50.74603062 67.97329167 53.90361492 67.96033859 57.06159782 C67.95700671 58.57385388 67.96108412 60.08614523 67.97273636 61.59836006 C67.98545523 63.71259618 67.96606262 65.82419277 67.93823242 67.93823242 C67.93226547 69.7409536 67.93226547 69.7409536 67.92617798 71.58009338 C67.29125977 74.64697266 67.29125977 74.64697266 65.17247009 77.03491211 C61.6962674 78.97987571 59.51733791 79.14812453 55.54492188 79.14868164 C54.55860023 79.15678612 54.55860023 79.15678612 53.55235291 79.16505432 C51.39063756 79.1775066 49.2302632 79.16107803 47.06860352 79.14306641 C45.5607547 79.14322146 44.05290549 79.14471149 42.5450592 79.1474762 C39.39021106 79.14885854 36.23581847 79.13632893 33.08105469 79.11352539 C29.04014396 79.08511632 24.9999884 79.08788663 20.95902157 79.1006155 C17.8474331 79.10757421 14.73601881 79.09978171 11.62445259 79.08735847 C10.134534 79.08284753 8.6445967 79.08250407 7.15467644 79.08642387 C5.07212936 79.08933875 2.99061907 79.07281899 0.90820312 79.05102539 C-0.2758461 79.04562241 -1.45989532 79.04021942 -2.67982483 79.03465271 C-5.9962629 78.61017176 -7.3727903 78.00177188 -9.70874023 75.64697266 C-10.82264043 72.30527207 -10.85607204 69.75719091 -10.88574219 66.23535156 C-10.89231339 65.58945572 -10.89888458 64.94355988 -10.90565491 64.27809143 C-10.925346 62.1432381 -10.93704004 60.00845491 -10.94702148 57.87353516 C-10.95109701 57.14334545 -10.95517254 56.41315575 -10.95937157 55.66083908 C-10.98021281 51.79717035 -10.99452382 47.93353696 -11.00390625 44.06982422 C-11.01497668 40.08274431 -11.04938867 36.09622159 -11.08907795 32.10933876 C-11.11523754 29.03979463 -11.12359737 25.97038356 -11.12718773 22.90073776 C-11.13205415 21.43113815 -11.1436699 19.9615445 -11.16222572 18.49205399 C-11.18660902 16.43338182 -11.18565509 14.37615556 -11.17871094 12.31738281 C-11.18457718 11.14728668 -11.19044342 9.97719055 -11.19648743 8.77163696 C-10.10545358 1.78212565 -6.70854392 0.02220507 0 0 Z " fill="#030304" transform="translate(127.708740234375,93.35302734375)"/>
<path d="M0 0 C0.65754776 -0.00554901 1.31509552 -0.01109802 1.99256897 -0.01681519 C4.1545726 -0.02857549 6.31446311 -0.0043808 8.47631836 0.02148438 C9.98416549 0.02319637 11.4920156 0.02312889 12.99986267 0.0213623 C16.15482181 0.02301339 19.30906852 0.0416729 22.46386719 0.07324219 C26.5048025 0.11295404 30.54480684 0.11728239 34.58590031 0.10977936 C37.69750984 0.10670811 40.80891062 0.11883497 43.92046928 0.13591003 C45.41038135 0.14293294 46.90031706 0.14606543 48.39024544 0.1452179 C50.47283735 0.14701846 52.55431918 0.16841848 54.63671875 0.1953125 C55.82076797 0.20373169 57.0048172 0.21215088 58.2247467 0.2208252 C61.53764031 0.6522125 62.91875541 1.26289123 65.25366211 3.61523438 C66.37628312 6.98309741 66.40813781 9.58384999 66.4465332 13.13452148 C66.45879944 14.12040504 66.45879944 14.12040504 66.47131348 15.12620544 C66.4961002 17.29832049 66.51266299 19.47037065 66.52709961 21.64257812 C66.53242329 22.38504854 66.53774696 23.12751896 66.54323196 23.89248848 C66.56992992 27.81983532 66.58931844 31.7471507 66.60375977 35.67456055 C66.61711833 38.9251711 66.64500935 42.17515676 66.68579102 45.42553711 C66.73505048 49.35183704 66.7598716 53.27756874 66.76698685 57.20416451 C66.77370605 58.6997352 66.78894579 60.19529288 66.81287766 61.69068718 C66.84446623 63.7833174 66.84457797 65.87374716 66.8371582 67.96655273 C66.84524506 69.15663437 66.85333191 70.346716 66.86166382 71.57286072 C66.25366211 74.61523438 66.25366211 74.61523438 64.1321106 76.99942017 C60.68589404 78.93395042 58.55479239 79.11638096 54.61499023 79.11694336 C53.64570839 79.12504784 53.64570839 79.12504784 52.65684509 79.13331604 C50.53239364 79.14576803 48.40930696 79.12933829 46.28491211 79.11132812 C44.80187916 79.1114832 43.31884581 79.11297355 41.83581543 79.11573792 C38.73223895 79.11712031 35.62912549 79.10459132 32.52563477 79.08178711 C28.55432045 79.05340241 24.58377509 79.05614166 20.61240387 79.06887722 C17.55138623 79.07584371 14.49054525 79.06803415 11.42955017 79.05562019 C9.96557798 79.05111508 8.50158677 79.05076066 7.03761292 79.05468559 C4.98879349 79.0576075 2.94102085 79.04104649 0.89233398 79.01928711 C-0.27172974 79.01388412 -1.43579346 79.00848114 -2.63513184 79.00291443 C-6.37250039 78.53720974 -9.06311233 77.29845993 -11.74633789 74.61523438 C-11.86692019 72.49496573 -11.91661024 70.37064477 -11.93920898 68.24707031 C-11.94738647 67.58195938 -11.95556396 66.91684845 -11.96398926 66.23158264 C-11.98888821 64.02093415 -12.00537285 61.81035017 -12.01977539 59.59960938 C-12.02509907 58.8455204 -12.03042274 58.09143143 -12.03590775 57.31449127 C-12.06266221 53.32116206 -12.0820274 49.32786432 -12.09643555 45.33447266 C-12.11306587 41.21045609 -12.1578222 37.08724144 -12.20880699 32.96352768 C-12.24248333 29.79275608 -12.25401347 26.6221744 -12.25966263 23.45124054 C-12.26637697 21.93137757 -12.28160409 20.41152717 -12.30555344 18.89183807 C-12.33721236 16.76089035 -12.33724219 14.63209818 -12.32983398 12.50097656 C-12.33792084 11.28931824 -12.34600769 10.07765991 -12.3543396 8.82928467 C-11.02378448 1.79563494 -6.66024719 -0.01154843 0 0 Z " fill="#020203" transform="translate(128.746337890625,202.384765625)"/>
<path d="M0 0 C0.6461879 -0.00540298 1.29237579 -0.01080597 1.95814514 -0.01637268 C4.0825966 -0.02882467 6.20568328 -0.01239493 8.33007812 0.00561523 C9.81311107 0.00546016 11.29614443 0.00396981 12.7791748 0.00120544 C15.88275129 -0.00017695 18.98586474 0.01235204 22.08935547 0.03515625 C26.06066979 0.06354095 30.03121514 0.0608017 34.00258636 0.04806614 C37.063604 0.04109965 40.12444499 0.04890921 43.18544006 0.06132317 C44.64941225 0.06582828 46.11340346 0.06618269 47.57737732 0.06225777 C49.62619675 0.05933586 51.67396938 0.07589686 53.72265625 0.09765625 C54.88671997 0.10305923 56.05078369 0.10846222 57.25012207 0.11402893 C60.98749062 0.57973362 63.67810257 1.81848343 66.36132812 4.50170898 C66.47133391 6.59162757 66.51046013 8.68529884 66.52246094 10.77807617 C66.52990829 11.76111221 66.52990829 11.76111221 66.5375061 12.76400757 C66.55216546 14.94221024 66.55893731 17.12033999 66.56445312 19.29858398 C66.57020322 20.80975345 66.57596097 22.32092288 66.58172607 23.83209229 C66.59224799 27.0064732 66.59808227 30.1808287 66.6015625 33.35522461 C66.60703777 37.41848615 66.63103972 41.48141097 66.65953445 45.54456711 C66.67818436 48.66901621 66.68336776 51.79338477 66.68489838 54.91788483 C66.68792214 56.4153756 66.69594139 57.91286505 66.70908356 59.41030121 C66.7261875 61.50971292 66.72425333 63.60831006 66.71777344 65.70776367 C66.72324188 67.49860382 66.72324188 67.49860382 66.7288208 69.32562256 C66.32415163 72.82300998 65.45988247 74.70243776 63.36132812 77.50170898 C60.52619105 78.91927752 58.12580218 78.64467456 54.95556641 78.6628418 C53.96990189 78.67028915 53.96990189 78.67028915 52.96432495 78.67788696 C50.78675292 78.6925124 48.60925374 78.69931122 46.43164062 78.70483398 C44.91950478 78.7105852 43.40736895 78.71634293 41.89523315 78.72210693 C38.72263244 78.73261805 35.55005708 78.73845996 32.37744141 78.74194336 C28.31298971 78.7474279 24.24887306 78.77145429 20.18452644 78.79991531 C17.06011986 78.81854338 13.93579394 78.82374738 10.81133652 78.82527924 C9.31301924 78.82830601 7.81470339 78.83633543 6.31644058 78.84946442 C4.2193278 78.8665289 2.12303304 78.86464426 0.02587891 78.8581543 C-1.16721893 78.86179993 -2.36031677 78.86544556 -3.58956909 78.86920166 C-6.92903746 78.46671271 -8.29350282 77.8743148 -10.63867188 75.50170898 C-11.76129289 72.13384595 -11.79314758 69.53309337 -11.83154297 65.98242188 C-11.83972046 65.32516617 -11.84789795 64.66791046 -11.85632324 63.99073792 C-11.88110997 61.81862287 -11.89767276 59.64657271 -11.91210938 57.47436523 C-11.91743305 56.73189482 -11.92275673 55.9894244 -11.92824173 55.22445488 C-11.95493969 51.29710804 -11.97432821 47.36979266 -11.98876953 43.44238281 C-12.00212809 40.19177226 -12.03001912 36.9417866 -12.07080078 33.69140625 C-12.12006024 29.76510631 -12.14488137 25.83937462 -12.15199661 21.91277885 C-12.15871582 20.41720816 -12.17395556 18.92165048 -12.19788742 17.42625618 C-12.22947599 15.33362596 -12.22958773 13.2431962 -12.22216797 11.15039062 C-12.23025482 9.96030899 -12.23834167 8.77022736 -12.24667358 7.54408264 C-11.63867188 4.50170898 -11.63867188 4.50170898 -9.51712036 2.11752319 C-6.0709038 0.18299294 -3.93980215 0.0005624 0 0 Z " fill="#050607" transform="translate(222.638671875,93.498291015625)"/>
<path d="M0 0 C0.6461879 -0.00540298 1.29237579 -0.01080597 1.95814514 -0.01637268 C4.0825966 -0.02882467 6.20568328 -0.01239493 8.33007812 0.00561523 C9.81311107 0.00546016 11.29614443 0.00396981 12.7791748 0.00120544 C15.88275129 -0.00017695 18.98586474 0.01235204 22.08935547 0.03515625 C26.06066979 0.06354095 30.03121514 0.0608017 34.00258636 0.04806614 C37.063604 0.04109965 40.12444499 0.04890921 43.18544006 0.06132317 C44.64941225 0.06582828 46.11340346 0.06618269 47.57737732 0.06225777 C49.62619675 0.05933586 51.67396938 0.07589686 53.72265625 0.09765625 C54.88671997 0.10305923 56.05078369 0.10846222 57.25012207 0.11402893 C60.6969449 0.5435294 62.59220189 1.43897122 65.36132812 3.50170898 C66.77889666 6.33684606 66.5042937 8.73723493 66.52246094 11.9074707 C66.52990829 12.89313522 66.52990829 12.89313522 66.5375061 13.89871216 C66.55213154 16.07628419 66.55893036 18.25378337 66.56445312 20.43139648 C66.57020434 21.94353233 66.57596207 23.45566816 66.58172607 24.96780396 C66.59223719 28.14040467 66.5980791 31.31298003 66.6015625 34.4855957 C66.60704704 38.5500474 66.63107343 42.61416405 66.65953445 46.67851067 C66.67816252 49.80291725 66.68336652 52.92724317 66.68489838 56.05170059 C66.68792515 57.55001787 66.69595457 59.04833372 66.70908356 60.54659653 C66.72614804 62.6437093 66.7242634 64.74000407 66.71777344 66.8371582 C66.72324188 68.62680496 66.72324188 68.62680496 66.7288208 70.4526062 C66.32633185 73.79207457 65.73393394 75.15653993 63.36132812 77.50170898 C59.99346509 78.62433 57.39271251 78.65618469 53.84204102 78.69458008 C53.18478531 78.70275757 52.5275296 78.71093506 51.85035706 78.71936035 C49.67824201 78.74414708 47.50619185 78.76070987 45.33398438 78.77514648 C44.59151396 78.78047016 43.84904354 78.78579384 43.08407402 78.79127884 C39.15672718 78.8179768 35.2294118 78.83736532 31.30200195 78.85180664 C28.0513914 78.8651652 24.80140574 78.89305622 21.55102539 78.93383789 C17.62472546 78.98309735 13.69899376 79.00791848 9.77239799 79.01503372 C8.2768273 79.02175293 6.78126962 79.03699267 5.28587532 79.06092453 C3.1932451 79.0925131 1.10281534 79.09262484 -0.98999023 79.08520508 C-2.18007187 79.09329193 -3.3701535 79.10137878 -4.59629822 79.10971069 C-7.63867188 78.50170898 -7.63867188 78.50170898 -10.02087402 76.3926239 C-11.97964337 72.89241185 -12.15149618 70.66471274 -12.17211914 66.66357422 C-12.18073471 65.99627289 -12.18935028 65.32897156 -12.19822693 64.64144897 C-12.22083287 62.44733314 -12.21416053 60.2544998 -12.20507812 58.06030273 C-12.21031522 56.53003054 -12.21659202 54.99976157 -12.22386169 53.46949768 C-12.23425514 50.26759614 -12.22971864 47.06613935 -12.21508789 43.86425781 C-12.19787855 39.76252796 -12.22142533 35.66219614 -12.25657749 31.56062222 C-12.27854105 28.40268181 -12.27711312 25.24507673 -12.26881218 22.08708382 C-12.2679925 20.57481411 -12.27485917 19.06251983 -12.28958321 17.55032158 C-12.30701754 15.43615614 -12.29250365 13.32451334 -12.26977539 11.21044922 C-12.26881363 10.0086351 -12.26785187 8.80682098 -12.26686096 7.56858826 C-11.63867188 4.50170898 -11.63867188 4.50170898 -9.5141449 2.11376953 C-6.07001218 0.18290444 -3.93638725 0.00056191 0 0 Z " fill="#020304" transform="translate(316.638671875,202.498291015625)"/>
<path d="M0 0 C0.6461879 -0.00554901 1.29237579 -0.01109802 1.95814514 -0.01681519 C4.08288998 -0.02857527 6.20548423 -0.0043788 8.33007812 0.02148438 C9.81310936 0.02319659 11.29614363 0.02312867 12.7791748 0.0213623 C15.88286411 0.02301345 18.98582929 0.04167196 22.08935547 0.07324219 C26.0606948 0.11291997 30.03108643 0.11728634 34.00258636 0.10977936 C37.06362537 0.10670468 40.1244527 0.11884772 43.18544006 0.13591003 C44.64940564 0.14292386 46.11339519 0.14606653 47.57737732 0.1452179 C49.62624169 0.1470228 51.67398643 0.16846072 53.72265625 0.1953125 C55.46875183 0.20794128 55.46875183 0.20794128 57.25012207 0.2208252 C60.69311002 0.65729453 62.5937738 1.55494568 65.36132812 3.61523438 C66.76600931 6.42459675 66.50413334 8.77089045 66.52246094 11.91333008 C66.52990829 12.8819548 66.52990829 12.8819548 66.5375061 13.87014771 C66.55213277 16.0104478 66.55893115 18.15067372 66.56445312 20.29101562 C66.57020497 21.77833559 66.5759627 23.26565554 66.58172607 24.75297546 C66.59223805 27.87430161 66.59807915 30.99560199 66.6015625 34.11694336 C66.60704213 38.1117972 66.63105762 42.10630931 66.65953445 46.1010561 C66.67818337 49.174891 66.68336766 52.24864405 66.68489838 55.32253075 C66.68792129 56.79490206 66.69593766 58.26727205 66.70908356 59.73958778 C66.72618898 61.80297221 66.72425327 63.865528 66.71777344 65.92895508 C66.72324188 67.68862358 66.72324188 67.68862358 66.7288208 69.48384094 C66.31927582 72.97356076 65.50717781 74.85163591 63.36132812 77.61523438 C60.04111888 78.72197079 57.539467 78.75561176 54.04150391 78.77636719 C52.73649933 78.78597473 51.43149475 78.79558228 50.08694458 78.80548096 C48.66017837 78.81032883 47.23341014 78.81460769 45.80664062 78.81835938 C44.34317015 78.82411303 42.87969969 78.82987074 41.41622925 78.83563232 C38.34795786 78.84613404 35.27971261 78.85198218 32.21142578 78.85546875 C28.28497958 78.8609529 24.35888025 78.88498237 20.4325428 78.9134407 C17.40932209 78.9320886 14.38618459 78.93727381 11.36291122 78.93880463 C9.91565936 78.94182666 8.46840881 78.94984006 7.02121353 78.96298981 C4.99419291 78.98009392 2.96702888 78.97631894 0.93994141 78.97167969 C-0.21238983 78.97532532 -1.36472107 78.97897095 -2.55197144 78.98272705 C-5.99546286 78.57275598 -7.87444648 77.67455191 -10.63867188 75.61523438 C-12.0524918 72.78759452 -11.79732569 70.38751919 -11.83154297 67.2253418 C-11.83972046 66.56983841 -11.84789795 65.91433502 -11.85632324 65.2389679 C-11.88116749 63.06622226 -11.89769099 60.89354194 -11.91210938 58.72070312 C-11.91743305 57.97856379 -11.92275673 57.23642445 -11.92824173 56.47179604 C-11.9549697 52.54330096 -11.97434526 48.61483762 -11.98876953 44.6862793 C-12.00541294 40.6306673 -12.05018775 36.57586866 -12.10114098 32.52056408 C-12.13481551 29.40040669 -12.14634708 26.28044228 -12.15199661 23.16012001 C-12.15870911 21.66537577 -12.17393147 20.17064422 -12.19788742 18.67607689 C-12.22954916 16.58114968 -12.22957618 14.4884147 -12.22216797 12.39331055 C-12.23025482 11.20243332 -12.23834167 10.01155609 -12.24667358 8.78459167 C-10.91578137 1.84699117 -6.58386696 -0.01161979 0 0 Z " fill="#050507" transform="translate(222.638671875,202.384765625)"/>
<path d="M0 0 C0.66700928 -0.00817749 1.33401855 -0.01635498 2.02124023 -0.02478027 C4.22582103 -0.04956916 6.43033788 -0.06613036 8.63500977 -0.08056641 C9.38851274 -0.08589008 10.14201572 -0.09121376 10.91835213 -0.09669876 C14.90405382 -0.12339766 18.88972449 -0.14278589 22.87548828 -0.15722656 C26.17459724 -0.17058526 29.47309051 -0.1984765 32.77197266 -0.23925781 C36.75662596 -0.2885142 40.74071937 -0.31333805 44.72566414 -0.32045364 C46.2435626 -0.32717336 47.76144821 -0.34241439 49.2791729 -0.36634445 C51.40292639 -0.39792877 53.52451132 -0.39804528 55.6484375 -0.390625 C56.85628403 -0.39871185 58.06413055 -0.40679871 59.30857849 -0.41513062 C62.38891602 0.19287109 62.38891602 0.19287109 64.77784729 2.31442261 C66.70445956 5.75664335 66.89574222 7.89865517 66.90649414 11.83154297 C66.91350342 12.47773087 66.9205127 13.12391876 66.92773438 13.78968811 C66.94526149 15.91411 66.93371237 18.03718696 66.92016602 20.16162109 C66.9228625 21.64465591 66.92674622 23.12768899 66.9317627 24.61071777 C66.93765051 27.71428307 66.92911858 30.81738691 66.91040039 33.92089844 C66.88761046 37.89234905 66.9007375 41.86271836 66.92469025 45.83412933 C66.93916809 48.89516294 66.93453331 51.95594161 66.92417908 55.01698303 C66.92151724 56.48096343 66.92476246 57.94496723 66.93409729 59.40892029 C66.94429666 61.4579671 66.928719 63.50528099 66.90649414 65.55419922 C66.90331177 66.71826294 66.90012939 67.88232666 66.89685059 69.08166504 C66.28408008 72.83501324 65.01725558 74.49553819 62.38891602 77.19287109 C59.54999924 78.61232948 57.14157291 78.33585938 53.96728516 78.35400391 C52.9792112 78.36145126 52.9792112 78.36145126 51.97117615 78.36904907 C49.78879763 78.38367249 47.60649176 78.39047243 45.42407227 78.39599609 C43.90954079 78.40174676 42.39500933 78.4075045 40.88047791 78.41326904 C37.70368103 78.4237791 34.52690947 78.42962194 31.35009766 78.43310547 C27.27658001 78.4385947 23.20339588 78.46263152 19.12998295 78.49107742 C16.00132768 78.50968612 12.8727531 78.51490841 9.74404716 78.51644135 C8.24211234 78.51947169 6.74017905 78.5275131 5.23829842 78.54062653 C3.13858649 78.55765322 1.03969407 78.55581585 -1.06005859 78.54931641 C-2.25537704 78.55296204 -3.4506955 78.55660767 -4.68223572 78.56036377 C-7.61108398 78.19287109 -7.61108398 78.19287109 -9.45802307 76.85809326 C-11.92229755 73.29924876 -11.74272766 69.95136143 -11.75634766 65.76538086 C-11.75970627 65.11787872 -11.76306488 64.47037659 -11.76652527 63.80325317 C-11.77602137 61.66357503 -11.77797765 59.52397525 -11.77905273 57.38427734 C-11.78226605 55.89599068 -11.78563018 54.40770433 -11.78913879 52.91941833 C-11.79512656 49.79986844 -11.79697904 46.68034625 -11.79638672 43.56079102 C-11.79628507 39.56482272 -11.80994144 35.56903201 -11.82715893 31.57310581 C-11.83828052 28.49931524 -11.84030588 25.42556759 -11.83977699 22.35175896 C-11.84095671 20.87857386 -11.84537803 19.40538765 -11.85310936 17.93222237 C-11.86291337 15.8712738 -11.8600299 13.81071072 -11.85400391 11.74975586 C-11.85542892 10.57743912 -11.85685394 9.40512238 -11.85832214 8.19728088 C-11.61664404 5.26043623 -11.30720041 3.5840003 -9.61108398 1.19287109 C-6.21742679 0.06165203 -3.57886931 0.03813073 0 0 Z " fill="#020303" transform="translate(316.611083984375,93.80712890625)"/>
<path d="M0 0 C77.22 0 154.44 0 234 0 C234 7.92 234 15.84 234 24 C156.78 24 79.56 24 0 24 C0 16.08 0 8.16 0 0 Z " fill="#707D94" transform="translate(133,23)"/>
<path d="M0 0 C15.51 0 31.02 0 47 0 C47 38.61 47 77.22 47 117 C31.49 117 15.98 117 0 117 C0 78.39 0 39.78 0 0 Z " fill="#C5E1F8" transform="translate(258,328)"/>
<path d="M0 0 C15.51 0 31.02 0 47 0 C47 38.61 47 77.22 47 117 C31.49 117 15.98 117 0 117 C0 78.39 0 39.78 0 0 Z " fill="#C5E0F8" transform="translate(195,328)"/>
<path d="M0 0 C145.86 0 291.72 0 442 0 C439.98906213 4.02187574 438.7978632 5.38126631 434.77327824 7.21795225 C428.28992741 9.04621811 421.32138692 8.52937856 414.63757324 8.48101807 C412.84875256 8.48276319 411.05993288 8.48626702 409.27111864 8.49137473 C404.36358212 8.5003101 399.45639542 8.48433077 394.54890347 8.46426249 C389.25383464 8.44698121 383.95878538 8.45283467 378.66369629 8.45587158 C369.49225698 8.45796851 360.32093154 8.44542341 351.14952087 8.42292023 C337.88923554 8.39040567 324.62900523 8.37999376 311.36868435 8.37496826 C289.85448232 8.36621477 268.34034096 8.33959767 246.82617188 8.30175781 C225.92773746 8.26503916 205.02931953 8.23672667 184.13085938 8.21972656 C182.84257907 8.21867567 181.55429877 8.21762477 180.22697967 8.21654204 C173.76402607 8.21132187 167.30107235 8.20626704 160.83811855 8.20129442 C107.22537043 8.15983069 53.61268818 8.08938073 0 8 C0 5.36 0 2.72 0 0 Z " fill="#707C91" transform="translate(24,461)"/>
<path d="M0 0 C15.51 0 31.02 0 47 0 C47 15.51 47 31.02 47 47 C31.49 47 15.98 47 0 47 C0 31.49 0 15.98 0 0 Z " fill="#C4DFF6" transform="translate(320,219)"/>
<path d="M0 0 C15.51 0 31.02 0 47 0 C47 15.51 47 31.02 47 47 C31.49 47 15.98 47 0 47 C0 31.49 0 15.98 0 0 Z " fill="#C4DFF6" transform="translate(133,219)"/>
<path d="M0 0 C15.51 0 31.02 0 47 0 C47 15.51 47 31.02 47 47 C31.49 47 15.98 47 0 47 C0 31.49 0 15.98 0 0 Z " fill="#C4DFF6" transform="translate(320,109)"/>
<path d="M0 0 C15.51 0 31.02 0 47 0 C47 15.51 47 31.02 47 47 C31.49 47 15.98 47 0 47 C0 31.49 0 15.98 0 0 Z " fill="#C4DFF6" transform="translate(133,109)"/>
<path d="M0 0 C15.18 0 30.36 0 46 0 C46 15.18 46 30.36 46 46 C30.82 46 15.64 46 0 46 C0 30.82 0 15.64 0 0 Z " fill="#C7E2FA" transform="translate(227,219)"/>
<path d="M0 0 C15.18 0 30.36 0 46 0 C46 15.18 46 30.36 46 46 C30.82 46 15.64 46 0 46 C0 30.82 0 15.64 0 0 Z " fill="#C7E2FA" transform="translate(227,110)"/>
<path d="M0 0 C7.08948953 3.31153787 11.6265966 7.99370063 15 15 C16.29839974 18.84291466 16.25687603 22.79644907 16.3125 26.8125 C16.35600586 27.84213867 16.35600586 27.84213867 16.40039062 28.89257812 C16.40876953 29.57384766 16.41714844 30.25511719 16.42578125 30.95703125 C16.44036377 31.56522705 16.45494629 32.17342285 16.4699707 32.80004883 C15.73121436 36.25819605 13.78300438 38.95763927 12 42 C-3.07260282 42.11674153 -18.14517064 42.20494298 -33.21812916 42.25906086 C-40.21661798 42.28485544 -47.2148261 42.3200292 -54.21313477 42.37719727 C-60.96288108 42.43230864 -67.71227508 42.4613954 -74.46225548 42.47438622 C-77.04157804 42.48364768 -79.62088405 42.5017324 -82.20008278 42.52865028 C-85.80407275 42.56477836 -89.40684537 42.56995191 -93.01098633 42.56762695 C-94.08488617 42.58560333 -95.15878601 42.60357971 -96.26522827 42.62210083 C-98.93780638 42.60335963 -101.38516144 42.55101491 -104 42 C-107.03691913 38.70157974 -107.48897365 35.39482658 -108 31 C-107.67 31.99 -107.34 32.98 -107 34 C-82.25 34.33 -57.5 34.66 -32 35 C-32 34.34 -32 33.68 -32 33 C-31.04738281 32.67386719 -30.09476562 32.34773438 -29.11328125 32.01171875 C-27.84625231 31.57060497 -26.57933087 31.12918229 -25.3125 30.6875 C-24.07113281 30.25824219 -22.82976562 29.82898438 -21.55078125 29.38671875 C-16.3474241 27.35460457 -13.25615342 25.49659281 -10 21 C-9.34 21 -8.68 21 -8 21 C-7.731875 20.278125 -7.46375 19.55625 -7.1875 18.8125 C-6 16 -6 16 -4.5625 13.875 C-2.19052163 9.51055979 -1.18580514 4.80209032 0 0 Z " fill="#669C54" transform="translate(132,403)"/>
<path d="M0 0 C6.24080858 1.7020387 10.24761626 6.16719922 13.55859375 11.51953125 C17.32052467 18.96879389 18.58262641 25.79287651 16.125 33.87890625 C13.60310325 40.39689675 13.60310325 40.39689675 12 42 C10.50161748 42.10657831 8.99826017 42.14405969 7.49612427 42.15390015 C6.03650269 42.16680084 6.03650269 42.16680084 4.5473938 42.17996216 C2.93282791 42.18635208 2.93282791 42.18635208 1.28564453 42.19287109 C0.1589032 42.20104858 -0.96783813 42.20922607 -2.12872314 42.21765137 C-5.87487241 42.24256059 -9.6209837 42.25903398 -13.3671875 42.2734375 C-14.6423032 42.27876118 -15.9174189 42.28408485 -17.23117447 42.28956985 C-22.58753104 42.31081009 -27.9438742 42.32994054 -33.30026054 42.34119225 C-40.98518438 42.35743968 -48.66960321 42.39063108 -56.35433662 42.44759309 C-62.40331108 42.49090665 -68.45205495 42.50693154 -74.501194 42.51332474 C-77.07771528 42.52006447 -79.65422842 42.5353563 -82.23064804 42.55921555 C-85.82977962 42.59064836 -89.42762409 42.59093637 -93.02685547 42.58349609 C-94.09918427 42.59990143 -95.17151306 42.61630676 -96.27633667 42.63320923 C-98.94548753 42.6105232 -101.38934691 42.55438119 -104 42 C-107.03543741 38.70025816 -107.48896122 35.39493354 -108 31 C-107.67 31.99 -107.34 32.98 -107 34 C-97.19447525 34.04638693 -87.38897671 34.08190153 -77.58336449 34.10362434 C-73.02998345 34.11405139 -68.47667761 34.12819091 -63.92333984 34.15087891 C-59.52725106 34.17264573 -55.13123451 34.18457674 -50.73509598 34.18975449 C-49.05980925 34.19344335 -47.38452637 34.20064677 -45.70927048 34.21146011 C-43.35866573 34.22602612 -41.00835763 34.22797582 -38.65771484 34.22705078 C-37.62408813 34.23783661 -37.62408813 34.23783661 -36.56958008 34.24884033 C-30.48959056 34.2230332 -25.80695182 32.78438627 -20.8125 29.375 C-17.33236994 27 -17.33236994 27 -14 27 C-14 26.34 -14 25.68 -14 25 C-13.34 25 -12.68 25 -12 25 C-11.731875 24.360625 -11.46375 23.72125 -11.1875 23.0625 C-10 21 -10 21 -7 20 C-5.97549761 17.81862203 -5.97549761 17.81862203 -5 15 C-4.32074379 13.70397915 -3.63256132 12.4126136 -2.9375 11.125 C-1.01476884 7.36531007 -0.34937346 4.19248148 0 0 Z " fill="#659C52" transform="translate(460,403)"/>
<path d="M0 0 C0.33 0 0.66 0 1 0 C1 41.91 1 83.82 1 127 C-4.94 127 -10.88 127 -17 127 C-16.835 125.411875 -16.67 123.82375 -16.5 122.1875 C-15.39527689 109.49943016 -16.97812809 100.06561573 -21 88 C-14.07 88 -7.14 88 0 88 C0 58.96 0 29.92 0 0 Z " fill="#D4D2D4" transform="translate(179,318)"/>
<path d="M0 0 C77.22 0 154.44 0 234 0 C234 7.92 234 15.84 234 24 C156.78 24 79.56 24 0 24 C0 23.67 0 23.34 0 23 C74.58 23 149.16 23 226 23 C226 15.74 226 8.48 226 1 C151.42 1 76.84 1 0 1 C0 0.67 0 0.34 0 0 Z " fill="#525967" transform="translate(133,23)"/>
<path d="M0 0 C2.31 0 4.62 0 7 0 C7 7.59 7 15.18 7 23 C4.69 23 2.38 23 0 23 C0 15.41 0 7.82 0 0 Z " fill="#4E5B75" transform="translate(360,24)"/>
<path d="M0 0 C0.66 0.99 1.32 1.98 2 3 C4.0200835 3.45414353 4.0200835 3.45414353 6.38961792 3.38095093 C7.77340637 3.39364014 7.77340637 3.39364014 9.18515015 3.40658569 C10.70780991 3.39747665 10.70780991 3.39747665 12.26123047 3.38818359 C13.86136993 3.39606903 13.86136993 3.39606903 15.49383545 3.40411377 C19.03509993 3.41736289 22.57591811 3.40855686 26.1171875 3.3984375 C28.5709746 3.40045712 31.02476111 3.40336761 33.47854614 3.40713501 C38.62849628 3.41156528 43.77829059 3.40510571 48.92822266 3.39111328 C55.53508886 3.37403917 62.141589 3.3838472 68.7484417 3.40183067 C73.81843835 3.41266478 78.88834807 3.40922352 83.95834732 3.4014473 C86.39445158 3.39944333 88.83056368 3.4019114 91.26665878 3.40888596 C94.67131228 3.41649207 98.07537131 3.40490646 101.47998047 3.38818359 C102.49103851 3.39425629 103.50209656 3.40032898 104.54379272 3.40658569 C105.47195801 3.39812622 106.40012329 3.38966675 107.35641479 3.38095093 C108.16130781 3.37981985 108.96620083 3.37868877 109.79548454 3.37752342 C112.51881906 2.9111522 113.93214626 1.78534868 116 0 C115.67 1.65 115.34 3.3 115 5 C76.72 5 38.44 5 -1 5 C-0.67 3.35 -0.34 1.7 0 0 Z " fill="#6E9762" transform="translate(357,440)"/>
<path d="M0 0 C0.99530228 -0.00021904 0.99530228 -0.00021904 2.01071167 -0.0004425 C4.20753225 0.00025508 6.40426842 0.00804025 8.60107422 0.01586914 C10.12279209 0.01773387 11.64451056 0.01915751 13.16622925 0.02015686 C17.17427219 0.02397773 21.18227898 0.03380435 25.19030762 0.04486084 C29.27904776 0.05508421 33.36779373 0.05965647 37.45654297 0.06469727 C45.48129915 0.07542699 53.50602594 0.09249826 61.53076172 0.11352539 C61.53076172 0.44352539 61.53076172 0.77352539 61.53076172 1.11352539 C60.71279114 1.11939163 59.89482056 1.12525787 59.05206299 1.13130188 C51.34184321 1.18921585 43.63194707 1.26128469 35.92201614 1.3492403 C31.95828536 1.39395997 27.99465774 1.43321235 24.03076172 1.45996094 C20.20505483 1.48597835 16.37974457 1.52636905 12.55428314 1.57671165 C11.09510991 1.59339107 9.63586806 1.60489868 8.17661285 1.6111393 C6.13180505 1.62076921 4.08801436 1.64881217 2.04345703 1.68115234 C0.29805634 1.69780693 0.29805634 1.69780693 -1.48260498 1.71479797 C-4.75346043 2.15147018 -6.01111567 3.00593 -8.46923828 5.11352539 C-9.12923828 5.11352539 -9.78923828 5.11352539 -10.46923828 5.11352539 C-8.01010463 -0.33169912 -5.7815166 -0.010667 0 0 Z " fill="#222222" transform="translate(128.46923828125,202.886474609375)"/>
<path d="M0 0 C0.33 0.66 0.66 1.32 1 2 C0.03567924 3.68756133 -0.9731657 5.3497306 -2 7 C-3.03101947 9.31979381 -4.02936517 11.65429915 -5 14 C-5.56064563 15.31329318 -6.12308174 16.62582377 -6.6875 17.9375 C-7.120625 18.948125 -7.55375 19.95875 -8 21 C-8.33 21 -8.66 21 -9 21 C-9.83452904 13.48923866 -7.39697309 9.02310426 -3 3 C-2.02719612 1.97352418 -1.03665906 0.9619449 0 0 Z " fill="#669257" transform="translate(361,407)"/>
<path d="M0 0 C0.66 0.99 1.32 1.98 2 3 C2.66 3 3.32 3 4 3 C3.875 4.875 3.875 4.875 3 7 C-1.67930096 9.28258584 -5.91825435 9.17523261 -11 9 C-11 8.67 -11 8.34 -11 8 C-9.39125 7.690625 -9.39125 7.690625 -7.75 7.375 C-3.29408826 5.7411657 -2.22222392 4.08889201 0 0 Z " fill="#6C9D57" transform="translate(58,391)"/>
<path d="M0 0 C0 0.66 0 1.32 0 2 C-2.64 2.33 -5.28 2.66 -8 3 C-8.66 4.65 -9.32 6.3 -10 8 C-11.32 7.34 -12.64 6.68 -14 6 C-9.38373114 2.04319812 -6.15374666 0 0 0 Z " fill="#74A162" transform="translate(80,376)"/>
<path d="M0 0 C0.66 0.33 1.32 0.66 2 1 C0.38113585 2.67262717 -1.2452729 4.33795537 -2.875 6 C-3.77992187 6.928125 -4.68484375 7.85625 -5.6171875 8.8125 C-8 11 -8 11 -10 11 C-8.55218207 7.55571735 -6.72305391 5.63869038 -3.875 3.25 C-3.15054688 2.63640625 -2.42609375 2.0228125 -1.6796875 1.390625 C-0.84824219 0.70226562 -0.84824219 0.70226562 0 0 Z " fill="#606060" transform="translate(58,367)"/>
<path d="M0 0 C0.99 0 1.98 0 3 0 C2.37240135 2.92879371 1.41377341 5.36095629 0 8 C-0.66 8 -1.32 8 -2 8 C-2.33 8.66 -2.66 9.32 -3 10 C-2.49287967 6.28111761 -1.88391785 3.26545761 0 0 Z " fill="#689557" transform="translate(27,414)"/>
<path d="M0 0 C0.66 0.33 1.32 0.66 2 1 C0.89300099 4.21029714 -0.01603825 5.00968977 -3 6.8125 C-3.99 7.204375 -4.98 7.59625 -6 8 C-6.66 7.67 -7.32 7.34 -8 7 C-5.36 4.69 -2.72 2.38 0 0 Z " fill="#6D9B5D" transform="translate(39,402)"/>
<path d="M0 0 C0.33 0.66 0.66 1.32 1 2 C-0.61000397 5.13950774 -2.38499232 7.63404067 -5 10 C-5 4.69520066 -3.4637943 3.81017373 0 0 Z " fill="#6A9A5C" transform="translate(361,407)"/>
<path d="M0 0 C1 2 1 2 0.375 5 C-1 8 -1 8 -6 10 C-4.02 6.7 -2.04 3.4 0 0 Z " fill="#618B51" transform="translate(388,388)"/>
<path d="M0 0 C-2.67478244 1.6627026 -4.9995144 2.99983813 -8 4 C-8.99 3.34 -9.98 2.68 -11 2 C-3.57142857 -1.57142857 -3.57142857 -1.57142857 0 0 Z " fill="#7BB168" transform="translate(379,401)"/>
<path d="M0 0 C0.33 0.99 0.66 1.98 1 3 C-0.8125 5.6875 -0.8125 5.6875 -3 8 C-3.66 8 -4.32 8 -5 8 C-3.8141763 4.62496331 -2.72426311 2.35277269 0 0 Z " fill="#615F5F" transform="translate(19,398)"/>
<path d="M0 0 C0.66 0 1.32 0 2 0 C1.67 0.99 1.34 1.98 1 3 C0.34 3 -0.32 3 -1 3 C-1.103125 3.639375 -1.20625 4.27875 -1.3125 4.9375 C-1.539375 5.618125 -1.76625 6.29875 -2 7 C-2.99 7.33 -3.98 7.66 -5 8 C-3.63055898 5.05043472 -2.12169591 2.47531189 0 0 Z " fill="#648F53" transform="translate(64,383)"/>
<path d="M0 0 C0.66 0.33 1.32 0.66 2 1 C1.67 1.99 1.34 2.98 1 4 C-0.98 4.33 -2.96 4.66 -5 5 C-3.35 3.35 -1.7 1.7 0 0 Z " fill="#689459" transform="translate(367,402)"/>
<path d="M0 0 C2.31 0 4.62 0 7 0 C6.67 0.99 6.34 1.98 6 3 C4.02 3 2.04 3 0 3 C0 2.01 0 1.02 0 0 Z " fill="#CCDFEF" transform="translate(360,219)"/>
<path d="M0 0 C0.20625 0.61875 0.4125 1.2375 0.625 1.875 C2.54775888 4.84653645 4.66594527 5.13024659 8 6 C8 6.33 8 6.66 8 7 C5.36 7 2.72 7 0 7 C0 4.69 0 2.38 0 0 Z " fill="#CEE1F0" transform="translate(133,149)"/>
</svg>
